<svg width="32" height="32" fill="none" xmlns="http://www.w3.org/2000/svg"><path d="M6.797 5c2.414 0 4.22 1.026 5.415 3.08.293.542.44 1.175.44 1.897v2.374c0 .053-.066.106-.197.159H8.74c-.062 0-.143-.07-.243-.209V9.917c0-.708-.444-1.195-1.33-1.46h-.626c-1.01.199-1.515.632-1.515 1.301-.039 0-.058.126-.058.378v10.6c0 .714.312 1.218.937 1.509.216.106.49.159.821.159h.197c1.05-.186 1.574-.636 1.574-1.351v-2.92c0-.053.08-.123.243-.21h3.656c.062 0 .146.07.255.21v2.87c0 2.06-1.262 3.61-3.784 4.65-.725.178-1.373.267-1.944.267h-.127c-2.168 0-3.869-.884-5.103-2.652-.463-.61-.694-1.6-.694-2.97v-9.626c0-2.04.652-3.48 1.955-4.321A5.954 5.954 0 016.797 5zm-1.701.973c-.293-.053-.44-.125-.44-.218v-.05l.058-.109c-.3.146-.49.219-.567.219v.05c1.25.297 3.097 1.161 5.543 2.592.555.377 1.457 1.083 2.707 2.116v-.219l-.127-.169.127-.159v-.218c-.093 0-.262.056-.51.169-.33-.292-.497-.49-.497-.596h.058c.378-.18.652-.268.822-.268v-.219l-1.261.318c-.17-.06-.255-.186-.255-.378 0-.132.42-.327 1.261-.586a.404.404 0 01-.058-.169c-.732.219-1.257.418-1.573.596h-.07c-.062 0-.142-.072-.243-.218.378-.331.922-.583 1.632-.755-.062-.146-.124-.219-.185-.219a5.696 5.696 0 00-1.701.865.782.782 0 01-.44-.318c.918-.543 1.547-.815 1.886-.815v-.05c0-.072-.062-.109-.185-.109-1.095.371-1.767.64-2.013.805h-.07l-.567-.318c.016-.166.583-.417 1.701-.755.34-.146.51-.238.51-.278l-.197-.11c-1.427.616-2.226.924-2.396.924H7.99c-.61-.357-.965-.536-1.065-.536v-.06c.039-.099.332-.241.88-.427.578-.437.933-.655 1.064-.655v-.11a.59.59 0 01-.185-.05c-1.05.683-1.786 1.024-2.21 1.024h-.058v-.05c.501-.556.984-.917 1.446-1.083v-.05l-.312-.059c0 .04-.505.4-1.516 1.083-.378-.093-.567-.182-.567-.268v-.06c0-.053.316-.305.949-.755h-.127c-.155 0-.532.235-1.134.705h-.058zm-2.395.865l-.07.109v.05c.456 0 1.655.417 3.599 1.251h.312c-.98-.583-2.26-1.053-3.841-1.41zm-.567.646l-.058.109v.06c.324 0 1.454.324 3.39.973l.128-.169c-1.921-.649-3.074-.973-3.46-.973zm-.51.814a.401.401 0 01-.057.16c1.219.218 2.33.49 3.332.814v-.06l.07-.1a21.307 21.307 0 00-3.344-.814zm-.242.815c-.046.251-.07.394-.07.427.209.165.313.311.313.437l-.185.11-.128-.06v.486c.294-.218.652-.328 1.076-.328.147 0 .336.02.567.06.162-.026.351-.225.567-.596a.785.785 0 01.44-.159c.417.073.625.252.625.537v.109c0 .119-.124.318-.37.596.293.55.44.854.44.914v.169c0 .053-.066.106-.197.159h-.128c-.03 0-.154-.2-.37-.597-.486-.324-.991-.486-1.516-.486h-.185c-.385 0-.702.126-.949.377v.596l.382-.268h.128l.879.427v.06l-.255.159h-.312c-.139 0-.413-.053-.822-.16v.22c.425.033.637.085.637.158v.11c-.108.178-.193.268-.255.268h-.382v.218c.348 0 .579.126.695.378 0 .033.061.07.185.109.378-.146.652-.291.821-.437h.128c.254.165.381.4.381.705-.717-.073-1.2-.109-1.446-.109h-.764v.159h.51c.609 0 1.133.073 1.573.218v.11l-.07.268c-.585-.073-.983-.11-1.191-.11-.525.04-.798.06-.821.06v.16c.524-.034.84-.05.948-.05.27.072.46.109.567.109h.127v.11c0 .138-.316.244-.948.317a18.22 18.22 0 00-.695-.11v.22l.695.108c.871 0 1.438-.377 1.7-1.132 0-.252.02-.377.058-.377-.13-.65-.443-.974-.937-.974 0 .133-.146.295-.44.487h-.127c-.061 0-.146-.126-.254-.378.2-.364.578-.546 1.134-.546.416 0 .732.11.948.328h.243v-.268l-.057-.11c.092-.073.239-.109.44-.109v-.924l-.128-.377c.085 0 .127-.037.127-.11V9.65c-.108-.179-.316-.305-.625-.378l-.636.16c-.447-.146-1.138-.252-2.071-.318zm.497.268c.309 0 .71.053 1.204.159v.06c0 .25-.108.377-.324.377-.671 0-1.007-.126-1.007-.378-.038 0-.058-.056-.058-.169a.59.59 0 01.185-.05zm6.861.268v.11l2.083 1.51c.085.013.127.049.127.109v.06c0 .032-.084.102-.254.208-.085 0-.378-.179-.88-.537l-.948-.645H8.81v.159c1.033.748 1.558 1.145 1.573 1.192 0 .04-.104.129-.312.268h-.127c0-.066-.336-.281-1.007-.646 0-.073-.042-.109-.127-.109v.209c.524.443.86.698 1.006.764h.313c1.219-.794 1.975-1.192 2.268-1.192v-.218h-.058c-.625.252-.984.377-1.076.377 0-.046-.147-.119-.44-.218-.833-.643-1.527-1.11-2.083-1.4zm-6.606 1.46h.058c1.01 0 1.6.288 1.77.865v.109c0 .073-.042.11-.127.11h-.07c-.239 0-.91-.289-2.013-.865.046-.146.174-.219.382-.219zm6.676 1.024v.169h.255c0-.06-.085-.116-.255-.17zm-6.93 3.784h-.313c-.039 0-.058.02-.058.06l-.127-.06h-.07v.219h.51c.848 0 1.646-.341 2.395-1.023l.058-.279v-.05h-.058c-.749.756-1.528 1.133-2.338 1.133zm.948 1.192c-.902-.218-1.408-.327-1.516-.327v.278h.07c.617 0 1.708.34 3.274 1.023h.058v-.268c-.177 0-.366-.182-.567-.547 0-.324.127-.54.382-.645h.127v.645h.058v-1.082c-.563.496-1.15.768-1.759.814 0 .073-.042.11-.127.11zm1.007-.05l.058.1v.218c0 .073-.043.11-.128.11-.239-.146-.385-.219-.44-.219 0-.08.17-.149.51-.209zm4.975 1.133v.596c.44 1.523 1.13 2.586 2.072 3.189.223.232.582.463 1.075.695.085 0 .128-.033.128-.099v-.11c-.556-.145-1.227-.668-2.014-1.569-.64-.821-1.018-1.705-1.133-2.652v-.05H8.81zm.88 0c.416 1.682 1.002 2.782 1.758 3.298l.822.596v-.218c-1.157-.855-1.828-1.719-2.013-2.593-.255-.351-.382-.712-.382-1.083h-.186zm1.388 0v.318c.27 1.258.71 2.106 1.32 2.543v-.11c0-.059-.252-.49-.753-1.29-.224-.795-.35-1.193-.382-1.193l.058-.109v-.159h-.243zm1.134 0c.085.358.127.573.127.646h.058v-.646h-.185zm-10.9.487v.219h.07c.995 0 2.086.357 3.274 1.072h.058v-.159c-1.219-.755-2.352-1.132-3.402-1.132zm10.83.914v.11c.055.27.14.416.255.436v-.437c0-.033-.02-.05-.058-.05l.058-.109v-.328c-.17.053-.254.18-.254.378zm-10.83 0v.218h.07c.802 0 1.913.341 3.332 1.024v-.209c-.37-.298-1.292-.623-2.765-.974a3.638 3.638 0 00-.637-.06zm0 1.033v.05c.031.066.683.265 1.956.596.555.245 1.415.712 2.58 1.4.34.04 1.473.888 3.402 2.543h.058a.59.59 0 01.196-.05v-.059c-.069 0-.617-.45-1.643-1.351-1.188-.874-2.676-1.738-4.466-2.593-1.072-.357-1.766-.536-2.083-.536zm7.498 0a3.6 3.6 0 01-.07.646 26.65 26.65 0 002.836 2.106c.085 0 .127-.037.127-.11v-.109c-.378-.113-1.068-.596-2.071-1.45-.448-.398-.702-.759-.764-1.083H8.81zm-7.498.864v.11c.047.099.656.33 1.829.695a25.67 25.67 0 014.223 2.602l.752.696a.756.756 0 01.312-.05v-.06c-.092 0-.89-.612-2.395-1.837-2.306-1.259-3.587-1.888-3.841-1.888-.417-.099-.71-.188-.88-.268zm6.735.705l-.116.16c1.226 1.02 2.148 1.705 2.765 2.056l.128-.17c-.78-.45-1.705-1.132-2.777-2.046zm-6.48.209v.11c.208.145.795.38 1.759.704 1.095.53 2.333 1.358 3.714 2.484h.254v-.05c-.848-.728-2.063-1.56-3.644-2.493-1.219-.503-1.913-.755-2.083-.755zm5.543.218c1.072.928 2.036 1.666 2.892 2.216a.594.594 0 01.197-.05v-.11c-.432-.191-1.377-.893-2.835-2.105h-.07a.59.59 0 01-.184.05zm-5.034.755c0 .153.563.477 1.69.974l2.024 1.301h.185c-1.396-1.1-2.696-1.857-3.899-2.275zm11.277-1.092h.694c-.362.337-.544.602-.544.794v.14h.081c.062 0 .32-.024.776-.07l.15.397c0 .265-.335.398-1.006.398h-.07v.536c0 .232.771.45 2.314.656h.382c.154.397.231.662.231.794h.463c-.254-.245-.382-.51-.382-.794v-.199c.14-.748.552-1.122 1.238-1.122v-.269c-.223-.417-.636-.725-1.238-.924-.123 0-.459-.089-1.006-.268v-.07h1.932c.1.398.204.597.312.597v-.596h.07V26h-4.397v-3.715zm1.389.139c1.65.364 2.476.715 2.476 1.053-.186.311-.471.467-.857.467-1.134-.239-1.7-.504-1.7-.795-.116-.133-.37-.222-.764-.268v-.06c.162-.265.443-.397.845-.397zm.15 1.321c.748.265 1.215.397 1.4.397v.199c0 .358-.158.536-.474.536h-.301c-.37 0-1.015-.155-1.932-.466v-.13c.694-.119 1.13-.298 1.307-.536zm2.707 1.39c-.1.312-.15.577-.15.795h.231v-.794h-.08zm-4.165.597v.198h.764v-.06c-.131 0-.386-.046-.764-.138zm6.019-20.653h5.23c2.992 0 5.01 1.2 6.05 3.596.178.53.267 1.047.267 1.55v10.679c0 2.1-1.227 3.689-3.68 4.768a6.471 6.471 0 01-2.059.328h-5.866c-.07 0-.135-.056-.197-.17V5.299c0-.053.085-.126.255-.219zm4.709.279v.05c2.545 1.032 4.327 2.731 5.345 5.096-.139.072-.59.145-1.354.218 0-.139-.362-.543-1.087-1.212.085.351.363.755.833 1.212a.404.404 0 00-.058.169h-.07c-.3-.027-.45-.136-.45-.328h-.07v.656c1.358-.331 2.198-.497 2.522-.497.108 0 .428.02.96.06v-.11a8.594 8.594 0 00-1.41-2.602c-.186-.371-1.046-1.182-2.581-2.434-.154-.132-.436-.225-.845-.278v.05c.24 0 1.08.685 2.523 2.056 1.203 1.298 1.824 2.218 1.862 2.761v.279h-.127c-.3 0-.517-.279-.648-.835l-1.666-2.155c-1.558-1.279-2.7-1.997-3.425-2.156h-.254zm-4.71.218v.17c2.014.31 3.668.863 4.964 1.658 1.096.888 1.72 1.331 1.875 1.331v-.06c-.864-.708-1.296-1.095-1.296-1.162.046-.072.07-.129.07-.168h-.07a.513.513 0 01-.185.06c-.656-.405-1.516-.812-2.58-1.223-1.358-.404-2.284-.606-2.777-.606zm7.938.17v.049c.409.245 1.01.818 1.805 1.718.362.285.814.785 1.354 1.5v-.06c0-.37-.799-1.294-2.395-2.77-.039-.12-.294-.266-.764-.438zm-7.937.496v.169c1.026.053 2.102.31 3.228.774 1.21.729 1.855 1.153 1.932 1.272h.324c-1.72-1.404-3.267-2.106-4.64-2.106 0-.066-.258-.103-.775-.11h-.07zm0 .715v.229h.069a7.62 7.62 0 013.668 1.271h.451v-.06c-1.296-.701-2.025-1.052-2.187-1.052-.98-.259-1.647-.388-2.001-.388zm0 1.003v.219c.586.026 1.77.434 3.552 1.222v-.17c-.833-.51-2.017-.933-3.552-1.27zm3.806.715v13.838h2.13c.902 0 1.438-.553 1.608-1.659v-10.41c0-.835-.386-1.388-1.157-1.66a3.425 3.425 0 00-.776-.109H23.26zm-3.806.17v.169c.4 0 1.585.387 3.552 1.162v-.17c-.656-.39-1.84-.777-3.552-1.161zm0 .665v.11c0 .065.54.211 1.62.436.77.298 1.415.596 1.932.894v-.169c-1.01-.675-2.195-1.099-3.552-1.271zm0 1.103v.168l.775.17v.109c-.216.006-.475.152-.775.437v.169c.594-.332 1.176-.497 1.747-.497.856.172 1.458.43 1.805.775v-.219c0-.35-1.142-.722-3.425-1.112h-.127zm.323 2.106v.218c.216.225.325.374.325.447-.108.259-.325.388-.648.388v.218h.127c.424 0 .922.15 1.492.447.178 0 .305.166.382.497.664 0 1.157 1.05 1.481 3.149h.07v-.825c0-.794-.39-1.645-1.169-2.552-.748-.53-1.304-.805-1.666-.825v-.169c.054-.278.139-.424.254-.437.61 0 1.32.553 2.13 1.659.254.358.381.596.381.715h.07v-.606c-.155-.013-.286-.179-.394-.496 0-.226.131-.447.394-.666v-.169h-.128c-.054 0-.227.186-.52.556-.68-.695-1.408-1.119-2.187-1.271-.093 0-.139-.037-.139-.11v-.119c.232-.33.532-.496.902-.496h.07c.702 0 1.13.112 1.284.338.178.152.266.298.266.437v.228c0 .033-.023.05-.069.05.046.073.07.129.07.169h.323l.128.05v-.269c-.185 0-.317-.222-.394-.665-.355-.371-.655-.557-.902-.557h-.324c-.833 0-1.37.222-1.609.666zm7.475-.06v.338c.401 0 .702.182.903.546 0 .126-.255.275-.764.447-.093.12-.139.229-.139.328v.507c.162-.08.336-.12.52-.12h.128l.197.12c-.162.218-.27.493-.324.824.3.49.451.805.451.944a.373.373 0 00-.07.218c.818.484 1.227 1 1.227 1.55l.127.06c.24-.331.436-.497.59-.497.178 0 .39-.185.637-.556v-.278h-.058c0 .119-.108.212-.324.278a5.976 5.976 0 00-1.296-.219l-.127-.169v-.169c.285-.072.459-.109.52-.109.494.007.922.08 1.285.219v-.16c0-.105-.386-.181-1.157-.228h-.127c-.301 0-.625.057-.972.17v-.388c.316-.258.748-.388 1.296-.388.215 0 .536.02.96.06v-.169a10.599 10.599 0 01-.775-.11c-.116 0-.652.094-1.609.279-.216-.225-.324-.354-.324-.387 0-.272.54-.457 1.62-.557h1.088v-.169l-.324-.05h-.706c-.308.074-.736.11-1.284.11 0-.212-.174-.417-.52-.616 0-.146.558-.255 1.677-.328l1.157.11v-.219h-.058l-2.198-.06-.058-.109c0-.33.3-.496.902-.496h.451c.216 0 .537.02.96.06v-.17c-.663-.073-1.071-.109-1.226-.109-.208 0-.594.053-1.157.159a.82.82 0 01-.45-.328v-.169c.57-.218 1.087-.328 1.55-.328h.45c.363 0 .641.037.834.11v-.219l-.833-.11c-.432 0-1.315.183-2.65.547zm-7.799 1.996v.17c1.034 0 1.829.698 2.384 2.095.046.252.07.457.07.616 0 .808-.151 1.212-.452 1.212h-.324c0-.212.023-.506.07-.884 0-1.146-.517-1.9-1.55-2.265h-.197v.11c.053.046.246.139.578.278 0 .198.197.344.59.437.208.51.313 1.01.313 1.5v.159c-.085.96-.405 1.44-.96 1.44-.194-.073-.302-.146-.325-.218.556-.49.833-.878.833-1.163v-.387c0-.563-.343-1.007-1.03-1.331v.218c.41 0 .69.427.845 1.282v.109c-.077.55-.358.824-.845.824v.616c.425.364.768.547 1.03.547h.324c.27 0 .444-.093.52-.279-.169-.218-.254-.384-.254-.496v-.05c0-.06.085-.136.255-.228.771 0 1.157.278 1.157.834v.06c-.216.192-.324.374-.324.546h.127l.52-.437.198.11v-.28c-.216-.139-.324-.232-.324-.278l.324-.437v-.725h-.07c-.054.516-.162.774-.324.774h-.058a1.43 1.43 0 01-.578-.437 4.54 4.54 0 00.127-1.003v-.278c0-.801-.451-1.593-1.354-2.374-.455-.258-.887-.387-1.296-.387zm7.8 2.156v.219l.45.556c0 .557-.15.835-.45.835v.218h.59c.262 0 .582.13.96.388h.196v-.17c-.493-.277-.86-.443-1.099-.496v-.824c0-.278-.216-.52-.648-.726zm2.324.556c.216.113.367.17.452.17v.049c-.023.093-.174.185-.452.278l-.196-.219v-.168c0-.073.065-.11.196-.11zm-10.123.17v.715h.069l.058-.388v-.06l-.058-.268h-.07zm1.295 1.877c.17.04.255.133.255.278l-.197.11h-.324c-.085 0-.127-.037-.127-.11.077-.185.208-.278.393-.278zm-1.296.447v.219c.263 0 .413.109.452.327-.162.113-.313.17-.451.17v.218h.069c.432-.106.733-.16.902-.16-.17-.516-.47-.774-.902-.774h-.07zm7.8.497v.158h.069c.17-.105.297-.158.381-.158v.05c-.3.82-.705 1.486-1.214 1.996-.24.139-.606.526-1.1 1.162h-.127c-.293 0-.509-.073-.648-.218l.382-.557h-.185c-.347.331-.563.497-.648.497-.386-.133-.579-.298-.579-.497h-.393v.17c.748.588 1.523.883 2.326.883h.52c1.042 0 1.921-.387 2.638-1.162.301-.576.452-1 .452-1.272 0-.715-.324-1.195-.972-1.44-.286 0-.587.13-.903.388zm.902-.17c.1 0 .23.11.393.328-.054.597-.74 1.557-2.06 2.881-.262.146-.435.219-.52.219a.593.593 0 00-.197-.05v-.169c1.365-1.43 2.098-2.427 2.198-2.99.039 0 .1-.073.186-.218zm-5.543.835v.219c.085 0 .216.072.394.218v-.715c-.263.126-.394.218-.394.278zm6.133-.12a.625.625 0 01.127.338v.219c-.07.45-.309.93-.718 1.44-.64.371-1.045.557-1.214.557 0-.04-.024-.06-.07-.06l1.423-1.828c.224-.443.374-.665.451-.665zm-9.291 1.392v.159h.069c.27 0 .42-.219.451-.656.363-.185.706-.278 1.03-.278.185 0 .42.11.706.328 0 .271-.752.566-2.256.884v.278c1.002-.292 1.82-.566 2.452-.825l.128.328c-.664.662-1.524.993-2.58.993v.17h.069c.818 0 1.589-.239 2.314-.716h.197c0 .272-.278.566-.833.884-.37.172-.953.318-1.747.437v.17c1.85-.186 2.776-.646 2.776-1.381.039-.047.058-.176.058-.388 0-.636-.32-1.08-.96-1.331-.031 0-.162-.02-.394-.06-.825 0-1.276.298-1.353.894-.085.007-.127.043-.127.11zm7.161 3.317h.058c.833-.251 1.886-1.175 3.159-2.771v-.11c-.062 0-.49.444-1.284 1.332-.155.053-.799.57-1.933 1.55zm-7.162-.06v.23c1.682-.444 2.608-.815 2.777-1.113v-.05h-.069c-1.435.623-2.337.934-2.707.934zm5.415.17v.06h.394a7.87 7.87 0 001.226-.944v-.11h-.07c-.902.663-1.419.994-1.55.994zm-3.286 0v.06h.324c.517-.107 1.01-.401 1.481-.885v-.119c-.879.556-1.48.87-1.805.944zm1.875.06h.324c.509-.305.81-.547.902-.726v-.05h-.138l-1.088.775z" fill="url(#paint0_linear_332_3)"/><defs><linearGradient id="paint0_linear_332_3" x1="1" y1="4.96" x2="33.52" y2="34.466" gradientUnits="userSpaceOnUse"><stop stop-color="#0DF"/><stop offset="1" stop-color="#FF00D4"/></linearGradient></defs></svg>