<svg width="32" height="32" fill="none" xmlns="http://www.w3.org/2000/svg"><path d="M23.325 3a7.428 7.428 0 00-6.13 3.288l4.88 5.671a1.081 1.081 0 01-.823 1.788 1.075 1.075 0 01-.821-.38l-4.365-5.056-2.392-2.8c-.583-.677-1.108-1.428-1.93-1.84a6.857 6.857 0 00-3.069-.67C3.741 3.03.106 8.478 1.193 13.573c.543 2.54 2.368 4.599 3.82 6.6 1.853 2.55 5.464 6.161 8.04 8.619a4.195 4.195 0 005.892 0c2.586-2.458 6.19-6.069 8.043-8.62 1.452-1.995 3.277-4.046 3.82-6.6 1.084-5.094-2.548-10.54-7.483-10.571z" fill="url(#paint0_radial_242_117)"/><defs><radialGradient id="paint0_radial_242_117" cx="0" cy="0" r="1" gradientUnits="userSpaceOnUse" gradientTransform="rotate(60.654 -6.712 9.991) scale(21.8602 24.157)"><stop stop-color="#30B3EC"/><stop offset="1" stop-color="#18CBDD"/></radialGradient></defs></svg>