<svg width="39" height="37" fill="none" xmlns="http://www.w3.org/2000/svg"><mask id="a" maskUnits="userSpaceOnUse" x="0" y="0" width="39" height="37" fill="#000"><path fill="#fff" d="M0 0h39v37H0z"/><path fill-rule="evenodd" clip-rule="evenodd" d="M16.39 2.032c-.728.108-1.307.505-1.616 1.11-.187.366-.18 1.118.016 1.553.196.437.726.915 1.13 1.02.17.045 1.168.12 2.217.167 1.049.048 2.149.137 2.445.199 2.284.478 3.656 2.675 2.994 4.795-.312.997-1.215 1.923-2.256 2.314-.486.182-1.694.395-2.25.396-.37.001-1.164.345-1.563.679a2.69 2.69 0 00-.478.579c-.524.885-.027 2.14 1.02 2.572.158.066.672.152 1.142.192 1.083.092 1.675.24 2.424.601.78.377 1.447 1.031 1.804 1.768.66 1.36.269 3.147-.907 4.15-.758.645-1.345.84-2.833.94-1.435.096-1.694.168-2.19.609-1.272 1.13-.679 3.126 1.034 3.48.771.16 4.925.051 6.141-.16 7.216-1.253 12.233-7.972 11.286-15.115-.439-3.305-1.998-6.22-4.53-8.464-2.092-1.853-5.197-3.188-7.766-3.34-1.228-.072-6.844-.107-7.263-.045zm-1.945 5.865c-5.043.486-9.506 3.772-11.395 8.39-1.28 3.128-1.39 6.275-.328 9.436a13.038 13.038 0 003.116 5.102c1.972 2.023 4.331 3.325 7.166 3.954.743.164 1.037.177 4.803.207 3.62.03 4.046.02 4.37-.103 1.365-.516 1.705-2.137.66-3.148-.436-.42-.741-.481-2.894-.577-2.776-.124-3.5-.333-4.5-1.297a3.576 3.576 0 01-.775-1.083c-.295-.61-.304-.658-.304-1.512 0-.852.01-.904.3-1.504.468-.969 1.213-1.617 2.29-1.99.25-.088.925-.21 1.502-.273 1.14-.126 1.596-.29 2.166-.786.309-.268.678-.936.68-1.23.001-.458-.267-1.044-.646-1.408-.467-.447-.9-.598-1.905-.666-.896-.06-1.552-.223-2.235-.553-.601-.292-1.44-1.029-1.733-1.523-.925-1.563-.41-3.69 1.14-4.704.657-.43 1.168-.568 2.41-.65 1.427-.095 1.742-.178 2.202-.579.522-.453.715-.862.714-1.504-.002-.847-.403-1.497-1.147-1.86-.37-.18-.455-.186-2.655-.197-1.25-.007-2.6.02-3.002.058z"/></mask><path d="M16.39 2.032l.293 1.978-.292-1.978zm-1.616 1.11l1.782.909-1.782-.91zm.016 1.553l-1.824.82 1.824-.82zm1.13 1.02l-.505 1.936h.001l.505-1.935zm2.217.167l-.09 1.998.09-1.998zm2.445.199l-.41 1.957.41-1.957zm2.994 4.795l1.909.596-1.91-.596zM21.32 13.19l.703 1.872-.703-1.872zm-2.25.396l.004 2-.004-2zm-1.563.679l-1.282-1.536 1.282 1.536zm-.478.579l-1.72-1.02 1.72 1.02zm1.02 2.572l.764-1.848h-.001l-.764 1.848zm1.142.192l.17-1.993h-.001l-.17 1.993zm2.424.601l.87-1.8-.87 1.8zm1.804 1.768l1.8-.872-1.8.872zm-.907 4.15l1.297 1.521-1.297-1.522zm-2.833.94l-.133-1.996.133 1.996zm-2.19.609L16.16 24.18l1.329 1.495zm1.034 3.48l-.405 1.959.405-1.959zm6.141-.16l.342 1.97-.342-1.97zM35.95 13.88l-1.983.262 1.983-.262zm-4.53-8.464l-1.327 1.497 1.326-1.497zm-7.766-3.34l-.117 1.997.117-1.996zm-9.21 5.82l-.19-1.99h-.001l.192 1.99zM3.05 16.287l1.85.757-1.85-.758zm-.328 9.436l1.896-.637-1.896.637zm3.116 5.102L4.406 32.22l1.432-1.396zm7.166 3.954l-.434 1.952.434-1.952zm4.803.207l-.016 2 .016-2zm4.37-.103l.706 1.871-.706-1.871zm.66-3.148l1.39-1.438-1.39 1.438zm-2.894-.577l.09-1.998-.09 1.998zm-4.5-1.297l1.387-1.44-1.388 1.44zm-.775-1.083l-1.801.87 1.801-.87zm-.004-3.016l-1.801-.87 1.8.87zm2.29-1.99l.657 1.888-.657-1.889zm1.502-.273l.218 1.988-.218-1.988zm2.166-.786l1.311 1.51-1.31-1.51zm.68-1.23l-2-.009 2 .01zm-.646-1.408l1.384-1.444-1.384 1.444zm-1.905-.666l.135-1.996-.135 1.996zm-2.235-.553l-.872 1.8.872-1.8zm-1.733-1.523l1.722-1.018-1.722 1.018zm1.14-4.704l-1.095-1.673 1.096 1.673zm2.41-.65l.133 1.995-.133-1.995zm2.202-.579l-1.313-1.509 1.313 1.51zm.714-1.504l2-.004-2 .004zm-1.147-1.86l-.876 1.799.876-1.799zm-2.655-.197l-.01 2 .01-2zM16.098.053c-1.304.193-2.474.943-3.105 2.179l3.563 1.819c.002-.004.002-.003 0-.001s-.002.002 0 0a.312.312 0 01.127-.04L16.098.053zm-3.105 2.179c-.304.595-.359 1.246-.354 1.681.005.463.081 1.055.327 1.601l3.649-1.638a.62.62 0 01.03.077l.001.005a.542.542 0 01-.007-.086c0-.039.003-.057.001-.05a1.051 1.051 0 01-.085.228l-3.562-1.818zm-.027 3.283c.242.54.623.985.972 1.3.332.299.845.67 1.477.836l1.011-3.87a1.003 1.003 0 01.213.082l-.022-.018a.39.39 0 01-.043-.046l.006.01a.555.555 0 01.035.067l-3.65 1.639zm2.45 2.136c.217.056.47.082.567.092.16.017.355.033.566.05.425.031.957.063 1.498.087l.18-3.996a48.03 48.03 0 01-1.377-.08 16.309 16.309 0 01-.55-.051c-.038-.005.026.001.125.027l-1.009 3.87zm2.631.23c.502.022 1.015.055 1.433.089.21.017.387.033.523.048.158.018.198.026.169.02l.82-3.915c-.486-.101-1.76-.193-2.765-.239l-.18 3.996zm2.125.157c1.236.259 1.773 1.35 1.495 2.241l3.818 1.193c1.046-3.35-1.16-6.652-4.494-7.349l-.819 3.915zm1.495 2.241c-.115.366-.542.848-1.05 1.038l1.406 3.745c1.575-.591 2.953-1.962 3.462-3.59l-3.818-1.193zm-1.05 1.038a3.941 3.941 0 01-.242.066 8.657 8.657 0 01-1.309.203l.008 4c.454 0 1.03-.079 1.495-.16.456-.08 1.03-.205 1.454-.364l-1.406-3.745zm-1.55.27c-.617 0-1.224.232-1.564.379a5.431 5.431 0 00-1.278.763l2.563 3.071c-.011.01.013-.011.084-.052a2.22 2.22 0 01.399-.178c.015-.004.01-.002-.013.002a1.094 1.094 0 01-.184.014l-.008-4zm-2.842 1.142a4.63 4.63 0 00-.916 1.095l3.44 2.04-.003.007a1.077 1.077 0 01.09-.113c.002-.003 0 0-.006.005a.907.907 0 01-.042.037l-2.563-3.07zm-.916 1.095c-1.257 2.121.016 4.632 1.976 5.44l1.527-3.696c.004.002.004.003.001 0-.004-.005-.005-.008-.004-.005.002.003.012.03.01.082a.48.48 0 01-.07.219l-3.44-2.04zm1.975 5.44c.32.132.704.2.888.23.26.044.56.082.849.107l.339-3.986a6.857 6.857 0 01-.683-.096c-.014-.003-.012-.003.002.001.008.003.06.018.134.048l-1.529 3.697zm1.737.337c.91.077 1.25.18 1.724.409l1.74-3.601c-1.025-.496-1.869-.687-3.125-.794l-.34 3.986zm1.724.409c.398.192.725.532.874.84l3.6-1.745c-.565-1.166-1.574-2.136-2.734-2.696l-1.74 3.601zm.874.84c.25.515.1 1.325-.404 1.754l2.595 3.044c1.847-1.574 2.477-4.338 1.409-6.543l-3.6 1.744zm-.404 1.754c-.24.205-.356.26-.475.3-.179.058-.49.12-1.194.167l.266 3.991c.784-.052 1.51-.138 2.187-.362.736-.244 1.293-.61 1.81-1.052l-2.594-3.044zm-1.67.467c-.673.045-1.31.094-1.849.244-.705.196-1.158.53-1.536.866l2.657 2.99c.086-.076.09-.072.055-.05a.554.554 0 01-.069.034l-.035.014c.012-.004.08-.02.264-.042.182-.021.427-.041.78-.065l-.266-3.991zm-3.385 1.11c-2.623 2.331-1.204 6.28 1.958 6.934l.81-3.917a.336.336 0 01-.084-.028.138.138 0 01-.03-.02c-.01-.01-.01-.015-.01-.013 0 .003.004.017-.002.039a.08.08 0 01-.008.02c-.002.001.003-.008.023-.026l-2.657-2.99zm1.959 6.934c.408.084 1.004.104 1.483.113.554.01 1.213.003 1.877-.014 1.273-.033 2.755-.113 3.527-.248l-.684-3.94c-.444.076-1.647.156-2.947.19-.624.016-1.223.02-1.703.012-.555-.01-.767-.035-.744-.03l-.81 3.917zm6.887-.149c8.246-1.431 14.019-9.112 12.926-17.348l-3.965.525c.803 6.052-3.458 11.808-9.645 12.882l.684 3.941zm12.926-17.348c-.502-3.79-2.3-7.14-5.186-9.697l-2.653 2.993c2.178 1.93 3.5 4.41 3.874 7.23l3.965-.526zM32.746 3.92C30.35 1.797 26.828.26 23.772.08l-.235 3.993c2.082.123 4.77 1.257 6.556 2.84l2.653-2.993zM23.772.08c-.678-.04-2.446-.067-4.04-.077-.81-.005-1.6-.006-2.216-.001a47.45 47.45 0 00-.792.01c-.148.004-.425.01-.626.04l.585 3.957c-.096.015-.105.009.14.003.178-.005.424-.008.721-.01a156.65 156.65 0 012.163.001c1.625.01 3.279.038 3.83.07L23.772.08zm-9.52 5.825c-5.767.557-10.878 4.305-13.054 9.623l3.703 1.515c1.602-3.917 5.417-6.74 9.736-7.156l-.384-3.982zM1.2 15.53C-.26 19.096-.39 22.738.827 26.36l3.792-1.273c-.907-2.699-.818-5.352.283-8.042L1.2 15.53zM.826 26.36a15.036 15.036 0 003.58 5.862l2.865-2.792a11.04 11.04 0 01-2.653-4.343L.826 26.359zm3.58 5.862c2.252 2.31 4.961 3.8 8.164 4.51l.867-3.905c-2.465-.547-4.474-1.66-6.166-3.397l-2.865 2.79zm8.164 4.51c1.003.223 1.564.226 5.22.255l.033-4c-3.875-.03-3.902-.052-4.386-.16l-.867 3.905zm5.22.255c1.797.015 2.846.02 3.485.005.604-.014 1.097-.044 1.608-.237l-1.412-3.742c.186-.07.305-.034-.29-.02-.56.013-1.534.01-3.358-.005l-.032 4zm5.094-.232c2.724-1.029 3.453-4.416 1.342-6.457l-2.78 2.876c.027.026.019.029.01.001a.181.181 0 01.033-.165c.017-.02.02-.012-.018.003l1.413 3.742zm1.342-6.457a3.464 3.464 0 00-.775-.577 3.636 3.636 0 00-1.026-.357c-.582-.116-1.37-.158-2.393-.203l-.178 3.996c.537.024.932.044 1.236.068.31.023.47.046.552.062.068.014.013.01-.086-.043-.1-.055-.15-.109-.11-.07l2.78-2.876zm-4.194-1.137c-1.405-.063-2.056-.143-2.452-.257-.257-.074-.413-.157-.75-.481l-2.776 2.88c.664.639 1.37 1.142 2.419 1.445.91.262 2.01.348 3.381.409l.178-3.996zm-3.202-.738a1.59 1.59 0 01-.361-.514l-3.602 1.74a5.57 5.57 0 001.187 1.653l2.776-2.88zm-.361-.514a5.448 5.448 0 01-.121-.26c-.007-.015.007.018.018.071.009.043.005.052.002-.024a11.76 11.76 0 01-.004-.43h-4c0 .359-.007.81.08 1.243.098.485.296.876.423 1.14l3.602-1.74zm-.105-.642c0-.22 0-.342.004-.428.003-.078.007-.07-.002-.027-.01.053-.024.086-.019.073.014-.035.041-.094.118-.253l-3.602-1.74c-.127.263-.322.652-.42 1.137-.085.43-.08.88-.08 1.238h4zm.1-.634c.222-.46.538-.76 1.147-.972l-1.313-3.778c-1.545.537-2.721 1.532-3.435 3.01l3.602 1.74zm1.147-.972c-.04.014-.034.01.05-.01a11.066 11.066 0 011.013-.163l-.436-3.977c-.592.065-1.462.206-1.94.372l1.313 3.778zm1.063-.173c.61-.067 1.202-.16 1.76-.362a4.633 4.633 0 001.5-.901l-2.623-3.021c-.149.13-.197.146-.24.161-.096.035-.302.088-.833.146l.436 3.977zm3.26-1.263c.405-.352.709-.814.894-1.149a4.54 4.54 0 00.288-.625 2.85 2.85 0 00.185-.957l-4-.019a1.549 1.549 0 01.035-.314.676.676 0 01.024-.086c.003-.007-.007.018-.034.067a1.083 1.083 0 01-.073.115c-.009.012-.012.015-.006.01a.714.714 0 01.064-.063l2.622 3.02zm1.367-2.73c.005-1.089-.549-2.18-1.261-2.863l-2.768 2.888-.008-.008a.36.36 0 01.048.087.349.349 0 01-.006-.034.666.666 0 01-.005-.09l4 .02zM22.04 18.63a3.98 3.98 0 00-1.474-.92c-.55-.192-1.125-.26-1.68-.298l-.27 3.991c.45.03.595.072.629.084.004 0-.008-.003-.022-.012-.01-.007.004 0 .049.043l2.768-2.888zm-3.154-1.218c-.688-.046-1.085-.157-1.499-.358l-1.742 3.6c.952.462 1.866.675 2.972.75l.269-3.992zm-1.499-.358a2.929 2.929 0 01-.533-.387 3.442 3.442 0 01-.276-.269c-.078-.087-.092-.116-.073-.085l-3.443 2.037c.304.514.768.985 1.152 1.322.398.35.91.73 1.43.983l1.743-3.6zm-.882-.74c-.363-.614-.17-1.565.514-2.013l-2.191-3.346c-2.415 1.581-3.253 4.882-1.766 7.395l3.443-2.037zm.514-2.013c.19-.124.289-.165.41-.198.17-.045.45-.09 1.037-.13l-.265-3.991c-.655.043-1.253.108-1.813.26a5.255 5.255 0 00-1.56.713l2.191 3.346zm1.447-.328c.684-.045 1.31-.097 1.839-.236a3.657 3.657 0 001.543-.83l-2.626-3.016c-.056.049-.05.036-.005.011.05-.028.086-.037.072-.033-.03.007-.114.026-.303.048-.188.021-.437.042-.785.065l.265 3.991zm3.382-1.065c.39-.339.778-.765 1.047-1.333a3.84 3.84 0 00.354-1.684l-4 .009c0 .06-.005.075-.002.06a.358.358 0 01.034-.1.42.42 0 01.026-.046l.01-.015a1.303 1.303 0 01-.095.092l2.626 3.017zm1.4-3.017c-.003-1.588-.82-2.947-2.271-3.654l-1.751 3.597c.038.018.05.03.048.028a.132.132 0 01-.022-.028c-.01-.016-.012-.025-.011-.02a.367.367 0 01.008.086l4-.01zm-2.27-3.654a3.417 3.417 0 00-.605-.234 3.92 3.92 0 00-.764-.124c-.43-.032-1.093-.036-2.151-.041l-.021 4c1.141.006 1.62.01 1.875.03.105.008.076.012-.005-.01-.091-.025-.153-.06-.081-.024l1.751-3.597zm-3.52-.4c-1.23-.006-2.685.018-3.205.068l.383 3.982c.284-.027 1.532-.056 2.8-.05l.022-4z" fill="#373ECF" mask="url(#a)"/></svg>