<svg width="35" height="35" fill="none" xmlns="http://www.w3.org/2000/svg"><path d="M16.584 25.298l-6.882-6.882m1.86-3.949l8.97 8.97m2.905-2.904l-8.97-8.97m3.949-1.861l6.882 6.882m.418-3.192c0 6.806-5.518 12.324-12.324 12.324S1 20.198 1 13.392 6.586 1 13.392 1c6.806 0 12.324 5.586 12.324 12.392zM34 21.608C34 28.414 28.414 34 21.608 34c-6.806 0-12.324-5.586-12.324-12.392 0-6.806 5.518-12.324 12.324-12.324S34 14.802 34 21.608z" stroke="#373ECF" stroke-width="2" stroke-miterlimit="10" stroke-linecap="round" stroke-linejoin="round"/></svg>