<svg width="39" height="29" fill="none" xmlns="http://www.w3.org/2000/svg"><mask id="a" maskUnits="userSpaceOnUse" x="0" y="0" width="39" height="29" fill="#000"><path fill="#fff" d="M0 0h39v29H0z"/><path fill-rule="evenodd" clip-rule="evenodd" d="M4.046 2.156c-.63.29-1.23 1.23-1.341 2.102-.03.225-.15.84-.267 1.365-.36 1.609-.44 2.475-.438 4.73.003 2.324.1 2.964.603 3.971.544 1.09 1.597 1.836 2.871 2.036.776.12 2.042-.018 3.02-.332l.685-.22.096-.451c.211-1.005.208-1.115-.07-2.184a24.58 24.58 0 01-.374-1.654l-.101-.609-.476-.06c-1.23-.157-2.363.473-2.964 1.644-.283.552-.532.706-.719.446-.152-.213-.15-.383.016-.858.073-.213.134-.679.134-1.035 0-.56-.075-.866-.548-2.24-.514-1.493-.549-1.646-.56-2.456-.005-.476.018-.967.053-1.093.088-.317.54-.574.878-.499.56.125 1.337-.402 1.513-1.028.286-1.012-1.018-2.034-2.01-1.575zm29.856-.069c-.36.106-.955.693-1.037 1.025-.1.405.093.915.483 1.273.32.294.409.328.853.328.98 0 1.167.273 1.15 1.683-.007.596-.07.9-.344 1.683-.781 2.225-.912 3.012-.65 3.92.163.567.08.947-.206.947-.175 0-.274-.097-.464-.455-.686-1.292-1.958-1.936-3.252-1.646-.26.058-.279.093-.384.717-.06.36-.214 1.086-.342 1.611l-.231.955.154.837.154.837.55.18c1.23.404 2.46.53 3.335.344 1.657-.354 2.622-1.333 3.083-3.124.382-1.484.31-4.883-.152-7.079a37.52 37.52 0 01-.316-1.682c-.156-1.058-.67-1.932-1.337-2.279-.372-.192-.592-.208-1.047-.075zm-9.135.181c-1.004.118-2.435.495-3.466.913-.51.206-.925.4-.924.43.003.103 1.165.75 1.681.937.28.101.851.21 1.27.243.746.058.76.063.788.309.038.336-.293.466-1.02.4-.74-.067-1.576-.402-2.868-1.149-1.272-.736-1.744-.944-3.252-1.44-1.558-.511-2.393-.654-3.834-.654-1.156 0-1.248.014-1.757.26-1.034.499-1.692 1.527-2.028 3.17-.325 1.585-.127 4.567.463 6.999.325 1.34.33 1.602.045 2.99-.71 3.47.23 6.934 2.595 9.57.658.733 1.933 1.754 2.19 1.754.093 0 .282-.099.42-.22l.251-.219.049-2.623c.045-2.448.062-2.656.249-3.111.844-2.058 2.989-3.184 4.905-2.576 1.353.43 2.462 1.66 2.846 3.158.104.408.136 1.05.136 2.704 0 2.362.037 2.569.496 2.781.317.147.515.073 1.16-.43 3.335-2.6 4.806-6.839 3.85-11.092-.281-1.249-.294-1.061.215-3.29.29-1.27.459-2.9.463-4.475.004-1.23-.027-1.608-.184-2.211-.483-1.862-1.328-2.818-2.761-3.127-.532-.115-1.008-.115-1.978 0z"/></mask><path d="M4.046 2.156l.838 1.815-.838-1.815zM2.705 4.258l1.983.255-1.983-.255zm-.267 1.365L.486 5.186l1.952.437zM2 10.353l2-.002-2 .002zm.603 3.971l1.79-.893-1.79.893zm2.871 2.036l.31-1.976-.31 1.976zm3.02-.332l-.612-1.904.611 1.904zm.685-.22l.612 1.904 1.105-.355.24-1.136-1.957-.413zm.096-.451l1.957.413-1.957-.413zm-.07-2.184l1.936-.503-1.936.503zm-.374-1.655l-1.972.33 1.972-.33zm-.101-.608l1.973-.329-.245-1.467-1.476-.188-.252 1.984zm-.476-.06l-.252 1.984.252-1.984zM5.29 12.494l1.779.913-1.78-.913zm-.719.446l1.624-1.168L4.57 12.94zm.016-.858l-1.89-.656 1.89.656zm.134-1.035h-2 2zm-.548-2.24l1.89-.651-1.89.65zm-.56-2.456l-2 .025 2-.025zm.053-1.093l1.927.536-1.927-.536zm.878-.499l.436-1.952-.436 1.952zm1.513-1.028l-1.925-.543 1.925.543zm27.845-1.644l.563 1.92-.563-1.92zm-1.037 1.025l-1.942-.48 1.942.48zm.483 1.273l-1.353 1.473 1.353-1.473zm2.003 2.011l-2-.024 2 .024zm-.344 1.683l-1.887-.662 1.887.662zm-.65 3.92l-1.922.554 1.922-.554zm-.67.492l-1.766.938 1.766-.938zm-3.252-1.646l-.438-1.952.438 1.951zm-.384.717l1.973.332-1.973-.332zm-.342 1.611l1.944.471-1.944-.47zm-.231.955l-1.944-.47-.1.413.077.42 1.967-.363zm.154.837l-1.967.362 1.967-.362zm.154.837l-1.967.362.215 1.168 1.128.37.624-1.9zm.55.18l.624-1.9-.624 1.9zm3.335.344l-.418-1.956.418 1.956zm3.083-3.124l1.937.498-1.937-.498zm-.152-7.079l-1.957.41 1.957-.41zm-.316-1.682l1.978-.293-1.978.293zm-1.337-2.279L35.87.387l-.92 1.775zm-10.182.106l.234 1.986-.234-1.986zm-3.466.913l.75 1.854-.75-1.854zm-.924.43l-1.999.059v.003l2-.061zm1.681.937l-.682 1.88.682-1.88zm1.27.243l.154-1.994-.154 1.994zm.788.309l-1.987.224v.001l1.987-.225zm-1.02.4l-.181 1.992.181-1.992zm-2.868-1.149L21.23 2.62l-1.002 1.731zm-3.252-1.44l-.624 1.9.624-1.9zm-3.834-.654v-2 2zm-1.757.26l.87 1.8-.87-1.8zm-2.028 3.17l-1.96-.402 1.96.401zm.463 6.999l-1.944.471 1.944-.471zm.045 2.99l-1.96-.4 1.96.4zm2.595 9.57l-1.49 1.334 1.489-1.335zm2.61 1.535l1.316 1.506-1.316-1.506zm.251-.22l1.316 1.506.668-.583.016-.886-2-.037zm.049-2.623l2 .037-2-.037zm.249-3.111l-1.85-.76 1.85.76zm4.905-2.576l-.605 1.906.605-1.906zm2.846 3.158l-1.938.497 1.938-.497zm.632 5.485l.841-1.814-.84 1.814zm1.16-.43l-1.23-1.576 1.23 1.577zm3.85-11.092l-1.952.438 1.952-.438zm.215-3.29l1.95.444-1.95-.444zm.463-4.475l-2-.006 2 .006zm-.184-2.211l-1.936.502 1.936-.502zm-2.761-3.127l.422-1.955-.422 1.955zM3.208.339c-.786.364-1.353 1.009-1.713 1.574a5.184 5.184 0 00-.774 2.09l3.967.51a.916.916 0 01.054-.2c.033-.087.077-.173.125-.248a.854.854 0 01.114-.147c.026-.026-.001.01-.097.053L3.208.34zM.721 4.004l-.002.011a2.568 2.568 0 01-.021.132l-.056.299c-.045.23-.101.497-.156.74l3.904.875c.118-.526.256-1.22.298-1.547l-3.967-.51zM.486 5.186C.084 6.98-.003 8.002 0 10.356l4-.005c-.003-2.158.07-2.868.39-4.29L.486 5.185zM0 10.356c.001 1.154.024 2.034.137 2.777.125.825.354 1.438.677 2.085l3.579-1.787c-.18-.36-.252-.572-.302-.9-.062-.409-.09-1.01-.09-2.18l-4 .005zm.814 4.862c.853 1.707 2.482 2.825 4.35 3.117l.62-3.951c-.68-.107-1.156-.482-1.391-.953L.814 15.218zm4.35 3.117c1.164.183 2.754-.022 3.94-.403l-1.222-3.808c-.768.246-1.711.32-2.098.26l-.62 3.951zm3.94-.403l.687-.22-1.223-3.808-.686.22 1.223 3.808zm2.032-1.711l.096-.451-3.914-.826-.095.45 3.913.827zm.096-.452c.097-.46.209-.976.19-1.544-.017-.55-.155-1.07-.281-1.555l-3.872 1.007c.071.271.11.43.135.549a1.543 1.543 0 01.02.122v.005c0 .006.008.048-.106.591l3.914.825zm-.091-3.1a23.172 23.172 0 01-.337-1.48l-3.945.659a26.2 26.2 0 00.41 1.829l3.871-1.007zm-.337-1.48l-.101-.608-3.946.658.102.608 3.945-.657zM8.982 8.927l-.476-.06-.504 3.968.476.06.504-3.968zm-.475-.06c-2.133-.271-4.044.857-4.997 2.715l3.56 1.826c.248-.485.605-.615.932-.573l.505-3.968zM3.51 11.58c-.037.073-.048.082-.025.051a1.28 1.28 0 01.356-.31 1.777 1.777 0 011.367-.205c.565.141.873.496.987.655l-3.248 2.335c.208.29.617.722 1.29.89a2.217 2.217 0 001.711-.276c.624-.387.964-1.008 1.121-1.314L3.51 11.581zm2.685.191a1.514 1.514 0 01.265.874 1.035 1.035 0 01-.024.217s.008-.033.04-.126l-3.779-1.311c-.083.24-.228.67-.237 1.147a2.507 2.507 0 00.487 1.534l3.248-2.335zm.281.965c.177-.51.245-1.225.245-1.69h-4a2.65 2.65 0 01-.042.436c-.007.034-.004.007.018-.057l3.78 1.311zm.245-1.69c0-.937-.192-1.539-.657-2.891L2.282 9.458c.241.701.347 1.035.4 1.25.034.14.039.196.039.34l4-.002zm-.657-2.891c-.27-.781-.364-1.079-.41-1.277-.025-.114-.036-.182-.04-.554l-4 .051c.005.44.018.852.14 1.39.104.455.283.98.528 1.692l3.782-1.302zm-.45-1.83a9.62 9.62 0 01.019-.715c0-.013 0-.009-.002.008 0 .006-.01.077-.038.175l-3.854-1.07a2.91 2.91 0 00-.087.496c-.011.115-.02.239-.025.359-.012.24-.017.523-.013.798l4-.05zm-.02-.533c-.144.517-.476.74-.594.808-.13.073-.442.21-.892.11l.872-3.904c-.787-.175-1.494.053-1.956.316-.452.256-1.054.766-1.285 1.6l3.854 1.07zm-1.486.918c1.013.227 1.914-.158 2.46-.53.574-.39 1.168-1.035 1.414-1.907L4.132 3.19a.72.72 0 01.12-.25.297.297 0 01.069-.067.49.49 0 01.15-.063 1.07 1.07 0 01.51-.002l-.873 3.904zm3.874-2.437c.432-1.53-.39-2.808-1.217-3.456C5.928.163 4.56-.285 3.208.34l1.676 3.63a.725.725 0 01-.425.062.355.355 0 01-.161-.067.471.471 0 01-.137-.194.9.9 0 01-.029-.584l3.85 1.086zM33.34.168c-.67.196-1.2.66-1.466.924-.17.168-.345.365-.497.582-.13.184-.346.522-.454.959l3.884.958c-.038.155-.089.26-.112.304a.736.736 0 01-.05.085c-.007.01.006-.009.04-.042a.742.742 0 01.04-.038l.018-.014s-.018.013-.053.031a1.222 1.222 0 01-.225.09L33.34.166zm-2.417 2.465c-.323 1.311.312 2.527 1.072 3.225L34.7 2.912a.363.363 0 01.092.146.91.91 0 01.014.533l-3.884-.958zm1.072 3.225c.148.136.501.47 1.015.668.507.195.99.187 1.191.187v-4c-.1 0-.102-.002-.07.001.048.005.167.022.315.079.149.057.25.125.296.159.03.022.03.025-.041-.04l-2.706 2.946zm2.206.855c.08 0 .118.003.126.004.01.001-.037-.002-.117-.027a1.284 1.284 0 01-.354-.175 1.417 1.417 0 01-.358-.36c-.167-.246-.175-.432-.164-.348.01.075.02.237.017.565l4 .048a8.01 8.01 0 00-.053-1.15c-.05-.364-.162-.882-.497-1.372-.8-1.172-2.113-1.185-2.6-1.185v4zm-.85-.34a1.925 1.925 0 01-.031.394c-.023.11-.07.276-.2.65l3.774 1.325c.32-.914.446-1.441.457-2.322l-4-.047zm-.231 1.044c-.767 2.183-1.144 3.542-.685 5.136l3.844-1.108c-.065-.222-.181-.436.615-2.703L33.12 7.417zm-.685 5.136c.04.141-.032.007.033-.292a1.64 1.64 0 01.46-.813 1.758 1.758 0 011.223-.502v4c.554 0 1.127-.201 1.575-.639.409-.4.58-.866.651-1.198.137-.63.024-1.239-.099-1.664l-3.843 1.108zm1.716-1.607c.146 0 .37.02.62.121.253.1.436.242.554.357.106.104.16.188.166.197.008.012-.003-.003-.037-.068l-3.533 1.876c.093.176.289.543.604.852.462.453 1.04.665 1.626.665v-4zm1.303.607c-1.048-1.974-3.164-3.174-5.457-2.66l.875 3.903c.296-.066.725.023 1.049.633l3.533-1.876zm-5.457-2.66c-.046.01-.347.07-.657.235a2.22 2.22 0 00-.919.92 2.782 2.782 0 00-.254.71 9.265 9.265 0 00-.088.472l3.944.663c.028-.164.04-.23.047-.261.012-.051-.014.102-.121.302a1.787 1.787 0 01-.729.725c-.23.122-.431.156-.348.137l-.875-3.903zM28.08 11.23c-.05.298-.193.973-.313 1.472l3.887.942a30.84 30.84 0 00.37-1.75l-3.944-.664zm-.313 1.472l-.232.955 3.888.943.231-.956-3.887-.942zm-.255 1.788l.154.837 3.934-.723-.154-.837-3.934.723zm.154.837l.154.837 3.934-.724-.154-.836-3.934.723zm1.497 2.376l.55.18 1.247-3.8-.55-.181-1.247 3.8zm.55.18c1.425.468 3.036.686 4.377.399l-.836-3.912c-.408.087-1.259.052-2.293-.287l-1.247 3.8zm4.377.399c1.132-.242 2.164-.731 2.996-1.574.82-.832 1.315-1.874 1.606-3.008l-3.873-.997c-.17.659-.389 1-.58 1.195-.18.183-.46.36-.985.472l.836 3.912zm4.602-4.582c.262-1.016.332-2.461.303-3.814-.03-1.394-.172-2.922-.434-4.174l-3.915.822c.198.944.323 2.213.35 3.438.027 1.268-.057 2.264-.177 2.731l3.873.997zm-.131-7.988a36.074 36.074 0 01-.296-1.564l-3.957.585c.057.385.21 1.189.338 1.8l3.915-.82zm-.296-1.564c-.208-1.407-.94-3.007-2.394-3.76l-1.842 3.55c-.083-.043-.037-.05.056.109.088.15.179.383.223.686l3.957-.585zM35.87.387a3.219 3.219 0 00-1.27-.38 3.527 3.527 0 00-1.26.161l1.125 3.838c.146-.042.044.005-.151-.009a1.046 1.046 0 01-.25-.048c-.053-.017-.07-.03-.036-.011L35.87.387zM24.533.282c-1.198.141-2.803.567-3.983 1.046l1.501 3.707c.883-.357 2.14-.685 2.95-.78L24.533.281zM20.55 1.328c-.277.112-.54.225-.747.321a5.813 5.813 0 00-.316.158 2.58 2.58 0 00-.242.15 2.028 2.028 0 00-.574.61 2.006 2.006 0 00-.293 1.103l3.998-.117a1.994 1.994 0 01-.83 1.675 1.622 1.622 0 01-.097.064l-.037.021c-.01.006.011-.006.08-.038.129-.06.327-.146.56-.24L20.55 1.328zm-2.172 2.345a2.025 2.025 0 00.487 1.257c.113.133.222.228.277.274.118.1.239.183.32.237.178.118.39.242.59.354.379.21.911.483 1.324.633l1.364-3.76a3.62 3.62 0 01-.285-.129 9.796 9.796 0 01-.457-.239 5.42 5.42 0 01-.323-.192c-.036-.023-.01-.01.042.035.021.018.104.088.2.2a1.974 1.974 0 01.46 1.206l-3.999.124zm2.998 2.755c.504.182 1.266.316 1.798.357l.308-3.988a4.488 4.488 0 01-.678-.113c-.062-.015-.08-.022-.064-.017l-1.364 3.76zm1.797.357c.2.015.297.024.357.03.095.012-.058.005-.268-.078a1.863 1.863 0 01-.986-.93 1.747 1.747 0 01-.136-.416c-.011-.06-.015-.103-.011-.067l3.975-.448c-.003-.025-.014-.123-.034-.23a2.155 2.155 0 00-1.349-1.633c-.31-.122-.608-.156-.727-.17a13.003 13.003 0 00-.512-.046l-.309 3.988zm-1.044-1.46a1.683 1.683 0 01.257-1.082c.251-.397.587-.58.777-.654.095-.037.17-.054.212-.063a.712.712 0 01.07-.01h-.04a2.03 2.03 0 01-.128-.008l-.362 3.984c.417.038 1.08.067 1.709-.18.358-.14.815-.414 1.14-.927.334-.527.388-1.08.34-1.51l-3.975.45zm1.148-1.817c-.285-.025-.805-.17-2.047-.888l-2.003 3.463c1.34.775 2.492 1.3 3.688 1.409l.362-3.984zM21.23 2.62c-1.402-.81-2-1.074-3.63-1.609l-1.248 3.8c1.388.456 1.731.61 2.875 1.272L21.23 2.62zM17.6 1.011C15.868.442 14.822.257 13.142.257v4c1.202 0 1.826.1 3.21.555l1.248-3.8zM13.142.257c-.52 0-1.003-.001-1.413.06-.545.08-.922.258-1.213.399l1.739 3.602c.125-.061.147-.068.141-.066a.503.503 0 01-.083.022 3.61 3.61 0 01.196-.011c.146-.005.34-.006.633-.006v-4zm-2.626.458c-1.82.879-2.718 2.61-3.119 4.57l3.92.802c.27-1.324.689-1.649.938-1.77L10.515.716zm-3.119 4.57c-.406 1.989-.146 5.295.48 7.872l3.887-.943c-.555-2.287-.69-4.944-.448-6.127l-3.919-.801zm.48 7.873c.165.681.192.88.194 1.035.003.16-.02.373-.165 1.083l3.919.802c.139-.679.256-1.292.246-1.945-.01-.658-.147-1.26-.307-1.919l-3.888.944zm.029 2.118c-.837 4.09.276 8.198 3.065 11.305l2.977-2.671c-1.942-2.164-2.706-4.983-2.123-7.832l-3.92-.802zM10.97 26.58c.425.473.996.987 1.485 1.378.246.198.508.393.752.55.118.077.269.168.432.247.073.035.483.244 1.01.244v-4c.281 0 .487.063.557.086.09.029.15.057.172.068.042.02.045.025-.002-.005a5.616 5.616 0 01-.421-.312 9.34 9.34 0 01-1.008-.928L10.97 26.58zM14.651 29c.563 0 1.002-.23 1.12-.292.208-.11.422-.252.615-.421l-2.632-3.012a.797.797 0 01.163-.112c.03-.015.09-.045.177-.075a1.808 1.808 0 01.557-.088v4zm1.736-.713l.25-.22-2.632-3.012-.25.22 2.632 3.012zm.934-1.689l.048-2.623-3.999-.074-.048 2.623 3.999.074zm.048-2.623c.024-1.254.039-1.842.066-2.18.012-.153.022-.19.02-.178-.006.025-.014.036.014-.031l-3.7-1.518c-.367.892-.357 1.584-.399 3.833l4 .074zm.1-2.39c.514-1.253 1.682-1.671 2.45-1.428l1.21-3.812c-3.065-.973-6.187.861-7.36 3.723l3.7 1.518zm2.45-1.428c.628.2 1.282.847 1.513 1.749l3.875-.993c-.537-2.095-2.1-3.909-4.178-4.568l-1.21 3.813zm1.513 1.749c.003.013.03.12.048.489.018.364.026.894.026 1.718h4c0-1.561-.018-2.493-.199-3.2l-3.875.993zm.075 2.207c0 1.091 0 1.955.106 2.547.061.344.192.829.548 1.28a2.67 2.67 0 001 .769l1.682-3.63c-.03-.013.23.095.459.385.22.279.255.525.25.495a4.323 4.323 0 01-.033-.505c-.01-.32-.012-.749-.012-1.341h-4zm1.654 4.596a2.53 2.53 0 001.992.09c.506-.188.95-.532 1.238-.757l-2.46-3.154a4.761 4.761 0 01-.279.207c-.052.034-.004-.005.112-.048a1.471 1.471 0 011.08.032l-1.683 3.63zm3.23-.667c3.97-3.095 5.692-8.13 4.572-13.11l-3.903.878c.794 3.529-.427 6.971-3.128 9.077l2.46 3.155zm4.572-13.11c-.169-.747-.146-.676-.144-.707.003-.049.017-.162.078-.455.061-.292.149-.669.28-1.244l-3.9-.89c-.227.997-.41 1.734-.45 2.328-.048.745.12 1.346.233 1.846l3.903-.877zm.214-2.406c.328-1.44.508-3.22.513-4.913l-4-.012c-.004 1.456-.162 2.935-.413 4.036l3.9.89zm.513-4.913c.004-1.27-.024-1.858-.248-2.72L27.57 5.898c.056.214.08.345.095.534.02.23.027.554.025 1.169l4 .012zm-.248-2.72c-.287-1.106-.73-2.138-1.461-2.967-.765-.866-1.73-1.378-2.814-1.612l-.844 3.91c.348.075.523.195.66.35.169.192.391.569.587 1.324l3.872-1.005zM27.166.313c-.853-.183-1.59-.153-2.632-.03L25 4.254c.896-.105 1.113-.075 1.322-.03l.843-3.91z" fill="#373ECF" mask="url(#a)"/></svg>