<svg width="30" height="30" fill="none" xmlns="http://www.w3.org/2000/svg"><path d="M27.393 17.61c-1.047 3.844-2.48 7.634-3.914 10.085C22.945 28.703 22.156 29 21.344 29c-1.31 0-2.135-.95-2.49-2.491-.712-2.789-.692-8.365-3.854-8.365-3.161 0-3.142 5.576-3.854 8.365C10.79 28.05 9.966 29 8.655 29c-.812 0-1.601-.297-2.135-1.305-1.418-2.425-2.935-6.281-3.98-10.085M22.295 1C18.756 1 17.254 3.729 15 3.729 12.747 3.729 11.244 1 7.706 1c-3.86 0-6.75 3.147-6.705 7.01.01.959.103 2.04.262 3.195a2.063 2.063 0 002.046 1.778h6.434c.49 0 .93-.302 1.107-.76l.601-1.564c.176-.458.616-.76 1.107-.76h4.894c.49 0 .93.302 1.107.76l.601 1.563c.176.459.616.761 1.107.761h6.424c1.03 0 1.906-.758 2.046-1.778.16-1.155.251-2.237.263-3.196C29.044 4.147 26.155 1 22.294 1z" stroke="#373ECF" stroke-width="2" stroke-miterlimit="10" stroke-linecap="round" stroke-linejoin="round"/></svg>