<svg width="36" height="36" fill="none" xmlns="http://www.w3.org/2000/svg"><path d="M12.314 17.981l3.778 3.778 7.557-7.556M4.757 8.913a4.156 4.156 0 014.156-4.156h1.89c1.097 0 2.15-.435 2.927-1.209l1.323-1.322a4.158 4.158 0 015.894 0l1.323 1.322a4.154 4.154 0 002.928 1.209h1.889a4.156 4.156 0 014.156 4.156v1.89c0 1.095.434 2.15 1.209 2.927l1.322 1.323a4.157 4.157 0 010 5.894l-1.322 1.323a4.156 4.156 0 00-1.209 2.928v1.889a4.156 4.156 0 01-4.156 4.156h-1.89c-1.097 0-2.15.435-2.927 1.209l-1.323 1.322a4.157 4.157 0 01-5.894 0l-1.323-1.322a4.156 4.156 0 00-2.928-1.209H8.913a4.156 4.156 0 01-4.156-4.156v-1.89c0-1.097-.435-2.15-1.209-2.927l-1.322-1.323a4.158 4.158 0 010-5.894l1.322-1.323a4.156 4.156 0 001.209-2.928V8.913z" stroke="#444AD2" stroke-width="2" stroke-linecap="round" stroke-linejoin="round"/></svg>