<svg width="64" height="64" fill="none" xmlns="http://www.w3.org/2000/svg"><circle cx="32" cy="32" r="32" fill="url(#paint0_radial_190_89)"/><path d="M43.811 27.066c-.058-1.275-.26-2.145-.556-2.906a5.865 5.865 0 00-1.381-2.12 5.867 5.867 0 00-2.12-1.38c-.761-.296-1.631-.498-2.905-.556-1.277-.059-1.684-.073-4.935-.073-3.25 0-3.658.014-4.934.072-1.274.058-2.144.26-2.906.557-.798.3-1.522.771-2.12 1.38a5.867 5.867 0 00-1.38 2.12c-.296.761-.498 1.631-.556 2.905-.059 1.277-.073 1.684-.073 4.935 0 3.25.014 3.658.073 4.935.058 1.274.26 2.144.556 2.905.3.799.771 1.522 1.38 2.12a5.865 5.865 0 002.12 1.38c.762.296 1.632.499 2.906.557 1.276.058 1.684.072 4.934.072s3.659-.014 4.935-.072c1.274-.058 2.144-.26 2.905-.556a6.119 6.119 0 003.5-3.5c.297-.762.499-1.632.557-2.906.058-1.277.072-1.684.072-4.935 0-3.25-.014-3.658-.072-4.934zm-2.154 9.77c-.054 1.168-.249 1.802-.412 2.223a3.963 3.963 0 01-2.272 2.272c-.422.164-1.055.359-2.222.412-1.262.057-1.64.07-4.837.07-3.196 0-3.575-.013-4.836-.07-1.167-.053-1.801-.248-2.223-.412a3.709 3.709 0 01-1.376-.896 3.707 3.707 0 01-.895-1.376c-.164-.421-.36-1.055-.412-2.222-.058-1.262-.07-1.64-.07-4.837 0-3.196.012-3.574.07-4.836.053-1.167.248-1.801.412-2.223.192-.52.498-.99.895-1.376a3.707 3.707 0 011.376-.895c.422-.164 1.056-.36 2.223-.413 1.262-.057 1.64-.07 4.836-.07 3.196 0 3.574.013 4.837.07 1.167.054 1.8.249 2.222.413.52.192.99.498 1.376.895.398.386.704.856.895 1.376.164.422.36 1.056.413 2.223.057 1.262.07 1.64.07 4.836 0 3.196-.013 3.575-.07 4.837z" fill="#fff"/><path d="M31.914 25.854a6.146 6.146 0 100 12.292 6.146 6.146 0 000-12.292zm0 10.136a3.99 3.99 0 110-7.98 3.99 3.99 0 010 7.98zm7.826-10.379a1.436 1.436 0 11-2.873 0 1.436 1.436 0 012.872 0z" fill="#fff"/><defs><radialGradient id="paint0_radial_190_89" cx="0" cy="0" r="1" gradientUnits="userSpaceOnUse" gradientTransform="matrix(-30.3745 56.07584 -137.97489 -74.73662 46.188 3.896)"><stop stop-color="#508AF5"/><stop offset=".34" stop-color="#F636DC"/><stop offset=".676" stop-color="#F72558"/><stop offset="1" stop-color="#F5E117"/></radialGradient></defs></svg>