<svg width="274" height="50" fill="none" xmlns="http://www.w3.org/2000/svg"><path d="M7.462.06c3.108 0 5.431 1.539 6.97 4.617.378.814.566 1.762.566 2.844v3.56c0 .08-.084.159-.253.238h-4.78c-.08 0-.185-.104-.314-.312V7.432c0-1.062-.57-1.792-1.712-2.19h-.805c-1.3.299-1.95.949-1.95 1.952-.05 0-.075.188-.075.566v15.892c0 1.072.402 1.827 1.206 2.264.278.159.63.238 1.058.238h.253c1.35-.278 2.025-.953 2.025-2.026V19.75c0-.08.105-.184.313-.313h4.707c.079 0 .188.104.327.313v4.304c0 3.088-1.623 5.411-4.87 6.97-.933.268-1.768.402-2.502.402h-.164c-2.79 0-4.98-1.325-6.568-3.976C.298 26.536 0 25.052 0 22.996V8.564c0-3.058.84-5.218 2.517-6.479C3.957.735 5.605.06 7.462.06zm-2.19 1.46c-.377-.08-.565-.19-.565-.329v-.074L4.78.953c-.387.219-.63.328-.73.328v.074c1.609.447 3.987 1.743 7.134 3.888.715.566 1.877 1.623 3.486 3.172v-.328l-.164-.253.164-.238v-.328c-.12 0-.338.085-.656.253-.427-.436-.64-.734-.64-.893h.074c.487-.268.84-.402 1.058-.402v-.328l-1.624.477c-.218-.09-.327-.278-.327-.566 0-.199.54-.492 1.623-.88a.677.677 0 01-.074-.252c-.944.327-1.619.625-2.026.893h-.09c-.079 0-.183-.109-.312-.327.486-.497 1.186-.874 2.1-1.132-.08-.219-.159-.328-.238-.328a7.006 7.006 0 00-2.19 1.296 1.031 1.031 0 01-.566-.477c1.182-.814 1.991-1.221 2.428-1.221v-.075c0-.109-.08-.163-.238-.163-1.41.556-2.274.958-2.592 1.206h-.09l-.729-.477c.02-.248.75-.625 2.19-1.132.436-.218.655-.357.655-.417l-.254-.163c-1.836.923-2.864 1.385-3.083 1.385h-.074c-.784-.537-1.241-.805-1.37-.805v-.089c.05-.149.427-.362 1.132-.64.744-.656 1.201-.983 1.37-.983V.864A.675.675 0 019.89.789c-1.35 1.023-2.3 1.534-2.845 1.534H6.97V2.25C7.616 1.415 8.236.874 8.832.625V.551L8.43.46c0 .06-.65.601-1.951 1.624-.487-.139-.73-.273-.73-.402v-.09c0-.079.407-.456 1.221-1.131h-.163c-.199 0-.686.352-1.46 1.057h-.074zM2.19 2.814l-.089.164v.074c.586 0 2.13.626 4.632 1.877h.402c-1.26-.874-2.909-1.58-4.945-2.115zm-.73.968l-.074.164v.09c.417 0 1.872.486 4.364 1.459l.164-.253c-2.472-.973-3.957-1.46-4.453-1.46zM.805 5.005c0 .05-.025.129-.074.238 1.569.328 2.998.735 4.29 1.221v-.089l.089-.149A24.268 24.268 0 00.804 5.005zm-.312 1.22c-.06.378-.09.592-.09.641.268.248.402.467.402.656l-.238.163-.164-.089v.73c.377-.328.84-.492 1.385-.492.189 0 .432.03.73.09.209-.04.452-.338.73-.894.198-.159.387-.238.566-.238.536.109.804.377.804.804v.164c0 .179-.159.476-.476.893.377.825.566 1.281.566 1.37v.254c0 .08-.085.159-.254.238H4.29c-.04 0-.198-.298-.476-.893-.626-.487-1.276-.73-1.951-.73h-.239a1.52 1.52 0 00-1.22.566v.893l.49-.402h.165l1.131.64v.09l-.327.238H1.46c-.179 0-.532-.08-1.058-.238v.328c.546.05.82.129.82.238v.164c-.14.268-.249.402-.328.402H.402v.328c.447 0 .745.188.894.566 0 .05.08.104.238.163.487-.218.84-.436 1.058-.655h.163c.328.248.492.6.492 1.058-.923-.11-1.544-.164-1.862-.164H.402v.238h.656c.784 0 1.46.11 2.025.328v.163l-.09.403c-.754-.11-1.265-.164-1.533-.164-.675.06-1.028.09-1.058.09v.238c.675-.05 1.083-.075 1.222-.075.347.11.59.164.73.164h.163v.164c0 .208-.407.367-1.221.476a19.768 19.768 0 00-.894-.163v.327l.894.164c1.122 0 1.852-.566 2.19-1.698 0-.377.024-.566.074-.566-.17-.973-.571-1.46-1.207-1.46 0 .199-.188.442-.566.73h-.163c-.08 0-.19-.188-.328-.566.258-.546.745-.819 1.46-.819.536 0 .943.164 1.22.492h.314v-.402l-.075-.164c.12-.11.308-.164.566-.164V9.458l-.164-.566c.11 0 .164-.055.164-.164V7.03c-.139-.268-.407-.457-.804-.566l-.82.238c-.575-.218-1.464-.377-2.665-.476zm.64.403c.397 0 .913.079 1.549.238v.09c0 .377-.139.565-.417.565-.864 0-1.296-.188-1.296-.566-.05 0-.074-.084-.074-.253a.675.675 0 01.238-.074zm8.832.402v.164l2.68 2.264c.11.02.165.074.165.164v.09c0 .049-.11.153-.328.312-.11 0-.487-.268-1.132-.804l-1.222-.968h-.074v.238c1.33 1.122 2.006 1.718 2.026 1.787 0 .06-.134.194-.402.402h-.164c0-.099-.432-.422-1.296-.968 0-.109-.055-.164-.164-.164v.313c.675.665 1.107 1.048 1.296 1.147h.402c1.569-1.192 2.542-1.787 2.92-1.787v-.328h-.075c-.805.377-1.266.566-1.385.566 0-.07-.189-.179-.566-.328-1.073-.963-1.966-1.663-2.681-2.1zM1.46 9.22h.074c1.3 0 2.06.431 2.279 1.295v.164c0 .11-.055.164-.164.164h-.09c-.307 0-1.171-.432-2.59-1.296.059-.218.223-.327.49-.327zm8.594 1.534v.253h.327c0-.09-.109-.174-.327-.253zm-8.922 5.674H.73c-.05 0-.075.03-.075.09l-.163-.09h-.09v.328h.656c1.092 0 2.12-.512 3.083-1.534l.074-.417v-.075h-.074c-.964 1.132-1.966 1.698-3.009 1.698zm1.221 1.788c-1.161-.328-1.812-.492-1.95-.492v.417H.49c.795 0 2.2.512 4.215 1.534h.075v-.402c-.228 0-.472-.273-.73-.82 0-.486.164-.808.492-.967h.163v.968h.075V16.83c-.725.745-1.48 1.152-2.264 1.222 0 .109-.055.164-.164.164zm1.296-.075l.075.149v.328c0 .109-.055.163-.164.163-.308-.218-.497-.327-.566-.327 0-.12.218-.224.655-.313zm6.405 1.698v.894c.566 2.283 1.454 3.877 2.666 4.78.288.348.75.696 1.385 1.043.11 0 .164-.05.164-.149v-.163c-.715-.219-1.579-1.003-2.592-2.354a8.695 8.695 0 01-1.46-3.976v-.075h-.163zm1.131 0c.537 2.522 1.291 4.17 2.264 4.945l1.058.894v-.328c-1.49-1.281-2.353-2.577-2.592-3.887-.327-.527-.491-1.068-.491-1.624h-.239zm1.788 0v.477c.347 1.886.913 3.157 1.698 3.813v-.164c0-.09-.323-.735-.968-1.936-.288-1.192-.452-1.788-.492-1.788l.075-.164v-.238h-.313zm1.46 0c.109.536.163.859.163.968h.075v-.968h-.239zm-14.03.73v.328h.089c1.28 0 2.685.536 4.215 1.608h.074v-.238c-1.569-1.132-3.028-1.698-4.379-1.698zm13.94 1.37v.164c.07.407.179.626.328.655v-.655c0-.05-.025-.074-.075-.074l.075-.164v-.492c-.219.08-.328.268-.328.566zm-13.94 0v.328h.089c1.032 0 2.462.511 4.289 1.534v-.313c-.477-.447-1.663-.933-3.56-1.46a4.046 4.046 0 00-.819-.089zm0 1.549v.075c.039.099.878.397 2.516.893.715.367 1.822 1.067 3.322 2.1.437.06 1.896 1.33 4.379 3.813h.074a.676.676 0 01.253-.074v-.09c-.09 0-.794-.675-2.115-2.025-1.529-1.311-3.445-2.607-5.749-3.888-1.38-.536-2.274-.804-2.68-.804zm9.65 0a6.3 6.3 0 01-.089.968 35.232 35.232 0 003.65 3.158c.109 0 .163-.055.163-.164v-.164c-.486-.169-1.375-.894-2.666-2.175-.576-.595-.903-1.137-.983-1.623h-.074zm-9.65 1.296v.164c.059.148.843.496 2.352 1.042a32.656 32.656 0 015.437 3.902l.968 1.043c.09-.05.223-.075.402-.075v-.089c-.12 0-1.147-.918-3.083-2.755-2.969-1.887-4.617-2.83-4.945-2.83-.536-.15-.913-.283-1.132-.402zM9.07 25.84l-.15.238c1.58 1.53 2.766 2.557 3.56 3.084l.164-.254c-1.002-.675-2.194-1.698-3.574-3.068zm-8.341.313v.164c.268.218 1.023.57 2.264 1.057 1.41.794 3.003 2.036 4.78 3.724h.328v-.075c-1.092-1.092-2.656-2.338-4.691-3.738C1.842 26.53.948 26.154.73 26.154zm7.134.328c1.38 1.39 2.622 2.497 3.724 3.32a.676.676 0 01.253-.073v-.164c-.556-.288-1.772-1.34-3.649-3.158h-.09a.674.674 0 01-.238.075zm-6.479 1.131c0 .229.725.715 2.175 1.46l2.606 1.951h.238c-1.797-1.648-3.47-2.785-5.019-3.41zM25.907 0h.566c2.75 0 4.915 1.46 6.494 4.379.437.884.655 1.832.655 2.845v16.815c0 2.979-1.544 5.253-4.632 6.821-1.072.378-2.045.567-2.919.567-3.118 0-5.476-1.679-7.075-5.035-.268-.903-.402-2.204-.402-3.902V8.847c0-2.949.541-4.925 1.624-5.928C21.737.973 23.633 0 25.908 0zm-.089.328c2.085 1.797 3.574 3.39 4.468 4.78.487.845.73 1.336.73 1.475 0 .08-.11.214-.328.403-.238 0-.506-.378-.804-1.132-1.043-1.599-2.125-2.93-3.247-3.992-.1-.149-.67-.635-1.713-1.46h-.238c2.562 2.314 4.076 3.992 4.543 5.035.655.883.983 1.563.983 2.04l-.164.075h-.655c-.964-1.301-1.56-2.25-1.788-2.845-.854-1.212-2.18-2.537-3.976-3.977a.595.595 0 01-.239.09v.148c.427.18 1.212.83 2.354 1.952 1.916 2.224 2.889 3.579 2.919 4.066.109 0 .163.134.163.402v.089c0 .11-.079.164-.238.164v.238h1.043c.645 0 1.866.407 3.664 1.222v-.254c-.17 0-.303-.109-.402-.327.168-.1.302-.15.402-.15v-.327l-.894.402a9.468 9.468 0 01-1.877-.73v-.074c1.063-.943 1.932-1.46 2.607-1.55v-.163l-1.623.655h-.09v-.089c.298-.427.76-.968 1.385-1.623v-.075c-.109-.179-.164-.318-.164-.417h-.074c-.04.487-.204.73-.491.73-.2-.02-.74-.75-1.624-2.19C29.1 1.351 28.206.541 27.77.492c2.233 2.144 3.559 3.823 3.976 5.034V5.6a1.1 1.1 0 01-.566.492c-.795-1.46-2.15-3.113-4.066-4.96a12.58 12.58 0 00-.968-.804h-.328zm-4.304 1.697c1.112.725 2.17 1.753 3.172 3.084a.675.675 0 01.238-.075c-.724-1.033-1.777-2.09-3.157-3.172h-.09c-.109.02-.163.074-.163.163zm-.64.566l-.09.164v.09c.357 0 1.44.948 3.247 2.844l.09-.164c-1.828-1.956-2.91-2.934-3.248-2.934zm10.96.581v.075l.165.09v-.09l-.164-.075zm.165.24v.074l.164.089v-.09l-.164-.074zm-11.856.073l-.089.164c.774.387 1.911 1.365 3.41 2.934l.09-.164c-1.221-1.46-2.09-2.244-2.606-2.353a2.2 2.2 0 00-.805-.581zm12.02.164c.08.218.159.328.238.328-.08-.219-.159-.328-.238-.328zM19.488 4.707a17.61 17.61 0 013.813 3.172h.09v-.164c-1.212-1.38-2.27-2.328-3.173-2.844-.11 0-.298-.11-.566-.328-.11.02-.164.074-.164.164zm4.215 2.517v16.562c0 1.182.625 1.941 1.877 2.279h.73c1.3-.338 1.95-.988 1.95-1.951V7.388c0-1.37-.784-2.13-2.353-2.28-.923 0-1.603.492-2.04 1.475-.11.199-.164.413-.164.64zm-4.543-1.46v.239c2.493 1.4 3.739 2.487 3.739 3.261-.219.269-.462.403-.73.403-.586-1.003-1.643-1.818-3.172-2.443v.164c1.012.357 1.99 1.142 2.934 2.353v.164c-.298.377-.596.566-.894.566h-.164c-.546-1.35-1.062-2.026-1.549-2.026 0-.109-.11-.164-.328-.164v.239c1.033.645 1.55 1.38 1.55 2.204l.163.074h.805c.297 0 .65.298 1.057.894.467-.11.74-.164.82-.164v-.238h-.656l-.804-.82c.635-.645 1.122-.997 1.46-1.057v-.402c-.11 0-.68-.566-1.714-1.698a19.78 19.78 0 00-2.517-1.549zm9.428 4.066v.239l.566-.075h.402c1.092 0 2.338.348 3.738 1.043v-.313c-1.46-.655-2.571-.983-3.336-.983h-.402l-.968.09zm-9.591.402v.164c0 .179.03.313.089.402l-.09.492v.164c.11 0 .164.024.164.074l.164-.075h.164c.377 0 .566.16.566.477-.705.258-1.057.64-1.057 1.147v.164l.253.328a.55.55 0 01-.09.312c.864 1.043 1.296 2.423 1.296 4.14v.984c0 .486-.08 1.107-.238 1.861h-.238v-.327c0-.308-.11-.63-.328-.968 0-.05.054-.512.164-1.385 0-1.57-.273-2.567-.82-2.994v.476c.328.576.492 1.36.492 2.354 0 .923-.164 1.385-.491 1.385v.328c.436 0 .655.322.655.968l-.164.566h.402c.08 0 .214.139.402.417 0 .665-.243 1.097-.73 1.295.547.626.82 1.246.82 1.862-.11.218-.164.382-.164.492 0 .407.596.814 1.787 1.22 0 .22.675.329 2.026.329h.09l1.459-.418v-.074c-.378 0-.566-.055-.566-.164-.377.219-.76.328-1.147.328l-.075-.164.403-.655c0-.11-.055-.164-.164-.164h-.075c0 .139-.243.466-.73.983-.178 0-.397-.08-.655-.238.15-.368.477-.884.983-1.55a.779.779 0 01-.09-.402c-.813 1.242-1.275 1.862-1.384 1.862h-.15c-.357-.139-.55-.273-.58-.402 1.181-1.857 1.862-3.564 2.04-5.123v-.239h-.089c-.705 2.542-1.38 4.14-2.026 4.796-.268.209-.431.313-.491.313l-.075-.15v-.088c0-.626.457-1.629 1.37-3.009.328-.765.626-2.17.894-4.215l.417-.09v-.804h-.089c0 .328-.134.492-.402.492-.377-.169-.566-.412-.566-.73 0-.665.352-1.236 1.057-1.713v-.655h-.089a.594.594 0 01-.238.09c-.328-.805-.492-1.4-.492-1.788h.09c.278 0 .491.189.64.566h.09v-.402c-.368-.487-.805-.73-1.311-.73h-.075c-.566 0-1.107.377-1.623 1.132 0 .12-.03.228-.09.328l.09.491-.164.075h-.238c-.07 0-.209-.134-.417-.402v-.254l.253-.313v-.163c-.328 0-.492-.085-.492-.253 0-.487.407-.755 1.222-.805v-.09c0-.337-.353-.714-1.058-1.131 0-.258-.164-.501-.491-.73zm9.59.969v.163h1.371c.735 0 1.847.298 3.336.894v-.164c-.993-.645-2.318-.968-3.976-.968-.298.05-.542.075-.73.075zm0 1.057v.253h.969c1.241 0 2.457.432 3.649 1.296h.09v-.164c-1.103-.924-2.428-1.385-3.977-1.385h-.73zm-6.746.417h.239c.436 1.012.655 1.876.655 2.591v.075c-.487.744-.73 1.206-.73 1.385-.149 0-.283-.675-.402-2.026-.06 0-.199-.407-.417-1.221h-.238v.09c.436 1.4.655 2.75.655 4.05 0 1.291-.273 2.726-.82 4.305h-.163l-.164-.566c.219-.894.328-1.465.328-1.713v-.804c0-1.41-.189-2.766-.566-4.066l.491-.402-.163-.492c.297-.804.73-1.206 1.295-1.206zm6.747 1.132v.239h.074c1.291 0 2.835.431 4.632 1.295v-.313c-1.777-.814-3.346-1.22-4.706-1.22zm0 1.623v.238h.566c1.231 0 2.611.437 4.14 1.31v-.327c-1.559-.814-3.127-1.221-4.706-1.221zm0 1.222v.327c.04 0 .198-.03.476-.09l.418.09c-.1.239-.264.427-.492.566h-.164l-.238-.164v.968h.164c.536-.913 1.29-1.37 2.264-1.37.893 0 1.519.541 1.876 1.624v.149c0 .516-.437.923-1.31 1.22 0 .468-.268 1.009-.805 1.624-.169.616-.253 1.102-.253 1.46 0 1.628.79 2.765 2.368 3.41v-.074c0-.05.025-.129.075-.238-.16 0-.239-.055-.239-.164.229-.179.388-.452.477-.819h-.075c0 .169-.297.358-.893.566-.268-.09-.402-.248-.402-.477.188-.03.456-.273.804-.73.437-.297.655-.49.655-.58v-.239c-.635.417-1.151.85-1.549 1.296-.109 0-.164.03-.164.09-.268-.11-.402-.328-.402-.656a12.548 12.548 0 012.115-1.534v-.328h-.09l-2.189 1.46c-.04-.437-.094-.655-.163-.655 0-.745.352-1.256 1.057-1.534l1.385-1.058v-.164l-.491.239c-.427-.229-.64-.497-.64-.805a.887.887 0 01.476-.163c.149 0 .367.134.655.402v-.239c0-.07-.134-.208-.402-.417.268-.635.402-1.012.402-1.132v-.238c-.804-1.082-1.534-1.623-2.19-1.623h-.252c-.278 0-.522.024-.73.074a4.57 4.57 0 00-.804-.074h-.73zm-6.657.64c.168.11.412.407.73.894v.491c0 1.41-.626 3.198-1.877 5.362-.09 0-.224-.189-.402-.566.794-1.589 1.226-2.89 1.295-3.902a10.68 10.68 0 00.254-2.279zm9.904 3.247h.164c.268.169.402.363.402.581l-.164.075h-.075c-.139 0-.248-.219-.327-.656zm-.327.58h.164c.109.01.163.06.163.15v.253h-.163c-.11 0-.164-.055-.164-.164v-.239zm-.239.567l.075.164-.164.074h-.075v-.074c.01-.11.065-.164.164-.164zM25.49 30.86a5.625 5.625 0 00-.893-.089h-.313v-.164c1.608-1.31 2.88-2.606 3.813-3.887v-.09h-.09c-2.393 2.602-3.827 3.903-4.304 3.903v.164c.834.218 1.46.327 1.877.327h.893c1.281 0 2.011-.243 2.19-.73 1.161-1.112 1.812-1.98 1.95-2.606h-.088c-.845 1.29-1.818 2.319-2.92 3.083h-.968v-.164c1.827-1.717 2.91-3.068 3.247-4.05h-.09l-2.025 2.59c-1.132 1.142-1.891 1.713-2.279 1.713zm-4.78-2.353v.075c.01.109.064.163.163.163.209-.327.313-.546.313-.655a.818.818 0 00-.477.417zm11.036-.328c0 .09-.134.279-.402.567h.074l.417-.492v-.075h-.09zm-9.175 1.952c.11.01.164.064.164.163a6.466 6.466 0 002.19-1.95h-.165c-.595.595-1.325 1.19-2.189 1.787zm-.968-.656l.238.164c.814-.675 1.222-1.052 1.222-1.132-.06 0-.09-.03-.09-.09-.566.358-1.022.71-1.37 1.058zm15.303-3.619h.893c-.466.506-.7.904-.7 1.192v.208h.105c.08 0 .412-.035.998-.104l.193.596c0 .397-.432.595-1.296.595h-.089v.805c0 .347.993.675 2.979.983h.491c.199.595.298.993.298 1.191h.596c-.328-.367-.492-.764-.492-1.191v-.298c.18-1.122.71-1.683 1.594-1.683v-.402c-.288-.626-.819-1.088-1.593-1.386-.16 0-.591-.133-1.296-.402v-.104h2.487c.13.596.263.894.402.894v-.894h.09v5.57h-5.66v-5.57zm1.787.208c2.125.547 3.187 1.073 3.187 1.58-.238.466-.605.7-1.102.7-1.46-.358-2.19-.755-2.19-1.192-.148-.199-.476-.333-.982-.402v-.09c.208-.397.57-.596 1.087-.596zm.194 1.981c.963.398 1.564.596 1.802.596v.298c0 .536-.204.804-.61.804h-.388c-.477 0-1.306-.233-2.487-.7v-.193c.893-.179 1.454-.447 1.683-.805zm3.485 2.086c-.13.466-.194.863-.194 1.191h.298v-1.191h-.104zm-5.362.893v.298h.983v-.09c-.169 0-.496-.069-.983-.208zM46.757.06h6.732c3.853 0 6.45 1.797 7.79 5.391a8.41 8.41 0 01.343 2.324v16.01c0 3.148-1.58 5.531-4.737 7.15a7.263 7.263 0 01-2.65.491h-7.552c-.09 0-.174-.084-.253-.253V.387c0-.08.109-.188.327-.327zm6.062.417V.55c3.277 1.55 5.57 4.096 6.881 7.641-.179.11-.76.219-1.742.328 0-.209-.467-.814-1.4-1.817.109.526.466 1.132 1.072 1.817a.677.677 0 00-.075.253h-.089c-.387-.04-.58-.204-.58-.492h-.09v.983c1.747-.496 2.83-.744 3.247-.744.139 0 .55.03 1.236.09v-.165a13.667 13.667 0 00-1.817-3.902c-.238-.556-1.346-1.772-3.322-3.649-.198-.199-.56-.338-1.087-.417V.55c.308 0 1.39 1.028 3.247 3.084 1.55 1.946 2.348 3.326 2.398 4.14v.417h-.164c-.387 0-.665-.417-.834-1.251l-2.145-3.232C55.55 1.793 54.08.715 53.147.477h-.328zm-6.062.328v.253c2.592.466 4.722 1.296 6.39 2.487 1.41 1.33 2.214 1.996 2.413 1.996v-.09c-1.112-1.062-1.668-1.643-1.668-1.742a.59.59 0 00.089-.253h-.09a.596.596 0 01-.238.089c-.844-.606-1.95-1.216-3.321-1.832-1.748-.606-2.94-.908-3.575-.908zm10.218.253v.074c.526.368 1.3 1.227 2.323 2.577.467.427 1.047 1.177 1.743 2.249v-.09c0-.556-1.028-1.94-3.083-4.155-.05-.179-.378-.397-.983-.655zm-10.218.744v.253c1.32.08 2.706.467 4.156 1.162C52.472 4.309 53.3 4.945 53.4 5.123h.417c-2.214-2.105-4.205-3.157-5.972-3.157 0-.1-.333-.154-.998-.164h-.09zm0 1.073v.343h.09c1.688.148 3.261.784 4.721 1.906h.58v-.09c-1.667-1.052-2.606-1.578-2.814-1.578-1.261-.387-2.12-.581-2.577-.581zm0 1.504v.327c.755.04 2.28.65 4.573 1.832v-.253c-1.073-.764-2.597-1.4-4.573-1.906zm4.9 1.072v20.747h2.741c1.162 0 1.852-.829 2.07-2.487V8.1c0-1.25-.496-2.08-1.49-2.486a3.77 3.77 0 00-.997-.164h-2.324zm-4.9.254v.253c.517 0 2.04.58 4.573 1.743v-.253c-.844-.586-2.368-1.167-4.573-1.743zm0 .997v.164c0 .1.695.318 2.086.655.992.447 1.821.894 2.487 1.34V8.61c-1.301-1.013-2.825-1.649-4.573-1.907zm0 1.654v.253l.998.253v.164c-.278.01-.61.228-.998.655v.253c.765-.496 1.515-.744 2.25-.744 1.101.258 1.876.645 2.323 1.161v-.327c0-.527-1.47-1.083-4.409-1.668h-.164zm.417 3.157v.328c.278.338.417.561.417.67-.139.388-.417.581-.834.581v.328h.164c.546 0 1.187.223 1.921.67.229 0 .393.248.492.745.854 0 1.49 1.574 1.906 4.721h.09V18.32c0-1.192-.502-2.468-1.505-3.828-.963-.794-1.678-1.206-2.144-1.236v-.253c.07-.417.178-.636.327-.656.785 0 1.698.83 2.74 2.488.329.536.492.893.492 1.072h.09V15c-.199-.02-.368-.269-.507-.745 0-.338.17-.67.507-.998v-.253h-.164c-.07 0-.293.278-.67.834-.874-1.043-1.813-1.678-2.815-1.906-.12 0-.179-.055-.179-.164v-.18c.298-.495.685-.744 1.162-.744h.089c.904 0 1.455.169 1.653.507.229.228.343.446.343.655v.342c0 .05-.03.075-.09.075.06.11.09.194.09.253h.417l.164.075v-.402c-.239 0-.407-.333-.507-.998-.456-.556-.844-.835-1.161-.835h-.417c-1.073 0-1.763.333-2.07.998zm9.622-.089v.507c.516 0 .904.273 1.162.819 0 .188-.328.412-.983.67-.12.179-.179.342-.179.491v.76a1.33 1.33 0 01.67-.179h.164l.253.179c-.208.328-.347.74-.417 1.236.387.735.581 1.207.581 1.415-.06.1-.09.209-.09.328 1.053.725 1.58 1.5 1.58 2.323l.163.09c.308-.497.561-.745.76-.745.228 0 .501-.278.819-.834v-.417h-.074c0 .179-.14.318-.417.417a6.716 6.716 0 00-1.669-.328l-.163-.253v-.253c.367-.11.59-.164.67-.164.635.01 1.186.12 1.653.328v-.239c0-.159-.496-.273-1.49-.342h-.163a3.55 3.55 0 00-1.251.253v-.58c.407-.388.963-.582 1.668-.582.278 0 .69.03 1.236.09v-.254c-.506-.07-.839-.124-.998-.163-.149 0-.839.139-2.07.417-.278-.338-.417-.532-.417-.581 0-.407.695-.685 2.085-.834h1.4v-.254l-.417-.074h-.909c-.397.11-.948.164-1.653.164 0-.318-.223-.626-.67-.924 0-.218.72-.382 2.16-.491l1.489.164v-.328h-.074l-2.83-.09-.075-.163c0-.497.388-.745 1.162-.745h.58c.279 0 .69.03 1.237.09v-.254c-.854-.109-1.38-.163-1.579-.163-.268 0-.764.079-1.49.238a1.081 1.081 0 01-.58-.492v-.253c.735-.327 1.4-.491 1.996-.491h.58c.467 0 .825.054 1.073.164v-.328l-1.072-.164c-.556 0-1.693.273-3.41.82zm-10.039 2.993v.254c1.33 0 2.354 1.047 3.068 3.142.06.377.09.685.09.924 0 1.21-.194 1.817-.581 1.817h-.417c0-.318.03-.76.09-1.326 0-1.718-.666-2.85-1.997-3.396h-.253v.164c.07.07.318.208.745.417 0 .298.253.516.76.655a6.77 6.77 0 01.402 2.25v.238c-.11 1.44-.522 2.16-1.237 2.16-.248-.11-.387-.22-.417-.328.715-.735 1.073-1.316 1.073-1.743v-.58c0-.845-.442-1.51-1.326-1.997v.328c.526 0 .889.64 1.087 1.921v.164c-.099.824-.461 1.236-1.087 1.236v.924c.546.546.988.819 1.326.819h.417c.347 0 .57-.14.67-.417-.218-.328-.328-.576-.328-.745v-.074c0-.09.11-.204.328-.343.993 0 1.49.417 1.49 1.251v.09c-.279.287-.418.56-.418.819h.164l.67-.656.254.164v-.417c-.278-.208-.417-.347-.417-.417l.417-.655v-1.087h-.09c-.07.774-.208 1.161-.417 1.161h-.074c-.268-.119-.517-.337-.745-.655.11-.556.164-1.058.164-1.505v-.416c0-1.202-.58-2.388-1.743-3.56-.585-.387-1.142-.58-1.668-.58zm10.04 3.233v.327l.58.834c0 .835-.194 1.252-.58 1.252v.327h.759c.337 0 .75.194 1.236.581h.253v-.253c-.635-.417-1.107-.665-1.415-.745v-1.236c0-.417-.278-.78-.834-1.087zm2.992.833c.278.17.472.253.581.253v.075c-.03.139-.223.278-.58.417l-.254-.328v-.253c0-.11.084-.164.253-.164zm-13.032.253v1.073h.09l.074-.581v-.09l-.074-.402h-.09zm1.668 2.816c.219.06.328.198.328.417l-.253.164h-.417c-.11 0-.164-.055-.164-.164.1-.278.268-.417.506-.417zm-1.668.67v.328c.338 0 .532.164.581.491-.208.17-.402.253-.58.253v.328h.089c.556-.159.943-.238 1.161-.238-.218-.775-.605-1.162-1.161-1.162h-.09zm10.04.744v.239h.089c.218-.16.382-.239.49-.239v.075c-.386 1.231-.908 2.229-1.563 2.994-.308.208-.78.789-1.415 1.742h-.164c-.377 0-.655-.109-.834-.328l.492-.834h-.239c-.446.497-.724.745-.834.745-.496-.198-.744-.447-.744-.745h-.507v.254c.963.883 1.961 1.325 2.994 1.325h.67c1.34 0 2.473-.58 3.396-1.742.387-.864.58-1.5.58-1.907 0-1.072-.416-1.792-1.25-2.16-.368 0-.755.194-1.162.581zm1.16-.253c.13 0 .298.164.507.492-.07.893-.953 2.333-2.651 4.319-.338.218-.561.328-.67.328a.675.675 0 00-.254-.075v-.253c1.758-2.145 2.701-3.639 2.83-4.483.05 0 .13-.11.239-.328zm-7.134 1.252v.327c.11 0 .278.11.507.328v-1.073c-.338.19-.507.328-.507.418zm7.894-.18c.11.19.164.358.164.507v.327c-.09.676-.397 1.396-.924 2.16-.824.556-1.345.834-1.563.834 0-.06-.03-.09-.09-.09l1.832-2.74c.288-.665.482-.998.581-.998zm-11.96 2.086v.238h.09c.347 0 .54-.328.58-.983.467-.278.909-.417 1.326-.417.238 0 .541.164.909.492 0 .407-.968.849-2.905 1.325v.417c1.291-.437 2.344-.849 3.158-1.236l.164.491c-.854.994-1.962 1.49-3.322 1.49v.253h.09c1.052 0 2.045-.357 2.978-1.072h.254c0 .407-.358.849-1.073 1.325-.476.258-1.226.477-2.249.656v.253c2.383-.278 3.575-.968 3.575-2.07.05-.07.074-.264.074-.581 0-.954-.412-1.619-1.236-1.996-.04 0-.209-.03-.506-.09-1.063 0-1.644.447-1.743 1.341-.11.01-.164.065-.164.164zm9.22 4.975h.074c1.072-.378 2.427-1.763 4.066-4.156v-.164c-.08 0-.63.666-1.653 1.996-.199.08-1.028.854-2.488 2.324zm-9.22-.09v.343c2.165-.666 3.356-1.222 3.575-1.668v-.075h-.09c-1.846.933-3.008 1.4-3.485 1.4zm6.97.253v.09h.507a10.489 10.489 0 001.579-1.415v-.164h-.09c-1.161.993-1.827 1.49-1.995 1.49zm-4.23 0v.09h.418c.665-.16 1.3-.601 1.906-1.326v-.179c-1.132.834-1.906 1.306-2.323 1.415zm2.413.09h.418c.655-.457 1.042-.82 1.161-1.088v-.074h-.178l-1.4 1.162zM65.263.059H78.46c.089 0 .173.085.253.254v4.81c0 .08-.085.164-.253.254h-8.296v7.715h5.719c.387 0 .58.193.58.58v4.394c0 .08-.108.189-.327.328h-5.972v7.715h7.968c.308 0 .501.114.58.342v4.722c0 .09-.084.174-.253.253h-13.27c-.09 0-.174-.084-.253-.253V.387c0-.08.109-.188.327-.327zm0 .418V.55c.526.209 1.107 1.177 1.743 2.905l-.492.506h-.253c-.258-.814-.59-1.45-.998-1.907v.239c.497 1.152.745 1.847.745 2.085v.074c-.11.249-.218.388-.328.417h-.074c-.14 0-.224-.109-.253-.327h-.09v1.653h.09c.695-.159 1.3-.238 1.817-.238h.253c.377 0 1.181.134 2.413.402v-.238h-.164v-.09l.164-.253V5.45h-.09c-.387.268-.58.437-.58.507-1.53-.229-2.413-.343-2.652-.343-.377.06-.68.09-.908.09.218-.805 1.241-1.857 3.068-3.158A12.755 12.755 0 0172.069.551V.477h-.834c0 .278-.249.417-.745.417-.139-.278-.248-.417-.328-.417h-.253V.55l.253.507c0 .178-.248.342-.744.491-.388-.675-.636-1.033-.745-1.072h-.164V.55c.387.705.606 1.068.656 1.087 0 .17-.219.388-.656.656h-.09L67.259.477h-.164V.55c.308.387.64 1.028.998 1.922-.06.218-.338.466-.834.744-.427-1.201-.978-2.115-1.653-2.74h-.343zM68.33 5.54v.074c.199 0 .81-.412 1.832-1.236 3.545-2.105 6.285-3.157 8.221-3.157V.968h-.089c-1.966 0-4.816 1.137-8.549 3.411-.894.646-1.365 1.033-1.415 1.162zm2.16-.506h.506c2.413-1.48 4.791-2.309 7.135-2.488h.253v-.253c-1.827.12-3.823.645-5.988 1.579-1.27.735-1.906 1.122-1.906 1.162zm2.666-.075v.074h.328c.913-.397 2.546-.784 4.9-1.161v-.328c-2.443.447-4.186.918-5.228 1.415zm4.558 0v.074h.67v-.327h-.09c-.277.168-.47.253-.58.253zM65.262 8.102v.254c.556-.05.973-.075 1.251-.075.715 0 1.822.134 3.322.402v-.327c-1.122-.278-2.12-.417-2.994-.417-.278 0-.804.054-1.579.163zm0 1.252v.327c.755-.05 1.311-.074 1.668-.074h.417c.745 0 1.574.164 2.488.492v-.254c-1.202-.387-2.309-.58-3.322-.58-.139 0-.556.03-1.25.089zm0 .67v.238c2.989 2.92 4.483 4.831 4.483 5.735.536 1.38.84 2.07.909 2.07h.342a1.424 1.424 0 01-.163-.67v-.164h.074c.268 0 .765.278 1.49.834h.342v-.09c-1.33-.933-2.105-1.4-2.324-1.4-.278-.724-.416-1.166-.416-1.325.119 0 .724.387 1.817 1.162.575.218 1.27.77 2.085 1.653h.327v-.09c-.397-.566-1.559-1.45-3.485-2.65-.764-.487-1.29-.874-1.579-1.162-.218-.398-.327-.616-.327-.656.05 0 .074-.03.074-.09 1.043.319 2.343 1.009 3.903 2.071 1.658 1.261 2.487 2.12 2.487 2.577h.76v-.253c-.448 0-.67-.164-.67-.492-1.232-1.251-2.34-2.11-3.322-2.577-.606-.595-1.907-1.23-3.903-1.906l-.327-.417v-.253c.328 0 .993.193 1.996.58v-.327c-1.083-.387-1.857-.58-2.324-.58h-.342c0-.08-.164-.329-.492-.746v-.089c.357-.11.606-.164.745-.164.357 0 1.162.169 2.413.507v-.164c0-.169-.666-.363-1.996-.581-.258-.06-.616-.09-1.073-.09h-.58c-.249 0-.556-.163-.924-.49zm0 2.726v.416c.616.447 1.281 1.197 1.996 2.25a12.317 12.317 0 012.07 3.485c.06 0 .09.109.09.327v.164c0 .11-.055.164-.164.164-.14 0-.387-.467-.745-1.4-.705-1.35-1.787-2.68-3.247-3.992v.328c1.688 1.708 2.602 2.93 2.74 3.664.448.586.671 1.082.671 1.49-.06.168-.228.253-.506.253h-.075c-.09 0-.228-.363-.417-1.088-.874-1.3-1.678-2.293-2.413-2.979v.328c1.55 1.797 2.324 3.098 2.324 3.902-.229.16-.447.239-.656.239-.625-1.281-1.151-2.22-1.578-2.815h-.09v.253c0 .12.388.864 1.162 2.234v.417c-.08.218-.273.328-.58.328-.319-.775-.512-1.162-.582-1.162v.164c0 .189.055.576.164 1.162-.11.02-.164.079-.164.178v.239c1.897-.775 3.143-1.162 3.739-1.162l-.09.834c.06.328.144.491.253.491.11 0 .333-.079.67-.238v-.342h-.416c-.11 0-.164-.055-.164-.164v-.075c0-.268.193-.655.58-1.161v-.343c-.297-.784-.933-1.946-1.906-3.485-1.082-1.55-1.97-2.517-2.666-2.905zm6.152.759l2.978 1.906c.15.219.705.66 1.669 1.326v-.164c-2.076-1.867-3.516-2.89-4.32-3.068h-.327zm2.323 0l2.324 1.906v-.417c-.1 0-.74-.496-1.922-1.489h-.402zm1.743 0c0 .07.193.233.58.492v-.254c0-.08-.084-.159-.253-.238h-.328zM65.261 23.547v.164c0 .17.03.254.09.254l-.09.402v.834h.09c.188 0 .436-.025.744-.075.447 0 .725.387.834 1.162v.074c0 .606-.556 1.078-1.668 1.415v.417c.586 0 1.222-.471 1.907-1.415v-.744c0-.834-.551-1.251-1.653-1.251v-.164c.218-.775.52-1.162.908-1.162 0-.119.333-.228.998-.327h.506c.318.178.537.372.656.58v.417c-.17.209-.254.402-.254.581.388.16.581.407.581.745v.164c0 .08-.08.164-.238.253 0 .149.139.288.417.417 0-.199.248-.561.745-1.087v-.417c-.248.228-.442.342-.581.342-.278-.377-.417-.655-.417-.834 0-.04.025-.208.074-.506 0-.189-.302-.546-.908-1.073 0-.238.61-.402 1.832-.491v-.253h-.253c-.924 0-2.334.526-4.23 1.578h-.09zm5.064 2.98c-.327.903-.491 1.514-.491 1.831 0 .805.605 1.3 1.817 1.49h.163c1.123 0 1.843-.551 2.16-1.654v-.09c-.01-.098-.149-.317-.417-.654.12-.348.258-.542.417-.581h.253c.288 0 .591.248.909.744 0 .12-.11.368-.328.745.169.318.253.596.253.834 0 .844-.804 1.395-2.412 1.654l-2.398-.328c-.487 0-.959.193-1.415.58h.074c.07 0 .377-.054.924-.163h.744a76.36 76.36 0 001.996.164h.328c1.598-.199 2.398-.894 2.398-2.085 0-.467.03-.964.09-1.49-.309-.665-.726-.998-1.252-.998-.516 0-.82.387-.908 1.162.069 0 .208.169.416.506v.075c0 .655-.635 1.072-1.906 1.25-1.052 0-1.579-.416-1.579-1.25 0-.507.164-1.087.492-1.743h-.328zm6.718 0c.824 1.538 1.27 2.313 1.34 2.323v-.581c-.635-1.142-.998-1.723-1.087-1.743h-.254zm-11.528 4.482v.09h.327c.904-.755 1.599-1.505 2.085-2.25v-.163h-.09c-1.4 1.549-2.174 2.323-2.322 2.323zm1.489.09h.343c.496-.407.744-.77.744-1.088h-.09c-.049 0-.381.363-.997 1.088zM81.965.089h5.228c.228 0 .64 1.187 1.236 3.56 2.71 8.877 4.205 13.906 4.483 15.087h.075V.342c0-.089.084-.173.253-.253h4.721c.229 0 .343.333.343.998v29.595c0 .427-.114.675-.343.744h-5.049c-.228 0-.948-2.07-2.16-6.21-.605-1.619-1.846-5.462-3.723-11.528h-.09v17.41c0 .08-.108.19-.327.329h-4.647v-1.073c.239.11.626.358 1.162.745h.328c0-.06-.497-.447-1.49-1.162v-.834c.596.218 1.51.884 2.74 1.996h.418v-.09c-.06 0-.507-.357-1.34-1.072-.785-.606-1.39-.968-1.818-1.087v-1.147c.824.606 2.234 1.738 4.23 3.396h.417v-.164c-.1 0-1.454-1.077-4.066-3.232-.387-.199-.58-.338-.58-.417V25.96c.109 0 1.657 1.35 4.646 4.052v-.239c-1.29-1.3-2.84-2.71-4.647-4.23v-1.325c.844.427 2.393 1.807 4.647 4.14v-.327c-2.452-2.562-4.001-3.972-4.647-4.23v-.998h.09c.973.317 2.244 1.37 3.813 3.157.05 0 .297.248.744.745v-.417c-1.797-2.085-3.346-3.331-4.647-3.738v-1.237h.09c1.072.318 2.477 1.425 4.215 3.322 0 .159.114.293.342.402v-.328c-1.608-1.866-2.8-2.914-3.574-3.142 0-.12-.358-.313-1.073-.581v-.998c.983.278 2.532 1.464 4.647 3.56v-.239c0-.457-1.052-1.4-3.157-2.83l-1.49-.655v-2.07c1.4.516 2.95 1.564 4.647 3.142v-.327c-.615-.725-.923-1.609-.923-2.651 0-.954.308-2.393.923-4.32v-.908c-.705.387-1.122.58-1.25.58v.165l.089.417c0 .983-.72 2.09-2.16 3.32-.566.329-.869.492-.909.492-.248-.109-.387-.218-.417-.327v-.834c.626 0 1.291-.66 1.996-1.981.11-.447.189-.67.238-.67a.723.723 0 01-.074-.328h-.09c-.099.07-.377.65-.834 1.743-.605.605-1.017.908-1.236.908v-1.49c.566-.615.924-1.226 1.073-1.831-.12-.934-.477-1.4-1.073-1.4v-1.415h.09l.58.327h.239v-.074c-.348-.407-.65-1.043-.909-1.906V7.134c0-.665.224-.997.67-.997.606.168.909.337.909.506v.238c-.447.477-.67.919-.67 1.326.357.09.829 1.142 1.415 3.157.288.358.566.606.834.745.993-.05 1.49-.159 1.49-.328v-.253h.074c0 .169.03.253.09.253.277 0 .495-.332.654-.998v-.163l-.074-.164-.58.074h-.09c-.11 0-.164-.054-.164-.164v-.163c0-.249.442-.467 1.326-.656.834.11 1.25.467 1.25 1.073-.943 1.132-1.663 1.737-2.16 1.817l.09.417h.075c.387-.328.72-.492.998-.492v.075c0 .07-.224.57-.67 1.504l.089.402h.164c.307-1.023 1.082-2.457 2.323-4.304 0-.695-.526-1.246-1.579-1.653-1.092-.705-2.775-1.48-5.049-2.324 0-.159-.471-.273-1.415-.342V3.068h.09c1.598.308 3.862 1.445 6.791 3.411h.09v-.09c-.338-.496-1.554-1.295-3.65-2.397a28.935 28.935 0 00-3.32-1.251v-.834c1.687.208 3.897 1.345 6.627 3.41v-.089c0-.258-.66-.784-1.98-1.579-.358-.466-1.55-1.047-3.575-1.742-.646-.16-1.003-.239-1.073-.239V.09zm2.577.328v.09c.764.278 1.782.744 3.053 1.4-.129-.497-.238-.745-.328-.745 0 .11-.054.164-.163.164-.12 0-.398-.11-.835-.328V.834l.343-.417h-.253c-.179 0-.372.085-.581.253-.06 0-.338-.084-.834-.253h-.402zm8.787.908v.254h.075c1.678-.546 3.172-.82 4.483-.82V.506h-.09c-1.737.219-3.227.492-4.468.82zm0 1.416v.253h.075c1.946-.665 3.44-.998 4.483-.998v-.164c-1.817.169-3.337.472-4.558.909zm0 1.653v.343c1.559-.884 3.078-1.326 4.558-1.326v-.253h-.164c-1.112 0-2.577.412-4.394 1.236zm-11.2-.075v.164c2.492.914 4.647 1.936 6.464 3.068.06 0 .338.164.834.492 0-.368-.442-.725-1.325-1.073a11.545 11.545 0 00-3.069-1.578c-1.628-.715-2.566-1.073-2.814-1.073h-.09zm11.2 1.907v.417c0 .119.025.228.074.327a.723.723 0 00-.074.328v.09c1.49-.557 2.7-.835 3.634-.835h.924V6.3h-.581c-.864 0-2.056.194-3.575.581-.11-.179-.164-.343-.164-.491 1.798-.944 3.237-1.415 4.32-1.415V4.81h-.09c-1.191 0-2.656.417-4.394 1.25l-.074.165zm-9.294.417c.278 0 1.634.58 4.066 1.742 1.103.646 1.654 1.088 1.654 1.326-.08.218-.16.328-.239.328h-.089c-.288-.417-1.42-1.053-3.396-1.907-1.5-.466-2.249-.744-2.249-.834v-.074c.169-.239.253-.432.253-.581zm-.491 1.072c.606.01 1.877.427 3.813 1.251v.164c0 .149-.278.288-.834.417-1.172-.556-2.14-.918-2.905-1.087l-.327-.328v-.253c0-.11.084-.164.253-.164zm9.785 1.415v.328c1.34-.943 2.86-1.415 4.558-1.415v-.238h-.254c-1.191 0-2.626.442-4.304 1.325zm-9.294-.253c.447 0 1.167.303 2.16.909v.253l-.09.58h-.074c-1.38-.446-2.07-.833-2.07-1.16V9.04l.074-.164zm9.294 2.07v.254c1.072-.695 2.477-1.246 4.215-1.654.228 0 .343-.06.343-.178v-.075c-.884 0-2.379.497-4.484 1.49l-.074.163zm-8.966-.58c.636 0 1.33.332 2.085.997 0 .08-.084.164-.253.254-1.221-.279-1.832-.611-1.832-.998v-.253zm8.966 2.487v.253c1.698-1.44 3.078-2.16 4.14-2.16h.418v-.253h-.09c-1.579 0-3.068.72-4.468 2.16zm-3.068-1.653c-1.33 1.936-1.996 3.678-1.996 5.227 0 .04.03.204.09.492h.164v-.09c0-1.657.635-3.395 1.906-5.212v-.253c0-.11-.055-.164-.164-.164zm3.068 4.14v.164h.075a6.013 6.013 0 011.578-1.981c.983-.944 1.951-1.47 2.904-1.58v-.327c-.724.179-1.25.343-1.578.492-1.52 1.032-2.488 2-2.905 2.904a.722.722 0 00-.074.328zm-11.364-3.56h.09c.218.08.327.164.327.253h-.253c-.11 0-.164-.06-.164-.179v-.074zm0 .581h.09c.436.14.655.303.655.492 0 .278-.11.446-.328.506-.278-.07-.417-.154-.417-.253v-.745zm11.945 5.883v.09c0 .397.164 1.112.492 2.145-.447.476-.67.948-.67 1.414h-.075c-.775-.983-1.162-2.199-1.162-3.649-.06 0-.09-.084-.09-.253-.108.02-.163.075-.163.164v.998c0 .953.61 2.254 1.832 3.902 1.072.775 1.653 1.162 1.743 1.162.854.328 1.544.491 2.07.491v-.327h-.253c-.398 0-1.088-.194-2.07-.581v-.164c.744-.14 1.21-.363 1.4-.67.069 0 .377.114.923.342v-.342c-.526 0-.998-.333-1.415-.998-.387 0-.581-.055-.581-.164.179-.328.482-.491.908-.491.338 0 .7.109 1.088.327v-.327c-.427-.219-.844-.328-1.251-.328-.775.228-1.162.615-1.162 1.162v.163h.09c.486-.06.764-.089.834-.089l.163.506c0 .328-.362.492-1.087.492h-.164c-.317 0-.566-.278-.745-.834-.327 0-.491-.219-.491-.656v-.089c0-.546.387-.903 1.162-1.072.357-.666 1.017-.998 1.98-.998.408.06.631.09.67.09v-.254c0-.11-.054-.387-.163-.834.11-.497.164-.854.164-1.073v-.089c-.199 0-.338.308-.417.923v.745c0 .11-.055.164-.164.164h-.417a3.997 3.997 0 01-.09-.67c0-.666.363-1.38 1.088-2.145v-.179h-.09c-.486.298-.898.879-1.236 1.743l-.089.58v.582c-.07.218-.318.327-.745.327-.218-.496-.327-.878-.327-1.147.258-1.886.7-2.83 1.325-2.83.15-.218.536-.411 1.162-.58v-.164h-.09c-1.598.318-2.397 1.062-2.397 2.234-.14.169-.254.531-.343 1.087 0 .537.14 1.063.417 1.58-.189.436-.407.654-.655.654-.388-.456-.581-1.092-.581-1.906 0-1.807.72-3.187 2.16-4.14l1.236-.745h.253v-.164c-1.082 0-2.19.77-3.322 2.309-.436 1.012-.655 1.871-.655 2.576zm-7.55-4.885c-.606 1.728-.909 3.302-.909 4.722v.253l.075.983h-.075c-.556-.179-.834-.452-.834-.82v-.67c0-1.191.278-2.104.834-2.74.288-1.102.482-1.653.581-1.653a.666.666 0 01.328-.075zm4.557.074a10.938 10.938 0 00-.998 4.558v.506c0 1.976.775 4.185 2.324 6.628 1.44 1.44 3.013 2.323 4.721 2.651.308.06.616.09.924.09v-.343h-.09c-.983 0-2.363-.496-4.14-1.49-1.311-1.25-2.115-2.382-2.413-3.395-.715-1.34-1.073-2.835-1.073-4.483 0-1.49.333-2.924.998-4.305-.07-.278-.153-.417-.253-.417zm-8.95.09c.079 0 .163.079.252.238v.09c0 .079-.084.163-.253.252v-.58zm9.203 3.65v1.16c0 1.56.66 3.491 1.981 5.795.805.953 1.693 1.509 2.666 1.668.785.268 1.39.402 1.817.402h.254v-.238h-.254c-1.141 0-2.412-.502-3.813-1.505-.625-.585-1.121-1.47-1.489-2.65-.556-.994-.834-2.18-.834-3.56v-.418c0-.705.085-1.365.253-1.98a.653.653 0 01-.09-.343c-.327.457-.49 1.013-.49 1.668zm-6.88-.18l.074.179v.238l-.074.998c-.278 0-.64-.14-1.088-.417v-.164c.239-.298.601-.576 1.088-.834zm6.955 8.713v.09c0 .824 1.162 1.678 3.485 2.561a11.01 11.01 0 002.651.328h.507v-.328H96.8c-1.073 0-2.398-.412-3.977-1.236a29.877 29.877 0 01-1.579-1.415zm1.088 3.322v.074c.297.625 1.4 1.206 3.306 1.743a7.77 7.77 0 001.996.253h.253v-.343h-.834c-1.33 0-2.904-.576-4.721-1.727zm.417 1.325v.074c0 .288.327.512.983.67h.506v-.089c-.09 0-.586-.218-1.49-.655zM102.168.089h14.506c.229.07.343.318.343.745v3.813c0 .427-.114.675-.343.745h-4.557v25.29c0 .496-.194.744-.581.744h-4.468c-.09 0-.174-.084-.253-.253V5.39h-4.647c-.219-.1-.328-.293-.328-.58V.67c0-.308.11-.501.328-.58zm.343.328c1.449 1.37 2.527 2.617 3.232 3.739.387.407.581.71.581.908h.327c-.566-1.231-1.837-2.78-3.813-4.647h-.327zm1.564 0v.09c.814.436 1.697 1.35 2.651 2.74.586.606 1.142 1.683 1.668 3.232v.164c0 .139-.224.248-.67.328-.11 0-.273-.303-.492-.909h-.089v.492c.059.377.144.57.253.58l-.089.164v.09c.109 0 .163.024.163.074 1.003-.546 1.559-.82 1.668-.82 1.371-.446 2.225-.67 2.562-.67v-.327c-.02 0-.377.025-1.072.075v-.075c.506-1.023 1.638-2.13 3.396-3.321A9.864 9.864 0 01116.6.834V.417h-.327c0 .338-.254.507-.76.507-.189-.338-.323-.507-.402-.507h-.253c.218.407.327.63.327.67 0 .18-.248.343-.744.492-.417-.735-.695-1.122-.834-1.162h-.164c.387.705.635 1.122.744 1.251 0 .16-.218.378-.655.656h-.089c-.755-1.271-1.167-1.907-1.236-1.907h-.164c.298.447.655 1.137 1.072 2.07-.059.229-.337.482-.834.76-.298-1.013-.879-1.956-1.743-2.83h-.402v.09c.616.178 1.251 1.171 1.907 2.978-.03 0-.199.17-.507.507h-.238c-.209-.953-.983-2.145-2.323-3.575h-.418c1.659 1.718 2.488 3.073 2.488 4.066-.109.249-.219.388-.328.417h-.089c-.139 0-.363-.417-.67-1.25-.298-.676-1.237-1.753-2.815-3.233h-.328c2.264 2.135 3.396 3.848 3.396 5.139-.08.228-.164.342-.253.342-.586-1.41-1.688-3.043-3.307-4.9l-.67-.58h-.328c2.602 2.77 3.902 4.676 3.902 5.719-.178.139-.427.253-.744.342-1.003-2.294-1.862-3.704-2.577-4.23-.377-.546-.928-1.157-1.653-1.832h-.506zm-1.818 1.162v.327a90.757 90.757 0 012.488 3.068l.164.09h.253c0-.14-.968-1.3-2.905-3.485zm0 .998v.491l1.579 1.996h.328c-.556-1.013-1.192-1.842-1.907-2.487zm11.692 2.487h.328c1.023-.744 1.797-1.216 2.323-1.415v-.327c-.605.248-1.489.829-2.651 1.742zm-11.692-.909v.328c0 .288.11.482.328.58h.253v-.088c-.288-.427-.456-.7-.506-.82h-.075zm13.256.91h.507c.387-.21.581-.348.581-.418v-.253c-.725.377-1.088.6-1.088.67zm-7.209 3.812l-1.161-.327v.327c1.31.189 2.83 1.102 4.557 2.74V10.53h-.491c-.348 0-.68-.218-.998-.655 0-.169.496-.253 1.489-.253v-.328h-.074c-.924 0-1.614.11-2.07.328-.566-.278-.874-.497-.924-.655v-.09c.199 0 .755-.164 1.668-.491.566-.06 1.008-.09 1.326-.09h.074V7.97c-1.042 0-2.174.302-3.396.908zm-1.161 2.324v.327c1.817.517 3.336 1.54 4.557 3.069v-.328c0-.655-1.157-1.54-3.47-2.651-.199-.11-.561-.248-1.087-.417zm0 1.161v.164l2.487 1.49c.764.665 1.455 1.3 2.07 1.906v-.328c-1.291-1.45-2.423-2.363-3.396-2.74-.615-.328-1.003-.492-1.161-.492zm0 1.236v.253c0 .06.526.338 1.578.834 1.271 1.172 2.264 2.25 2.979 3.232V17.5c-1.38-1.926-2.899-3.227-4.557-3.902zm0 1.49v.342c1.181.507 2.313 1.475 3.395 2.904.616 1.043.924 1.678.924 1.907v.164c-.09.218-.283.327-.581.327-.636-1.787-1.743-3.113-3.321-3.976-.179-.11-.318-.164-.417-.164v.328c1.062.387 1.921 1.107 2.576 2.16.497.704.745 1.31.745 1.816l-.417.253h-.164c-.04 0-.204-.332-.491-.998-.914-1.37-1.415-2.06-1.505-2.07a.994.994 0 00-.744-.327v.327c.417 0 .749.333.997.998.169.12.254.313.254.581v.491c-.834.209-1.251.373-1.251.492v1.326l.327-.164c.229.238.343.461.343.67-.09.218-.174.328-.253.328-.219-.05-.328-.16-.328-.328h-.089v.998h.089c1.708-1.48 3.197-2.363 4.468-2.651v-.76c-.457-1.52-1.311-2.73-2.562-3.634-.357-.367-1.022-.814-1.995-1.34zm1.668 4.974h.074c.387.377.581.819.581 1.325l-.253.18h-.164c-.149-.05-.367-.358-.655-.924.208 0 .347-.194.417-.581zm-1.088.67c.606.358.909.715.909 1.073v.089c0 .119-.134.203-.402.253-.616-.586-.924-1.028-.924-1.325l.417-.09zm-.58 5.139v.417c1.648-1.54 2.725-2.314 3.232-2.324v.09c-.159.198-.239.392-.239.58v.328c0 .08.08.164.239.253.198 0 .446-.03.744-.089.09 0 .283.11.581.328v-.328c0-.179-.387-.288-1.162-.328v-.163c.249-.835.611-1.252 1.088-1.252l.074-.163v-.328c-2.065.923-3.584 1.916-4.557 2.979zm0 .834v.491c.556.666 1.276.998 2.159.998h.581c.785 0 1.39-.278 1.817-.834v-.328c-.576.556-1.32.835-2.234.835h-.253c-1.321-.229-1.981-.616-1.981-1.162h-.089zm.164 2.323c0 .08-.055.189-.164.328v.328h.089c0-.11.109-.303.328-.581v-.075h-.253zm1.578 2.07h.253c.775-.655 1.162-1.126 1.162-1.414h-.089c-.596.516-1.038.988-1.326 1.415zm-1.742-.089v.09h.327c.447-.348.755-.735.924-1.162h-.09c-.754.665-1.142 1.023-1.161 1.072zm3.395 0v.09h.343c.546-.417.819-.666.819-.745v-.343c-.675.666-1.062.998-1.162.998zM126.05.06h6.523c.368 0 .641.979.82 2.935 3.097 18.04 4.646 27.385 4.646 28.03 0 .06-.139.194-.417.402h-5.123c-.368 0-.641-1.087-.819-3.261-.328-1.698-.517-2.92-.566-3.664h-3.754c-.625 4.508-1.007 6.762-1.146 6.762l-.239.163h-5.138c-.268-.158-.402-.322-.402-.491.377-2.631 2.09-12.79 5.138-30.473l.477-.402zm.089.656V.79h.164V.715h-.164zm-.491 3.262c3.028-1.827 5.282-2.835 6.761-3.024V.715h-.074c-1.807.348-4.036 1.35-6.687 3.009v.253zm-.239 1.058v.327c1.45-1.052 2.89-1.872 4.32-2.457.774-.318 1.752-.561 2.934-.73a.592.592 0 01-.09-.238c-.933.04-2.537.556-4.81 1.549-.01.07-.606.422-1.788 1.057-.377.238-.566.402-.566.492zm.641.64c-.407-.11-.651-.164-.73-.164v.253c1.241.119 3.227 1.315 5.958 3.59.814.724 1.355 1.29 1.623 1.697.159 0 .621.382 1.385 1.147v-.164c0-.189-.218-.486-.655-.894a.672.672 0 01-.075-.238c.328-.159.492-.268.492-.327v-.164c-.497.159-.745.268-.745.327-.119 0-.417-.218-.893-.655 0-.179.461-.422 1.385-.73V9.1c-.298 0-.839.189-1.624.566-.367-.13-.586-.318-.655-.566 1.072-.437 1.807-.655 2.204-.655a.555.555 0 01-.089-.313c-1.42.427-2.234.64-2.443.64h-.164c-.437-.258-.655-.422-.655-.491v-.15c.367-.436 1.43-.654 3.187-.654-.059-.17-.114-.254-.163-.254-1.46 0-2.602.219-3.426.656-.655-.239-.983-.482-.983-.73.586-.467 1.618-.795 3.098-.983h.089c.338.387.66.58.968.58a.603.603 0 01.254-.089l-.09-.402a.905.905 0 01-.491.164l-.149-.253v-.328c0-.08.134-.432.402-1.057v-.239c-.735 0-2.611.571-5.63 1.713l-.73-.327v-.09c.447-.486 1.832-1.137 4.156-1.95 1.3-.2 1.951-.363 1.951-.492v-.164c-1.52.278-2.656.58-3.411.908-.854.427-1.971.939-3.351 1.534zm6.031-.64h.492c0 .645-.432.968-1.296.968-.546.109-1.469.407-2.77.893-.437-.188-.655-.322-.655-.402 0-.149.65-.422 1.951-.819.248-.238 1.008-.452 2.278-.64zm-7.089 2.516a.945.945 0 01-.074.417c1.003 0 2.333.541 3.991 1.624h.075v-.164c-.725-.805-1.916-1.4-3.575-1.788a.823.823 0 01-.417-.089zm-.238 1.386v.253c.506.149 1.728.665 3.664 1.549l.328.074.074-.164c-2.363-1.141-3.719-1.712-4.066-1.712zm4.811.819c0 .357.323.74.968 1.146.586.636 1.971 1.882 4.155 3.739v-.328c-3.217-3.038-4.924-4.557-5.123-4.557zm-4.975.328v.327c.665 0 1.971.596 3.917 1.787h.075v-.163c-.308-.447-1.614-1.098-3.917-1.951h-.075zm5.213 1.131v.253c1.688 1.698 3.371 3.193 5.049 4.483h.089v-.089c0-.328-.491-.79-1.474-1.385a74.894 74.894 0 01-3.664-3.262zm-5.451.09v.327c.814.149 2.169.8 4.066 1.951v-.402c-1.728-.953-3.083-1.579-4.066-1.877zm4.885.893l-.983 6.688h1.951c-.596-4.25-.893-6.48-.893-6.688h-.075zm-5.049.09c0 .158-.03.347-.089.565.665.487 1.425 2.06 2.278 4.722-.327.268-.625.402-.893.402l-1.624-2.92h-.163v.403c.973 1.569 1.459 2.547 1.459 2.934v.164c0 .109-.054.164-.164.164-.129 0-.372-.462-.729-1.386-.437-.704-.681-1.057-.73-1.057 0 .12-.03.223-.09.313.656 1.181.983 1.916.983 2.204-.049.169-.213.253-.491.253h-.075c-.059 0-.223-.412-.491-1.236-.109 0-.164.085-.164.253 0 .11.055.487.164 1.132-.139.11-.273.164-.402.164v.328c.685-.268 1.281-.402 1.787-.402l-.089.819c.059.317.144.476.253.476l.894-.312c.814.198 1.221.496 1.221.893l-.164.075c-.814-.11-1.385-.164-1.713-.164-.754 0-1.623.298-2.606.893l-.075.418c.348-.11.591-.164.73-.164h.492c.307.178.526.367.655.566v.417c-.169.198-.253.387-.253.566.377.159.566.402.566.73v.163c0 .08-.08.16-.239.239 0 .149.135.288.403.417 0-.517.814-1.172 2.442-1.966.278-.378.417-.889.417-1.534-.407-1.252-1.032-1.877-1.876-1.877-.298.05-.542.074-.73.074l-.09-.163v-.075c0-.645.517-1.246 1.549-1.802h.417c.269 0 .537.084.805.253v-.328c-.01-.079-.308-.243-.894-.491a1.146 1.146 0 01-.328-.82v-.163h.09c.268 0 .675.218 1.221.655h.075v-.163c-.407-.418-1.033-.825-1.877-1.222l-.313-1.221c.119 0 .631.328 1.534.983l.819.491v-.253c0-.04-.978-.715-2.934-2.025-.327-.388-.516-.69-.566-.909.05 0 .075-.025.075-.074 1.052.337 2.249.963 3.589 1.876v-.253c-1.44-1.112-2.795-1.787-4.066-2.026zm5.854.73v.237c.685.626 1.881 1.604 3.589 2.935v.163c-.377.11-.675.164-.894.164-.139-.228-.546-.526-1.221-.893 0-.06-.407-.413-1.221-1.058v.402c1.32.973 2 1.46 2.04 1.46v.09c0 .158-.303.322-.908.49h-.149c0-.128-.248-.456-.745-.982v-.075h-.074v.075c0 .1.163.536.491 1.31-.169 0-.253.055-.253.164v.239h.089a10.468 10.468 0 014.23-1.222v-.238l-.074-.164-.417.075h-.164c-.308 0-1.748-1.058-4.319-3.173zm.983 6.836c-.179 0-.586-.11-1.222-.328h-.819l.09.417v.64c-.169.517-.254.844-.254.983.06.378.09.596.09.656a5.334 5.334 0 01-.819 1.623h.417c.427-.774.695-1.345.804-1.713h.089c.229 0 .879.571 1.951 1.713.268 0 .402.194.402.581.517.447 1.227 1.584 2.13 3.41.596.964.894 1.808.894 2.533l-.253.402h.819v-.075c-.149 0-.283-.407-.402-1.221a18.747 18.747 0 00-4.156-6.598c-1.032-.814-1.549-1.251-1.549-1.31 0-.19.08-.517.239-.984a.574.574 0 01-.075-.238l.075-.73c2.313.963 4.269 2.89 5.868 5.779.814 1.926 1.221 3.694 1.221 5.302h-.402v.075h1.221v-.075c-.278 0-.417-.054-.417-.164v-.089h.417c0-.169-.163-.412-.491-.73l.238-.164c0 .06.03.09.09.09v-.253c0-.08-.164-.16-.492-.239l-.074-.566c.268-.06.402-.114.402-.163 0-.09-.164-.229-.492-.418a1.13 1.13 0 01-.238-.73v-.074l.074-.164.164.075h.239v-.164c0-.05-.244-.184-.73-.402l-.492-1.475.164-.074h.089c.229 0 .447.055.656.164v-.164c0-.179-.407-.288-1.222-.328l-.491-.655c0-.228.407-.363 1.221-.402.11.05.189.074.239.074v-.238h-.73l-.983.074c-.378-.377-.566-.675-.566-.893v-.238a6.421 6.421 0 011.787-.254c.109.06.194.09.253.09v-.164c0-.11-.054-.164-.164-.164h-.089c-.864 0-1.539.11-2.026.328-.287-.11-.536-.328-.744-.656 0-.377.571-.566 1.713-.566h.163c.06 0 .09-.03.09-.089l.164.09h.64v-.254l-.402-.074h-.075c-1.072 0-1.941.188-2.606.566-.248-.11-.387-.219-.417-.328v-.238c.377-.378 1.276-.675 2.696-.894.129 0 .342-.03.64-.09v-.074c0-.109-.049-.164-.149-.164-.923 0-2.204.353-3.842 1.058-.209-.08-.313-.159-.313-.239v-.163c0-.13.243-.239.73-.328 0-.278.814-.606 2.442-.983.258-.11.586-.164.983-.164a.602.602 0 01-.089-.238c-.933 0-2.185.377-3.753 1.132-.229 0-.418.11-.566.328zm.401-.894l.164.09v-.254c-.109.01-.164.065-.164.164zm-5.778 2.368c1.141.09 1.712.254 1.712.492v.402c0 .745-.625 1.286-1.876 1.623-.109.219-.273.328-.492.328-.268-.367-.402-.64-.402-.819 0-.04.025-.199.075-.477 0-.198-.298-.55-.894-1.057 0-.238.626-.402 1.877-.492zm-3.426 2.77l-.074.164c.377.229.566.581.566 1.058v.074c0 .437-.323.82-.969 1.147v.402c.815-.457 1.222-.918 1.222-1.385v-.491c0-.646-.248-.969-.745-.969zm3.351 3.247c.159.715.348 1.073.566 1.073v-.164l-.253-.983c0-.626.273-1.385.819-2.279v-.164c-.755.805-1.132 1.643-1.132 2.517zm-4.483 3.262c1.301-1.162 2.17-2.085 2.607-2.77v-.164h-.09c-1.142 1.251-1.956 2.095-2.442 2.532l-.075.402zm.655.09v.074h.805c0-.09.327-.467.983-1.132.218-.238.327-.457.327-.655h-.089c-1.043 1.141-1.718 1.712-2.026 1.712zm2.026.074h.581c0-.447.407-.745 1.221-.894h.313l.089-.402h-.089c-.645 0-1.35.432-2.115 1.296zM140.727.089h4.647c.079 0 .189.11.328.328v25.782h7.715c.079 0 .163.084.253.253v4.721c0 .09-.085.174-.253.254h-12.69c-.08 0-.189-.11-.328-.328V.834c0-.427.11-.675.328-.745zm.089 1.072v.343a16.61 16.61 0 013.977-.506c.218.06.412.089.581.089V.759h-.328c-1.152 0-2.562.134-4.23.402zm0 1.163v.342c1.49-.447 2.87-.67 4.141-.67h.253l.164.09v-.343h-.745c-1.102 0-2.373.193-3.813.58zm0 .923v.402c.914-.387 2.185-.58 3.813-.58h.164l.581.089v-.253c0-.11-.223-.19-.67-.239-.894.05-2.19.244-3.888.581zm0 1.072v.328c1.46-.169 2.259-.253 2.398-.253l2.16.178V4.32a10.571 10.571 0 00-1.907-.164h-.744c-.338 0-.973.055-1.907.164zm0 1.326v.327a6.169 6.169 0 011.743-.253h.745c.546 0 1.236.06 2.07.179v-.253a9.982 9.982 0 00-2.324-.254h-.655c-.347 0-.874.085-1.579.254zm0 1.579v.238h.075c1.082-.437 2.328-.655 3.738-.655l.745.074v-.238l-.998-.09h-.581c-1.986.21-2.979.433-2.979.67zm0 .819v.09a.94.94 0 00.075.416l-.075.492v.09c.11-.06.194-.09.254-.09l.402.09c0-.319.749-.567 2.249-.746.427 0 .978.055 1.653.164v-.342h-.089c-.457 0-.899-.025-1.326-.075-.467 0-1.375.11-2.726.328 0-.07-.139-.209-.417-.417zm0 2.83v.327h.075c1.052-.605 2.353-.908 3.902-.908h.089c.11.01.164.065.164.164v.238c0 .159-.362.273-1.087.343-2.095.794-3.143 1.29-3.143 1.489v.328c1.49-.993 2.786-1.544 3.888-1.654.059.08.119.437.178 1.073-.129.109-.546.218-1.251.328-1.588 1.141-2.472 1.861-2.651 2.16l-.164.252v.328c1.738-1.807 3.093-2.72 4.066-2.74.268.089.403.258.403.506l-1.907.745c-1.569 1.191-2.423 2.214-2.562 3.068v1.236h.075c0-1.211.526-2.234 1.579-3.068.585-.745 1.553-1.296 2.904-1.653v-.656c-.169-.526-.253-.859-.253-.998v-.327c0-.14.084-.472.253-.998v-.417h-1.489c-.596 0-1.619.278-3.069.834zm1.073 7.79v.074c0 .308.084.834.253 1.579v.327c0 .239-.333.378-.998.417-.169-.387-.253-.66-.253-.819h-.075v.656l.075.491a.944.944 0 00-.075.417v.09c.12-.1.368-.184.745-.254 0-.188.194-.327.581-.417.457-.605.983-.908 1.579-.908.655 0 1.206.248 1.653.744v-.997h-.492c-.278 0-.446-.413-.506-1.237 0-.844.333-1.34.998-1.49v-.252h-.089c-.825.278-1.237.829-1.237 1.653v.343c0 .109.055.382.164.819l-.164.09h-.253c-.179 0-.288-.358-.328-1.073 0-1.39.636-2.304 1.907-2.74v-.254c-.923 0-1.643.745-2.16 2.234-.049.07-.074.263-.074.58 0 .309.054.726.164 1.252-.149.169-.427.253-.834.253-.169-.615-.254-1.142-.254-1.579 0-1.866.829-3.083 2.488-3.649.317-.168.541-.253.67-.253v-.238c-2.105.606-3.158 1.46-3.158 2.562-.218.387-.327.913-.327 1.579zm2.815.327a.6.6 0 01.089.253h.253c0-.278.109-.417.328-.417v-.417h-.089c-.388.139-.581.332-.581.58zm-2.398 3.396c0 .07.278.348.834.834v.253c-.238.328-.487.492-.745.492-.665 0-.998-.248-.998-.745 0-.149-.169-.342-.506-.58v-.09h-.075v.253c.12.944.586 1.415 1.4 1.415.447 0 1.028.164 1.743.492.497 0 .745.084.745.253.119.387.178.605.178.655v.179l-.089.164c-1.191 0-2.432-.526-3.723-1.579 0-.219-.085-.328-.254-.328v.328c1.122 1.052 2.254 1.633 3.396 1.743l.745.074.417-.074v-.328c-.218-.238-.328-.462-.328-.67v-.09c.219-.605.328-.933.328-.983v-.744c-.715 0-1.46-.417-2.234-1.252v-.089l.581-.164c.337 0 .804.224 1.4.67.109.05.193.075.253.075v-.402c-.209 0-.511-.169-.909-.506-.357-.11-.605-.164-.744-.164-.616 0-1.088.302-1.415.908zm1.161.506c.11 0 .467.164 1.073.492.496.11.745.218.745.328 0 .278-.219.526-.656.744-.466 0-.938-.134-1.415-.402.169-.457.253-.844.253-1.162zm-2.651 2.815v.328c0 .218.497.466 1.49.744 0 .13.69.268 2.07.418a8.527 8.527 0 002.577-.581v-.075h-.745c-.665.219-1.167.328-1.504.328h-.164c-1.241 0-2.483-.387-3.724-1.162zm3.396 2.16c-.596 0-1.727-.363-3.396-1.088v.418c1.599.665 2.676.997 3.232.997h.417c2.592-.347 3.888-.65 3.888-.908.159 0 .382-.14.67-.417h.253c0 .417-.362.859-1.087 1.325-1.053.497-2.214.745-3.485.745h-1.073c-.536 0-1.474-.248-2.815-.745v.417c1.093.437 2.061.656 2.905.656h.655c3.376-.258 5.064-.894 5.064-1.907.109 0 .164-.273.164-.819h-.581c-.854.775-1.986 1.162-3.396 1.162 0 .11-.471.164-1.415.164zm6.554-1.162v.164c0 .317.854.76 2.562 1.325v-.417a.994.994 0 01-.745-.328c.288-.516.481-.819.581-.908h-.417c-.288.546-.537.82-.745.82-.367-.15-.616-.343-.745-.582v-.074l.09-.164h-.417c-.11.01-.164.064-.164.164zm-6.881 4.304h-.507a7.027 7.027 0 01-2.562-.491v.164c0 .139.388.278 1.162.417h3.56c1.171-.11 2.472-.606 3.902-1.49l.074-.179v-.074h-.074c-1.976 1.102-3.828 1.653-5.555 1.653zm4.81 0v.09h.402c.666-.16 1.301-.601 1.907-1.326v-.164c-1.132.824-1.902 1.291-2.309 1.4zm2.398.09h.417c.665-.457 1.052-.82 1.162-1.088v-.074h-.164l-1.415 1.162zm1.817-.09v.09h.417v-.254h-.074c-.139.11-.254.164-.343.164zM164.496.09h14.507c.228.07.342.318.342.745v3.813c0 .427-.114.675-.342.745h-4.558v25.29c0 .496-.194.744-.581.744h-4.468c-.089 0-.174-.084-.253-.253V5.39h-4.647c-.219-.1-.328-.293-.328-.58V.67c0-.308.11-.501.328-.58zm.343.328c1.449 1.37 2.527 2.617 3.232 3.739.387.407.581.71.581.908h.327c-.566-1.231-1.836-2.78-3.812-4.647h-.328zm1.564 0v.09c.814.436 1.698 1.35 2.651 2.74.586.606 1.142 1.683 1.668 3.232v.164c0 .139-.223.248-.67.328-.109 0-.273-.303-.492-.909h-.089v.492c.059.377.144.57.253.58l-.089.164v.09c.109 0 .164.024.164.074 1.002-.546 1.558-.82 1.668-.82 1.37-.446 2.224-.67 2.561-.67v-.327c-.019 0-.377.025-1.072.075v-.075c.506-1.023 1.638-2.13 3.396-3.321a9.854 9.854 0 012.577-1.49V.417h-.328c0 .338-.253.507-.76.507-.188-.338-.322-.507-.402-.507h-.253c.218.407.328.63.328.67 0 .18-.249.343-.745.492-.417-.735-.695-1.122-.834-1.162h-.164c.387.705.635 1.122.745 1.251 0 .16-.219.378-.656.656h-.089c-.755-1.271-1.167-1.907-1.236-1.907h-.164c.298.447.655 1.137 1.072 2.07-.059.229-.337.482-.834.76-.298-1.013-.878-1.956-1.742-2.83h-.403v.09c.616.178 1.252 1.171 1.907 2.978-.03 0-.199.17-.506.507h-.239c-.208-.953-.983-2.145-2.323-3.575h-.417c1.658 1.718 2.487 3.073 2.487 4.066-.109.249-.218.388-.328.417h-.089c-.139 0-.362-.417-.67-1.25-.298-.676-1.236-1.753-2.815-3.233h-.328c2.264 2.135 3.396 3.848 3.396 5.139-.08.228-.164.342-.253.342-.586-1.41-1.688-3.043-3.307-4.9l-.67-.58h-.328c2.602 2.77 3.903 4.676 3.903 5.719-.179.139-.427.253-.745.342-1.003-2.294-1.862-3.704-2.577-4.23-.377-.546-.928-1.157-1.653-1.832h-.506zm-1.817 1.162v.327a89.356 89.356 0 012.487 3.068l.164.09h.253c0-.14-.968-1.3-2.904-3.485zm0 .998v.491l1.578 1.996h.328c-.556-1.013-1.191-1.842-1.906-2.487zm11.691 2.487h.328c1.023-.744 1.797-1.216 2.324-1.415v-.327c-.606.248-1.49.829-2.652 1.742zm-11.691-.909v.328c0 .288.109.482.327.58h.254v-.088c-.288-.427-.457-.7-.507-.82h-.074zm13.255.91h.507c.387-.21.581-.348.581-.418v-.253c-.725.377-1.088.6-1.088.67zm-7.208 3.812l-1.162-.327v.327c1.311.189 2.83 1.102 4.557 2.74V10.53h-.491c-.348 0-.68-.218-.998-.655 0-.169.497-.253 1.489-.253v-.328h-.074c-.923 0-1.613.11-2.07.328-.566-.278-.874-.497-.924-.655v-.09c.199 0 .755-.164 1.668-.491.566-.06 1.008-.09 1.326-.09h.075V7.97c-1.043 0-2.175.302-3.396.908zm-1.162 2.324v.327c1.817.517 3.336 1.54 4.557 3.069v-.328c0-.655-1.156-1.54-3.47-2.651-.198-.11-.561-.248-1.087-.417zm0 1.161v.164l2.487 1.49c.765.665 1.455 1.3 2.07 1.906v-.328c-1.29-1.45-2.422-2.363-3.395-2.74-.616-.328-1.003-.492-1.162-.492zm0 1.236v.253c0 .06.526.338 1.579.834 1.271 1.172 2.264 2.25 2.978 3.232V17.5c-1.38-1.926-2.899-3.227-4.557-3.902zm0 1.49v.342c1.181.507 2.313 1.475 3.396 2.904.615 1.043.923 1.678.923 1.907v.164c-.089.218-.283.327-.581.327-.635-1.787-1.742-3.113-3.321-3.976-.179-.11-.318-.164-.417-.164v.328c1.062.387 1.921 1.107 2.576 2.16.497.704.745 1.31.745 1.816l-.417.253h-.164c-.039 0-.203-.332-.491-.998-.914-1.37-1.415-2.06-1.505-2.07a.992.992 0 00-.744-.327v.327c.417 0 .749.333.998.998.168.12.253.313.253.581v.491c-.834.209-1.251.373-1.251.492v1.326l.327-.164c.229.238.343.461.343.67-.089.218-.174.328-.253.328-.219-.05-.328-.16-.328-.328h-.089v.998h.089c1.708-1.48 3.197-2.363 4.468-2.651v-.76c-.456-1.52-1.31-2.73-2.561-3.634-.358-.367-1.023-.814-1.996-1.34zm1.668 4.974h.074c.388.377.581.819.581 1.325l-.253.18h-.164c-.149-.05-.367-.358-.655-.924.208 0 .347-.194.417-.581zm-1.087.67c.605.358.908.715.908 1.073v.089c0 .119-.134.203-.402.253-.616-.586-.923-1.028-.923-1.325l.417-.09zm-.581 5.139v.417c1.648-1.54 2.725-2.314 3.232-2.324v.09c-.159.198-.238.392-.238.58v.328c0 .08.079.164.238.253.198 0 .447-.03.745-.089.089 0 .283.11.58.328v-.328c0-.179-.387-.288-1.161-.328v-.163c.248-.835.61-1.252 1.087-1.252l.074-.163v-.328c-2.065.923-3.584 1.916-4.557 2.979zm0 .834v.491c.556.666 1.276.998 2.159.998h.581c.785 0 1.39-.278 1.817-.834v-.328c-.576.556-1.32.835-2.234.835h-.253c-1.321-.229-1.981-.616-1.981-1.162h-.089zm.164 2.323c0 .08-.055.189-.164.328v.328h.089c0-.11.109-.303.328-.581v-.075h-.253zm1.578 2.07h.254c.774-.655 1.161-1.126 1.161-1.414h-.089c-.596.516-1.038.988-1.326 1.415zm-1.742-.089v.09h.328c.446-.348.754-.735.923-1.162h-.089c-.755.665-1.142 1.023-1.162 1.072zm3.395 0v.09h.343c.546-.417.819-.666.819-.745v-.343c-.675.666-1.062.998-1.162.998zM183.001.18h4.588c.218.079.327.268.327.565v23.4c0 1.012.68 1.667 2.041 1.965h.491c1.37-.218 2.056-1.062 2.056-2.532V.417c0-.08.079-.159.238-.238h4.915c.079 0 .159.08.238.238v22.996c0 3.833-1.772 6.395-5.317 7.686a8.008 8.008 0 01-2.294.327c-3.117 0-5.461-1.584-7.03-4.751-.327-.884-.491-1.892-.491-3.024V.417c0-.08.079-.159.238-.238zm11.29.327v.075c.427.03 1.519.576 3.276 1.638v-.164l-.655-.655c.288-.12.506-.362.655-.73V.506h-.163l-.894.73c-.129 0-.402-.109-.819-.327V.745l.164-.239h-.09c-.218 0-.437.025-.655.075a2.702 2.702 0 00-.655-.075h-.164zm-11.2.983v.239c1.36-.378 2.452-.566 3.276-.566h1.147V.909h-1.236c-.914 0-1.976.193-3.187.58zm9.74.492v.239c.636 0 2.214.873 4.736 2.62v-.327c-1.976-1.36-3.122-2.04-3.44-2.04 0-.1-.432-.263-1.296-.492zm-9.74.73v.164h.074c1.887-.328 3.336-.492 4.349-.492v-.238h-.581c-.834 0-2.115.189-3.842.566zm9.74.417v.164c.01.08.69.377 2.041.894l2.621 1.638h.074v-.328c-1.757-1.102-3.336-1.891-4.736-2.368zm-9.74.893v.328c2.442-.546 3.887-.82 4.334-.82h.089v-.163h-.417c-.526 0-1.862.218-4.006.655zm0 1.386v.253h.163c.07 0 .368-.055.894-.164h.492c0 .655-.437.983-1.311.983a.677.677 0 01-.238.075v.253c.486-.11.839-.164 1.057-.164h.089c.338.377.666.566.983.566.12 0 .363-.219.73-.655.397-.05.616-.075.656-.075.476.05.779.075.908.075v-.82h-.745c-.506 0-.943.328-1.31.983l-.566.164-.164-.238v-.328c0-.546.382-.953 1.147-1.221.069-.218.312-.357.73-.417h.908V4.44c-.05 0-.268-.03-.655-.09-.149 0-.944.273-2.383.82l-1.385.238zm9.74-.805v.238c.338 0 1.917.765 4.736 2.294v-.253c-.585-.556-2.164-1.316-4.736-2.279zm0 1.296v.328l.164.253v.238l-.164.253v.566c.705 0 2.011.412 3.917 1.236v.164c0 .15-.273.283-.819.402-1.152-.546-2.105-.898-2.86-1.057 0-.06-.079-.114-.238-.164v.328c.636 2.125 1.097 3.187 1.385 3.187 0 .05.11.13.328.238 1.529 0 2.294-.432 2.294-1.295v-.164l-.09-.164-.566.074h-.089c-.109 0-.164-.054-.164-.163v-.164c0-.249.437-.467 1.311-.656h.327v-.402c-1.4-.725-2.844-1.3-4.334-1.727v-.164c.159-.229.239-.417.239-.566.347 0 1.712.6 4.095 1.802v-.164c-.516-.476-2.095-1.216-4.736-2.22zm-6.062.164h.656v.164h-.819c.019-.11.074-.164.163-.164zm-3.678 1.892v.238c1.688-.218 3.132-.328 4.334-.328 0 .06.029.09.089.09v-.328h-.089c-1.688 0-3.133.11-4.334.328zm.163 1.31h-.163v.327c1.102 1.023 1.727 1.674 1.876 1.952.139 0 .934.685 2.383 2.055l.164.074v-.566l-.164.075c-.159 0-.432-.243-.819-.73.387-.278.715-.417.983-.417v-.328c-.606.18-.988.343-1.147.492-.496-.268-.744-.541-.744-.82.178-.158.809-.347 1.891-.565v-.239c-.566 0-1.276.214-2.13.64-.129 0-.432-.213-.908-.64.258-.436 1.271-.794 3.038-1.072v-.238c-.764 0-1.857.298-3.277.893-.367-.139-.585-.327-.655-.566 1.291-.546 2.438-.819 3.441-.819h.074l.417.075v-.402c-.059 0-.089.024-.089.074l-.402-.074c-.477 0-1.733.273-3.769.819zm10.218-.58c.437 0 1.147.302 2.13.908v.238l-.075.581h-.089c-1.361-.437-2.041-.819-2.041-1.147v-.417l.075-.164zm.328 1.474c.635 0 1.32.327 2.055.982 0 .08-.084.16-.253.239-1.202-.268-1.802-.591-1.802-.968v-.253zm-10.709 1.31v.164c0 .298.491.814 1.474 1.55 1.499 1.459 2.483 2.278 2.949 2.457v-.402c-.179 0-1.653-1.257-4.423-3.769zm11.692 1.713l.089.417c0 .894-.68 1.981-2.041 3.262v.417l.894-.581.075.164v.253l-.075.983a1.42 1.42 0 01-.894-.328v.403c.993.317 2.572 1.683 4.737 4.095v-.417c-.765-1.032-1.147-2.532-1.147-4.498 0-1.29.382-2.844 1.147-4.661v-1.222c-1.539.993-2.468 1.51-2.785 1.55v.163zm2.71-1.058v.075c-.874 1.827-1.311 3.465-1.311 4.915v1.057c0 .765.109 1.53.328 2.294h-.164c-.824-.636-1.236-1.589-1.236-2.86 0-1.539.466-3.202 1.4-4.99.377-.327.705-.49.983-.49zm-14.402.731v.09c0 .327.571.898 1.712 1.712.576.576 1.316 1.177 2.22 1.802v.164l-.417.075h-.164c-.328 0-1.42-.79-3.277-2.369h-.074v.328c.228.14 1.017.765 2.368 1.877.169 0 .253.054.253.164v.163c-.387.11-.69.164-.909.164 0-.109-.546-.516-1.638-1.221 0-.05-.025-.075-.074-.075v.313l1.31.909v.074c0 .17-.302.333-.908.492h-.164c0-.219-.079-.328-.238-.328v.909h.074c1.48-.715 2.9-1.073 4.26-1.073h.089v-.73c-1.013-.516-2.487-1.663-4.423-3.44zm12.675.253c-.596 1.698-.894 3.252-.894 4.662v.238l.074.983h-.074c-.546-.178-.819-.451-.819-.819v-.655c0-1.172.273-2.07.819-2.696.288-1.092.476-1.638.566-1.638a.72.72 0 01.328-.075zm-2.935 1.713v.417h.075c.268-.526.511-1.072.729-1.638a.73.73 0 01-.074-.328h-.089c-.159.09-.373.606-.641 1.549zm4.662 2.13c-.06.903-.09 1.583-.09 2.04 0 .219.03.71.09 1.475h.074V16.95h-.074zm-14.402 3.678v.253c2.71 2.274 4.294 4.345 4.751 6.211.536 1.42.804 2.701.804 3.843.904.11 1.45.164 1.638.164 0-.12-.382-.308-1.146-.566-.11-.14-.164-.224-.164-.253.109 0 .164-.055.164-.164.139 0 .933.303 2.383.908.109 0 .163-.054.163-.164-.844-.536-1.802-.918-2.874-1.146l-.075-.581.164-.075c1.539.288 2.795.834 3.768 1.639h.075c.109 0 .164-.055.164-.164-1.38-1.043-2.473-1.564-3.277-1.564-.765-.189-1.147-.432-1.147-.73a.96.96 0 01-.074-.417v-.074l.074-.164c1.768.377 3.272 1.057 4.513 2.04 0 .07.268.288.804.656l.164-.239c-1.559-1.35-3.411-2.279-5.555-2.785-.209-.06-.452-.605-.73-1.638.079-.05.238-.075.477-.075 0-.129-.298-.268-.894-.417l-.402-.566c.049-.218.213-.327.491-.327h.239v-.09c0-.109-.08-.163-.239-.163l-.744.089c-.378-.387-.566-.69-.566-.909v-.238c.665-.169 1.156-.253 1.474-.253v-.238c-.834.05-1.41.158-1.728.327-.288-.109-.531-.328-.729-.655 0-.387.571-.581 1.712-.581h.164c.06 0 .09-.025.09-.074l.163.074h.328v-.328h-.164c-1.082 0-1.956.194-2.621.581-.248-.109-.387-.218-.417-.327v-.254c0-.188.74-.456 2.219-.804.655-.06.983-.144.983-.253v-.164c-.933 0-2.219.353-3.857 1.058-.219-.08-.328-.16-.328-.239v-.164c0-.119.248-.228.745-.327 0-.268.819-.596 2.457-.983.258-.11.586-.164.983-.164v-.238h-.089c-.943 0-2.2.382-3.768 1.146-.378 0-.566.19-.566.566zm.402-1.146l.164.089v-.253c-.11.02-.164.074-.164.163zm9.338.655v.327c.596.12 2.12 1.54 4.573 4.26v.074h.089v-.402c-1.678-2.105-3.207-3.495-4.587-4.17 0-.06-.025-.09-.075-.09zm0 1.221v.328c.477 0 1.946 1.474 4.409 4.423 0-.159.03-.238.089-.238-1.966-2.472-3.356-3.892-4.17-4.26 0-.079-.109-.163-.328-.253zm0 1.564v.328c.268 0 1.604 1.28 4.007 3.843l.163-.328c-2.512-2.562-3.902-3.843-4.17-3.843zm-9.74.82v.327c1.231 1.29 2.239 2.845 3.023 4.662.218.258.437.75.655 1.474l.328.164c-.377-1.45-1.44-3.386-3.187-5.809l-.819-.819zm9.651.654c0 .12-.025.229-.075.328.279.11 1.45 1.226 3.515 3.351.11 0 .164-.054.164-.164-2.214-2.274-3.415-3.445-3.604-3.515zm-.819 1.475v.074c.139 0 1.256 1.008 3.351 3.024l.164.09.164-.254c-2.314-2.065-3.485-3.098-3.515-3.098-.109.01-.164.065-.164.164zm-1.549.566l1.802 1.385 2.368 1.892a.596.596 0 01.238-.09c-1.876-1.767-3.291-2.83-4.244-3.187h-.164zM201.521.089h7.298c2.453 0 4.3.606 5.541 1.817 1.39 1.33 2.085 3.183 2.085 5.556v4.9c0 2.026-.804 3.847-2.413 5.466l3.396 13.345-.328.253h-5.049c-.238 0-.655-1.464-1.251-4.393-.278-.884-.859-3.262-1.743-7.135h-2.561v11.275c0 .09-.085.174-.254.253h-4.721c-.089 0-.174-.084-.253-.253V.343c0-.09.084-.174.253-.254zm.164.67c0-.059-.03-.089-.089-.089v.417h.089c1.44-.387 2.572-.58 3.396-.58v-.09h-1.907c-.893.228-1.39.343-1.489.343zm-.089 2.652v.238c2.581-.824 4.488-1.236 5.719-1.236h.581c1.549 0 3.872.636 6.97 1.907.01.04.288.203.834.491v-.164c0-.466-1.911-1.186-5.734-2.16-.904-.218-1.479-.327-1.728-.327-1.956 0-4.17.417-6.642 1.251zm0 1.236v.328c1.628-.775 3.51-1.162 5.644-1.162 2.939 0 5.675.665 8.207 1.996.109 0 .303.084.581.253 0-.387-.526-.72-1.579-.998a15.159 15.159 0 00-6.627-1.49h-.835c-1.618 0-3.415.358-5.391 1.073zm0 1.579v.164h.089c2.026-.884 3.738-1.326 5.138-1.326 2.026 0 3.327.139 3.903.417 2.373.566 4.14 1.226 5.302 1.98h.074v-.163c-.715-.645-2.149-1.251-4.304-1.817-2.055-.496-3.495-.745-4.319-.745h-.164c-1.43 0-3.058.358-4.885 1.073-.556.169-.834.307-.834.417zm4.9-.745v9.115h2.725c1.39-.258 2.085-1.032 2.085-2.323V7.715c0-1.489-.719-2.234-2.159-2.234h-2.651zm-4.9 2.07v.328c1.161-.546 2.075-.82 2.74-.82h.253c0 .715-.248 1.073-.744 1.073-1.083.437-1.832.715-2.249.834v.402c1.3.914 2.82 2.16 4.557 3.739v-.328c-.437-.338-.655-.646-.655-.924l.655-.163v-.328h-.074c-.606.218-.968.328-1.088.328 0-.03-.163-.224-.491-.581 0-.179.551-.427 1.653-.745v-.238l-2.234.655c-.328-.189-.491-.328-.491-.417v-.164c1.35-.715 2.259-1.072 2.725-1.072v-.253h-.074c-.467 0-1.38.332-2.741.997 0 .11-.139.164-.417.164h-.074c-.556-.327-.834-.605-.834-.834h.089c.953-.605 1.892-.908 2.815-.908h.491c.278 0 .527-.14.745-.417V7.64c-.407.268-.71.402-.908.402-.249-.109-.388-.218-.417-.327 0-.596.441-1.202 1.325-1.817v-.179h-.074c-.07 0-.566.333-1.49.998-1.003.169-2 .447-2.993.834zm9.874-.997v.089c0 .218.219.357.656.417v.075c0 .387-.164.58-.492.58v.254c.01.109.065.163.164.163.318 0 .65-.332.998-.998.179-.109.343-.163.491-.163.556.109.835.387.835.834v.164c0 .178-.169.481-.507.908.387.844.581 1.316.581 1.415v.238c0 .09-.079.174-.238.254h-.179c-.04 0-.204-.303-.492-.909a3.628 3.628 0 00-1.653-.745v.417c1.102.199 1.653.611 1.653 1.237v.163c0 .11-.054.164-.163.164h-.09c-.367-.07-.834-.263-1.4-.58v.923l.417-.09c.685 0 1.152.164 1.4.492h.328v-.402l-.074-.179.253-.164h.238c.487 0 .765.363.834 1.087v.239l-.089.417.342.253h.417l.402-.09v-.655c-.575-.486-.963-.928-1.161-1.325-.268-.1-.402-.268-.402-.507l.163-.074h.075c.725.546 1.167.819 1.326.819v-.328c-1.321-.734-1.981-1.34-1.981-1.817l.163-.09 1.817.999v-.417c-.069 0-.675-.303-1.817-.909v-.09c.05-.366.134-.56.254-.58l1.564.58v-.327c-1.271-.456-1.907-.869-1.907-1.236a1.956 1.956 0 00-.745-.417l-.819.238-1.162-.327zm-9.874 4.72v.343c.377.16 1.623 1.236 3.738 3.232 1.628 1.55 3.232 2.324 4.811 2.324h.327c1.122 0 2.17-.526 3.143-1.579l.089-.417v-.09h-.089c-.973 1.162-1.996 1.743-3.068 1.743h-.402c-.06 0-.09.03-.09.09-1.737 0-4.061-1.52-6.97-4.558l-1.4-1.087h-.089zm10.202.76c0 .08-.054.189-.164.328v.491l.418-.327h.163c.328.248.492.605.492 1.072-.248 0-.69-.055-1.326-.164l-.074.164v.164h.238c.169 0 .502.084.998.253v.164l-.089.417c-.785-.11-1.336-.164-1.654-.164-.099 0-.317.085-.655.253v.075l.581-.075h.164c.069 0 .372.055.908.164h.164v.164c0 .219-.412.382-1.236.492-.586 0-1.058-.194-1.415-.581-.199.06-.477.089-.834.089v.075c.983.506 1.732.76 2.249.76 1.142 0 1.886-.582 2.234-1.744 0-.387.025-.58.074-.58-.178-.993-.59-1.49-1.236-1.49zm3.723.328c.09 0 .174.08.253.238 0 .12-.054.18-.163.18h-.09c-.109 0-.164-.06-.164-.18v-.074c.02-.11.075-.164.164-.164zm-13.925.417v.238c3.564 3.178 5.719 4.811 6.464 4.9v.075l-.402.09h-.09c-1.489 0-3.45-1.162-5.883-3.486h-.089v.253a23.772 23.772 0 004.155 3.232v.075l-1.162.253c-.337 0-1.335-.774-2.993-2.323v.342c.556.636 1.246 1.241 2.07 1.817l.253.328c0 .139-.332.253-.998.343 0-.21-.442-.71-1.325-1.505v.343c.665.744.998 1.156.998 1.236-.139.278-.358.417-.656.417 0-.08-.114-.189-.342-.328v.983c1.866-1.102 3.827-1.653 5.883-1.653h.67c1.976 0 3.992.58 6.047 1.743h.089c-.059-.288-.283-.62-.67-.998a.664.664 0 01-.074-.238c.109-.556.163-.919.163-1.088-.347.248-.958.497-1.832.745 0 .06-.024.09-.074.09-1.132-.338-1.991-.532-2.577-.582v-.089l.164-.238v-.09c-1.241 0-2.259-.357-3.053-1.072-.099 0-1.345-1.052-3.738-3.157-.07 0-.403-.219-.998-.656zm14.178 1.4c-.168.556-.447 1.192-.834 1.907h.09c.278-.457.556-1.063.834-1.817v-.09h-.09zm-2.65 4.394l.089.164v.343c0 .109-.06.164-.179.164-.317-.219-.511-.328-.581-.328 0-.13.224-.244.671-.343zm-3.485 2.487c.039.218.094.328.164.328 1.539 0 3.336.774 5.391 2.323 0-.427-.387-.784-1.162-1.072-1.449-1.053-2.914-1.579-4.393-1.579zm-8.043.164v.343c1.271.297 2.765 1.26 4.483 2.889h.074v-.491l-.908-.581c.02-.18.322-.457.908-.835v-.163a2.685 2.685 0 00-1.162.58h-.163c-.318-.178-.537-.372-.656-.58v-.075c.249-.317.909-.566 1.981-.744v-.254c-.387 0-1.216.248-2.487.745l-2.07-.834zm8.459 1.251v.328c.943 0 2.408.551 4.394 1.653l1.161.924c0-.884-1.658-1.827-4.974-2.83l-.581-.075zm-8.459.909v.253c1.429.417 2.815 1.246 4.155 2.487.199.328.333.492.402.492v-.328c-.675-.785-1.365-1.395-2.07-1.832-1.37-.715-2.199-1.072-2.487-1.072zm8.787.744c0 .288.442.512 1.326.67.804.259 2.075 1.003 3.812 2.235l.581.327v-.074c-.069-.238-1.092-.988-3.068-2.25-.536-.218-1.42-.52-2.651-.908zm-8.787.417v.254c1.439.337 2.959 1.47 4.557 3.395v-.327c-1.34-1.728-2.859-2.835-4.557-3.322zm0 1.162v.328c.804.169 1.688.665 2.651 1.49.437.486 1.072 1.315 1.906 2.486v-.58c-.903-1.728-2.423-2.97-4.557-3.724zm9.204.09c0 .268.387.486 1.162.655a65.19 65.19 0 014.721 3.157v-.09c0-.287-.69-.868-2.07-1.742-1.728-1.062-2.914-1.723-3.56-1.98h-.253zm-9.204.982v.254c1.37.814 2.254 1.643 2.651 2.487.774 1.052 1.191 1.579 1.251 1.579h.253v-.09c-.943-1.39-1.772-2.467-2.487-3.232a8.145 8.145 0 00-1.668-.998zm9.532.343v.075c0 .268.387.516 1.162.744 1.082.586 2.522 1.639 4.319 3.158h.417v-.09c-.169-.05-1.167-.824-2.994-2.323a28.667 28.667 0 00-2.904-1.564zm-9.532 1.4v.328c.288 0 1.117.75 2.487 2.249h.253c-1.4-1.718-2.313-2.577-2.74-2.577zm9.949.09v.238a61.576 61.576 0 013.321 2.249h.328c-.983-.884-2.199-1.713-3.649-2.488zm-9.949 1.325v.328c.069 0 .432.278 1.087.834h.238c0-.09-.412-.477-1.236-1.162h-.089zm10.276.253v.075c0 .307.417.585 1.251.834h.164c-.179-.199-.65-.502-1.415-.909zm8.333-30.1h4.721c.08 0 .164.084.253.253v9.606h.075c2.671-5.262 4.359-8.52 5.064-9.77l.164-.09h5.049c.089 0 .173.085.253.253-.03.19-2.13 4.39-6.3 12.6 4.756 11.607 7.213 17.684 7.372 18.23v.09l-.238.163h-5.555c-.199 0-.616-.938-1.252-2.814-.387-.844-1.573-3.888-3.559-9.13h-.09c-.655 1.3-.983 2.02-.983 2.159v9.532c0 .09-.084.174-.253.253h-4.721c-.09 0-.174-.084-.253-.253V.342c0-.09.084-.174.253-.254V.09zm10.351.327l-.238.417h.074c.109-.218.248-.327.417-.327v-.09h-.253zm.253 1.252c-.318-.09-.566-.204-.745-.343l-.074.179v.074c.884.338 2.125 1.028 3.723 2.07.08 0 .219-.218.418-.655h-.164a.981.981 0 01-.507.164h-.074c-.804-.556-1.276-.834-1.415-.834v-.075c0-.109.332-.302.998-.58l1.653-1.252h-.164c-.099 0-.898.442-2.398 1.326-.208.11-.432.164-.67.164h-.074v-.075c.039-.198.506-.67 1.4-1.415h-.328c-.814.596-1.341 1.013-1.579 1.252zm-10.53.238v.253a7.501 7.501 0 011.832-.253h.581c.566 0 1.281.084 2.145.253v-.164c-1.033-.219-1.638-.328-1.817-.328-.914.05-1.827.13-2.741.239zm0 1.25v.254a17.65 17.65 0 011.415-.09h.075c1.092 0 2.115.055 3.068.165v-.239c-.536-.119-1.281-.178-2.234-.178h-1.326l-.998.089zm8.713.165v.253c.298 0 1.539.715 3.723 2.145h.09v-.328c-1.549-1.102-2.82-1.792-3.813-2.07zm-8.713 1.072v.343c.239-.11.681-.164 1.326-.164h.998c.655 0 1.4.109 2.234.327v-.327c-1.072-.229-1.926-.343-2.562-.343h-.164c-.744 0-1.355.055-1.832.164zm8.207-.075c0 .05-.025.134-.075.253.636 0 1.931.66 3.887 1.981h.09a.8.8 0 01.074-.253c-1.976-1.32-3.301-1.98-3.976-1.98zm-8.207 1.326v.253c.586-.447 1.197-.67 1.832-.67h.239c1.012 0 1.817.526 2.412 1.578h.075v-.908c-.219 0-.546-.194-.983-.581a3.911 3.911 0 00-1.743-.417c-.655 0-1.266.248-1.832.745zm7.715-.254l-.089.164c0 .1.333.239.998.417.923.407 1.892.963 2.904 1.668l.09-.178v-.075c-2.046-1.33-3.347-1.996-3.903-1.996zm-1.072 2.16c.05 0 .298-.333.745-.998l.402-.074c.556.109.834.382.834.819v.164c0 .178-.164.486-.492.923.388.834.581 1.3.581 1.4v.253c0 .08-.084.164-.253.253h-.164c-.039 0-.208-.307-.506-.923-.497-.437-1.102-.655-1.817-.655a.59.59 0 00-.09.253c1.271.258 1.907.7 1.907 1.325v.164c0 .11-.055.164-.164.164h-.074c-.288 0-.978-.332-2.071-.998l-.089.417c.496.11.745.248.745.417l-.328.239h-.67l-.164-.075-.075.164v.09c.159 0 .239.054.239.163v.164c-.139.278-.248.417-.328.417h-1.325c-.755 0-1.693.194-2.815.58-.209 0-.403-.193-.581-.58h-.09v.491c.308.2 1.276 1.003 2.905 2.413.943.546 1.717.82 2.323.82 1.142 0 1.887-.581 2.234-1.743 0-.387.03-.58.09-.58-.179-.994-.596-1.49-1.251-1.49 0 .208-.194.456-.581.744h-.164c-.08 0-.189-.193-.328-.58.258-.547.755-.82 1.49-.82.556 0 .973.164 1.251.492h.327v-.417l-.089-.164.253-.164h.253c.546.12.819.397.819.834h.09c.01-.228.064-.342.164-.342-.149-.338-.397-.64-.745-.909v-.164l.164-.089h.089l.656.506h.163c0-.06.03-.144.09-.253-1.053-.625-1.579-1.152-1.579-1.579l.164-.074c1.052.606 1.663.908 1.832.908 0-.06.025-.144.074-.253l-1.906-.998v-.074c.059-.377.144-.571.253-.581.318.01 1.008.313 2.07.909v-.328c-.109-.11-.829-.467-2.159-1.072-.288-.616-.616-.924-.983-.924-.626 0-1.068.472-1.326 1.415zm-6.643-.09v.343h.09c.635-.446 1.047-.67 1.236-.67 1.827 0 2.74.194 2.74.581v.09c-.079 0-.188.109-.327.327a.656.656 0 01-.343-.09c-1.31.06-2.442.2-3.396.418v.253h.09l2.07-.417c.566.07.899.154.998.253-.129.497-.377.745-.745.745-1.052.109-1.857.273-2.413.491v.343c1.093-.387 1.813-.581 2.16-.581.496 0 .745.248.745.745-.209 0-1.177.248-2.905.744v.328c1.48-.496 2.448-.745 2.905-.745 1.052.11 1.603.194 1.653.254v-.343a2.664 2.664 0 00-.581-.074v-.09c.387-.278.581-.442.581-.491v-.909c-.219.08-.328.273-.328.581h.09c-.13.387-.462.58-.998.58l-.254-.342c.09-.576.313-1.017.671-1.325.546-.368.819-.586.819-.656v-.417c-.109 0-.382-.248-.819-.744-.487-.278-1.122-.417-1.907-.417-.725.218-1.087.466-1.087.744-.298.328-.546.492-.745.492zm1.907-.907c.883.04 1.325.149 1.325.327-.049 0-.074.03-.074.09l-1.668-.164v-.164l.417-.09zm1.415 5.302c1.271 0 1.906.248 1.906.745.05 0 .134.03.253.089.497-.219.854-.437 1.073-.655h.164c.337.248.506.605.506 1.072-.943-.11-1.584-.164-1.921-.164h-.328c-1.162 0-2.1.164-2.815.492-.278-.11-.611-.388-.998-.835v-.238c.924-.337 1.643-.506 2.16-.506zm1.817 1.325c.655 0 1.291.114 1.906.343v.164l-.074.416c-.775-.109-1.271-.163-1.49-.163-.337 0-1.112.08-2.323.238a.956.956 0 01-.507-.417c0-.387.83-.58 2.488-.58zm-5.139.998v.253c1.5 1.49 3.049 2.235 4.647 2.235h.328c1.122 0 2.175-.527 3.157-1.58l.075-.401v-.09h-.075c-.983 1.162-2.005 1.743-3.068 1.743h-.417c-.059 0-.089.03-.089.09-1.251 0-2.77-.75-4.558-2.25zm5.556 0c.357.11.605.164.744.164h.164v.179c0 .218-.412.382-1.236.491-.586 0-1.057-.193-1.415-.58a6.606 6.606 0 011.743-.254zm4.066.998c-.765 1.827-1.758 2.74-2.979 2.74 0 .05-.114.13-.342.239-1.132-.328-1.986-.522-2.562-.581V17.5l.164-.253v-.074c-1.301 0-2.354-.388-3.158-1.162l-.745-.506v.416c1.162.805 2.021 1.301 2.577 1.49v.09l-.417.074h-.089c-.705 0-1.395-.194-2.071-.581v.342l.254.328h-.254v.417c.705-.11 1.371-.164 1.996-.164h.656c2.323 0 4.701.8 7.134 2.398 0 .1.61.68 1.832 1.743l1.564 1.579c-.08-.288-.412-.87-.998-1.743 0-.04-.249-.923-.745-2.651h-.074v.238l.253 1.832h-.09c-.446 0-.749-.526-.908-1.579-.169-.357-.253-.8-.253-1.325v-1.415c0-.05.029-.075.089-.075-.119-.218-.179-.382-.179-.491h-.164c-.049.824-.074 1.43-.074 1.817v.09a.63.63 0 01-.089.327c.059.11.198.66.417 1.653h-.164c-.775-.417-1.162-1.246-1.162-2.487v-.492c0-.407.278-1.017.834-1.832a.582.582 0 01-.089-.327h-.164zm-1.072 2.234h.164v.253c0 .646.054 1.087.163 1.326a.6.6 0 00-.089.253h-.238l-.507-.834c0-.496.169-.83.507-.998zm-.924.67l.09.164v.328c0 .11-.055.164-.164.164-.318-.219-.512-.328-.581-.328 0-.12.218-.228.655-.328zm-7.626 2.815v.253c1.718-.169 2.686-.253 2.905-.253h1.832c.109 0 .163-.055.163-.164v-.164h-.744c-1.291 0-2.676.11-4.156.328zm7.045.492c0 .159.502.491 1.505.998 1.678 1.132 2.834 2.045 3.47 2.74 1.112 1.172 2.11 2.14 2.994 2.905 0-.239-.969-1.316-2.905-3.232-1.261-1.202-2.368-2.06-3.321-2.577-1.003-.606-1.584-.909-1.743-.909v.075zm-7.045.67v.417c0-.208.859-.377 2.577-.506l1.981.342v-.342l-2.07-.239h-.328c-.556 0-1.276.11-2.16.328zm7.626.834c0 .298.363.601 1.088.909.685.328 2.397 1.902 5.138 4.721.079 0 .576.388 1.489 1.162l.417.253v-.09c0-.188-.58-.739-1.742-1.652-3.148-3.237-5.278-5.005-6.39-5.303zm-7.626.238v.254c2.383 2.224 3.575 3.604 3.575 4.14.606.844.908 1.48.908 1.906h.075v-.744c-.119-.15-.253-.422-.402-.82.109 0 .164-.054.164-.163l.163.074h.075v-.164c-.636-.387-.993-.665-1.073-.834l-.089-.491h.417l.164-.09c0 .11.194.224.581.343v-.343c-.953 0-1.783-.412-2.487-1.236.059-.168.119-.253.178-.253.646 0 1.415.194 2.309.581v-.328a20.847 20.847 0 00-3.232-.744l-.417-.417v-.254l.834-.074h.089c.914 0 1.822.11 2.726.328v-.254c-1.539-.278-2.448-.417-2.726-.417-.625.06-1.013.144-1.161.254-.378-.17-.601-.254-.671-.254zm0 1.996v.164c1.768 2.542 2.9 4.478 3.396 5.809h.253v-.09c-1.37-3.078-2.532-5.009-3.485-5.793l-.164-.09zm8.624.164v.164c0 .179.61.62 1.832 1.326.337 0 1.936 1.44 4.796 4.319h.417c-2.642-2.72-4.409-4.27-5.303-4.647-.347-.288-.928-.675-1.742-1.162zm-8.624 1.326v.09c0 .188.497.903 1.49 2.144 0 .188.332.938.998 2.249h.342c-.318-1.271-1.261-2.765-2.83-4.483zm9.458.908c0 .318.412.705 1.236 1.162l2.577 2.413h.417v-.09c-.129 0-1.182-.938-3.158-2.814l-1.072-.67zm-9.458.507v.58l1.579 2.488h.253c-.337-.606-.506-1.023-.506-1.251-.08 0-.492-.606-1.236-1.817h-.09zm10.277 1.579v.074c.02.208.467.68 1.34 1.415h.403c-.338-.427-.919-.924-1.743-1.49zm-10.277.655v.164c.07.417.184.64.343.67h.238v-.09c-.288-.486-.481-.734-.581-.744zM240.155.06h13.196c.089 0 .174.084.253.253v4.81c0 .08-.084.164-.253.254h-8.296v7.715h5.719c.387 0 .581.193.581.58v4.394c0 .08-.109.189-.328.328h-5.972v7.715h7.968c.308 0 .501.114.581.342v4.722c0 .09-.085.174-.253.253H240.08c-.089 0-.173-.084-.253-.253V.387c0-.08.109-.188.328-.327zm0 .417l-.001.074c.527.209 1.108 1.177 1.743 2.905l-.491.506h-.254c-.258-.814-.59-1.45-.997-1.907v.239c.496 1.152.744 1.847.744 2.085v.074c-.109.249-.218.388-.327.417h-.075c-.139 0-.223-.109-.253-.327h-.089v1.653h.089c.695-.159 1.301-.238 1.817-.238h.253c.377 0 1.182.134 2.413.402v-.238h-.164v-.09l.164-.253v-.328h-.089c-.388.268-.581.437-.581.507-1.529-.229-2.413-.343-2.651-.343a6.14 6.14 0 01-.909.09c.219-.805 1.241-1.857 3.068-3.158a12.754 12.754 0 013.396-1.996V.477h-.834c0 .278-.248.417-.745.417-.139-.278-.248-.417-.327-.417h-.254V.55l.254.507c0 .178-.249.342-.745.491-.387-.675-.636-1.033-.745-1.072h-.164V.55c.388.705.606 1.068.656 1.087 0 .17-.219.388-.656.656h-.089L242.15.477h-.164V.55c.308.387.641 1.028.998 1.922-.059.218-.337.466-.834.744-.427-1.201-.978-2.115-1.653-2.74h-.342zm3.068 5.064v.074c.198 0 .809-.412 1.831-1.236 3.545-2.105 6.286-3.157 8.222-3.157V.968h-.09c-1.966 0-4.815 1.137-8.549 3.411-.893.646-1.365 1.033-1.414 1.162zm2.159-.506h.507c2.412-1.48 4.791-2.309 7.134-2.488h.253v-.253c-1.827.12-3.823.645-5.987 1.579-1.271.735-1.907 1.122-1.907 1.162zm2.666-.075v.074h.328c.913-.397 2.547-.784 4.9-1.161v-.328c-2.443.447-4.185.918-5.228 1.415zm4.558 0v.074h.67v-.327h-.089c-.278.168-.472.253-.581.253zm-12.452 3.142v.254c.557-.05.974-.075 1.252-.075.714 0 1.822.134 3.321.402v-.327c-1.122-.278-2.12-.417-2.994-.417-.278 0-.804.054-1.579.163zm0 1.252v.327a27.83 27.83 0 011.669-.074h.417c.744 0 1.574.164 2.487.492v-.254c-1.202-.387-2.309-.58-3.321-.58-.139 0-.556.03-1.252.089zm0 .67v.238c2.989 2.92 4.484 4.831 4.484 5.735.536 1.38.839 2.07.908 2.07h.343a1.415 1.415 0 01-.164-.67v-.164h.074c.268 0 .765.278 1.49.834h.342v-.09c-1.33-.933-2.105-1.4-2.323-1.4-.278-.724-.417-1.166-.417-1.325.119 0 .725.387 1.817 1.162.576.218 1.271.77 2.085 1.653h.328v-.09c-.398-.566-1.559-1.45-3.486-2.65-.764-.487-1.29-.874-1.578-1.162-.219-.398-.328-.616-.328-.656.05 0 .074-.03.074-.09 1.043.319 2.344 1.009 3.903 2.071 1.658 1.261 2.487 2.12 2.487 2.577h.76v-.253c-.447 0-.671-.164-.671-.492-1.231-1.251-2.338-2.11-3.321-2.577-.606-.595-1.906-1.23-3.902-1.906l-.328-.417v-.253c.328 0 .993.193 1.996.58v-.327c-1.082-.387-1.857-.58-2.324-.58h-.342c0-.08-.164-.329-.492-.746v-.089c.358-.11.606-.164.745-.164.357 0 1.162.169 2.413.507v-.164c0-.169-.665-.363-1.996-.581-.258-.06-.616-.09-1.072-.09h-.581c-.248 0-.556-.163-.924-.49zm0 2.726v.416c.616.447 1.281 1.197 1.996 2.25a12.329 12.329 0 012.071 3.485c.059 0 .089.109.089.327v.164c0 .11-.055.164-.164.164-.139 0-.387-.467-.745-1.4-.705-1.35-1.787-2.68-3.247-3.992v.328c1.688 1.708 2.602 2.93 2.741 3.664.447.586.67 1.082.67 1.49-.059.168-.228.253-.506.253h-.075c-.089 0-.228-.363-.417-1.088-.873-1.3-1.678-2.293-2.413-2.979v.328c1.55 1.797 2.324 3.098 2.324 3.902-.228.16-.447.239-.655.239-.626-1.281-1.152-2.22-1.579-2.815h-.089v.253c0 .12.387.864 1.161 2.234v.417c-.079.218-.273.328-.581.328-.317-.775-.511-1.162-.581-1.162v.164c0 .189.055.576.164 1.162-.109.02-.164.079-.164.178v.239c1.897-.775 3.143-1.162 3.739-1.162l-.09.834c.06.328.144.491.254.491.109 0 .332-.079.67-.238v-.342h-.417c-.109 0-.164-.055-.164-.164v-.075c0-.268.194-.655.581-1.161v-.343c-.298-.784-.933-1.946-1.907-3.485-1.082-1.55-1.97-2.517-2.666-2.905zm6.152.759l2.979 1.906c.149.219.705.66 1.668 1.326v-.164c-2.075-1.867-3.515-2.89-4.32-3.068h-.327zm2.323 0l2.324 1.906v-.417c-.1 0-.74-.496-1.922-1.489h-.402zm1.743 0c0 .07.193.233.581.492v-.254c0-.08-.085-.159-.254-.238h-.327zm-10.218 10.038v.164c0 .17.03.254.09.254l-.09.402v.834h.09c.188 0 .437-.025.745-.075.446 0 .724.387.834 1.162v.074c0 .606-.556 1.078-1.668 1.415v.417c.585 0 1.221-.471 1.906-1.415v-.744c0-.834-.551-1.251-1.653-1.251v-.164c.218-.775.521-1.162.908-1.162 0-.119.333-.228.998-.327h.507c.317.178.536.372.655.58v.417c-.169.209-.253.402-.253.581.387.16.581.407.581.745v.164c0 .08-.08.164-.239.253 0 .149.139.288.417.417 0-.199.249-.561.745-1.087v-.417c-.248.228-.442.342-.581.342-.278-.377-.417-.655-.417-.834 0-.04.025-.208.075-.506 0-.189-.303-.546-.909-1.073 0-.238.611-.402 1.832-.491v-.253h-.253c-.924 0-2.334.526-4.23 1.578h-.09zm5.064 2.98c-.327.903-.491 1.514-.491 1.831 0 .805.606 1.3 1.817 1.49h.164c1.122 0 1.842-.551 2.159-1.654v-.09c-.01-.098-.149-.317-.417-.654.119-.348.258-.542.417-.581h.254c.288 0 .59.248.908.744 0 .12-.109.368-.328.745.169.318.254.596.254.834 0 .844-.805 1.395-2.413 1.654l-2.398-.328c-.487 0-.958.193-1.415.58h.074c.07 0 .378-.054.924-.163h.745c1.241.109 1.906.164 1.995.164h.328c1.599-.199 2.398-.894 2.398-2.085 0-.467.03-.964.089-1.49-.308-.665-.725-.998-1.251-.998-.516 0-.819.387-.908 1.162.069 0 .208.169.417.506v.075c0 .655-.636 1.072-1.907 1.25-1.052 0-1.578-.416-1.578-1.25 0-.507.163-1.087.491-1.743h-.328zm6.718 0c.824 1.538 1.271 2.313 1.34 2.323v-.581c-.635-1.142-.998-1.723-1.087-1.743h-.253zm-11.528 4.482v.09h.327c.904-.755 1.599-1.505 2.086-2.25v-.163h-.09c-1.4 1.549-2.174 2.323-2.323 2.323zm1.489.09h.343c.496-.407.744-.77.744-1.088h-.089c-.05 0-.382.363-.998 1.088zM257.528.089h4.23c.129 0 .327.561.595 1.683-1.767.507-3.261 1.073-4.483 1.698v.253h-.089l-.328-1.191 3.456-1.34c.705-.06 1.072-.09 1.102-.09V.76h-.09c-.724 0-2.075.451-4.051 1.355-.278.07-.417.208-.417.417h-.089c-.338-1.112-.507-1.728-.507-1.847V.506a.7.7 0 01.671-.417zm11.155 0h4.23c.09 0 .397.114.924.343 0-.06.029-.09.089-.09v.09c-.397 1.042-.65 1.802-.76 2.279h-.089c0-.229-1.043-.765-3.128-1.609-.734-.228-1.186-.342-1.355-.342 0 .06-.025.089-.074.089v-.09c.109-.357.163-.58.163-.67zm5.064 0H274v.254h-.074c0-.11-.06-.164-.179-.164v-.09zm-5.317.76h.09c0 .179.561.377 1.683.596l2.785 1.43V2.71h.089v.074c-.169.526-.253.84-.253.938h-.09c0-.238-.789-.774-2.368-1.608-.278-.169-.953-.338-2.025-.507 0 .06-.025.09-.075.09v-.09c.109-.367.164-.62.164-.76zm-.253.85l.089-.001c0 .169.422.338 1.266.507.447 0 1.49.56 3.128 1.683v-.164h.074l.001.164c-.229.466-.343.804-.343 1.012h-.074c0-.347-.79-.878-2.369-1.593a6.866 6.866 0 00-1.936-.596c0 .05-.03.075-.089.075V2.71c.169-.546.253-.884.253-1.013zm-5.824.073h.075v.253h-.075v-.253zm.164.253c0 .15.055.403.164.76v.09h-.075V2.71a12.615 12.615 0 00-3.38 1.102c-.676.486-1.013.794-1.013.923h-.09c-.168-.615-.253-.953-.253-1.013l.164.09c.993-.656 2.487-1.251 4.483-1.788zm5.318.76h.089c0 .229.223.343.67.343 1.132.268 2.344.918 3.634 1.95V4.9h.09v.09c-.288.774-.432 1.226-.432 1.355h-.075c0-.298-.228-.527-.685-.686-1.688-.893-2.894-1.34-3.619-1.34v.075h-.089v-.075c.278-.874.417-1.385.417-1.534zm-5.154.09h.089c0 .169.085.506.253 1.013v.09h-.089v-.165c-1.529.219-2.795.61-3.798 1.177 0 .06-.03.09-.089.09h-.075c-.089 0-.203-.115-.342-.343.169-.447 1.519-1.038 4.051-1.773v-.09zm.342 1.102h.09l.253 1.102h-.089c-.546 0-1.673.278-3.381.834-.229-.1-.343-.293-.343-.58 0-.299.68-.611 2.041-.94.953-.128 1.429-.267 1.429-.416zm4.304.417c2.354.834 3.848 1.51 4.484 2.026-.12.357-.179.585-.179.685-1.083-.566-2.602-1.132-4.558-1.698.169-.507.253-.844.253-1.013zm-9.114.342h.074V4.9h-.074v-.164zm.074.164c.189.02 1.231.978 3.128 2.875.288.139.432.362.432.67-.794.397-1.331.626-1.609.685 0-.07-.198-.183-.595-.342 0 .06-.03.089-.09.089L258.287 4.9zm5.079.179h.075v.253h-.075v-.253zm.164.253l.253 1.087c-.059 0-.089-.025-.089-.074-.983.169-1.852.422-2.607.76-.457-.457-.685-.77-.685-.939h.089c.507-.338 1.52-.616 3.039-.834zm3.47.164h.075c0 .199.337.338 1.013.417 1.032.407 2.159.889 3.381 1.445-.169.516-.254.824-.254.923h-.089c0-.347-.278-.6-.834-.76-1.47-.734-2.626-1.102-3.47-1.102v.18h-.075v-.09c.169-.507.253-.844.253-1.013zm-3.217.923h.089l.417 1.609a.59.59 0 00-.253-.09c-.248 0-.869.085-1.861.254a5.699 5.699 0 01-.581-.76c0-.208.729-.486 2.189-.834V6.42zm2.964.254c1.529.218 2.989.784 4.379 1.698-.169.516-.253.824-.253.923h-.075c0-.228-.253-.397-.759-.506-1.44-.398-2.681-.68-3.724-.85v-.074c.209-.794.353-1.191.432-1.191zm4.721.431h.09v.253h-.089l-.001-.253zm-5.242.834h.089v.343c.337 0 .904.114 1.698.343v.163c-.129 0-.695.338-1.698 1.013-.318 0-.516.03-.596.09V9.8c.338-1.072.507-1.693.507-1.862zm-1.937.09h.09c0 .139.169.76.506 1.861v.09h-.089c0-.12-.03-.179-.089-.179-1.401.169-2.776.705-4.126 1.609a.682.682 0 01.074.253v.09h-.074l-.685-2.116v-.09h.089c0 .12.03.18.089.18 1.053-.626 1.728-.939 2.026-.939.099.06.209.09.328.09 0-.268.62-.522 1.861-.76v-.089zm-4.646.85h.089v.252h-.089v-.253zm9.636.073c.476.169.953.313 1.43.432 0-.06.03-.089.089-.089v.089c-.228.576-.342.943-.342 1.102-.179-.119-.348-.179-.507-.179h-.417c-1.102 0-1.807.338-2.115 1.013v.343c.278.337.417.56.417.67-.169.397-.422.596-.759.596h-.164c-.507-.378-.76-.83-.76-1.356v-.327c0-1.172 1.013-1.936 3.039-2.294h.089zm-9.547.18h.074v.163h-.074V9.13zm.074.253h.09v.163h-.09v-.163zm5.839.506h.074c0 .079.114.194.343.342v.254c-.06.168-.229.253-.507.253h-.089v-.09c.119-.367.179-.62.179-.76zm-.685.09c0 .088.084.396.253.923v.089h-.075c0-.12-.029-.179-.089-.179-2.264.765-3.584 1.47-3.962 2.115v.09h-.089l-.343-1.267c1.341-.993 2.751-1.558 4.23-1.697 0-.05.025-.075.075-.075zm5.332.505h.074v.254h-.074v-.254zm-1.356.164h.09c.278 0 .7.03 1.266.09l-.596 1.936h-.089c0-.209-.616-.546-1.847-1.013v-.253c.288-.506.68-.76 1.176-.76zm-3.545.09h.075c0 .119.114.258.342.417 0 .238.03.546.09.923-.129.12-.551.233-1.266.343-1.619 1.151-2.522 1.881-2.711 2.189-.109.149-.164.263-.164.343h-.089c0-.1-.193-.745-.581-1.937.05 0 .074.025.074.075 1.569-1.132 2.979-1.832 4.23-2.1v-.253zm2.875 1.43c.239.01.66.208 1.266.595 0-.06.025-.089.075-.089v.164c-.219.466-.328.804-.328 1.012h-.089c0-.307-.422-.56-1.266-.76v-.252c.069-.417.183-.64.342-.67zm-2.368.253c.278.079.417.248.417.506l-1.937.76c-1.469 1.112-2.204 1.93-2.204 2.457h-.074c0-.149-.114-.516-.343-1.102v-.09h.089v.164c1.5-1.588 2.681-2.432 3.545-2.532 0-.109.169-.163.507-.163zm.923.848h.343c.546 0 1.191.224 1.936.67 0-.059.03-.089.09-.089l-.001.09c-.228.695-.342 1.087-.342 1.176h-.075c-.149-.457-.769-.735-1.861-.834-1.083 0-2.239.59-3.471 1.772-.387 1.262-.581 1.937-.581 2.026h-.089l-.596-1.936.179.074c1.43-1.966 2.919-2.949 4.468-2.949zm-.163 1.267h.089c.646 0 1.291.223 1.937.67 0-.06.029-.09.089-.09v.09c-.288.735-.432 1.187-.432 1.355h-.074c0-.436-.422-.72-1.266-.849h-.09c-1.549 0-2.477.989-2.785 2.964 0 .308.055.73.164 1.266-.159.17-.442.254-.849.254-.169-.626-.253-1.162-.253-1.609 0-1.896.844-3.138 2.532-3.723.456-.219.769-.328.938-.328zm.089 1.43c.785.07 1.177.322 1.177.76a.59.59 0 00.253.089c-.169.516-.253.824-.253.923h-.09c-.238-.506-.546-.76-.923-.76h-.417c-.725 0-1.206.507-1.445 1.52v.506c0 .12.055.402.164.85l-.164.088h-.253c-.179 0-.293-.367-.342-1.102 0-1.44.705-2.398 2.114-2.874h.179zm1.43.595h.09l-.001.253h-.089v-.253zm-1.609.67h.089c.675.1 1.013.328 1.013.686h.089v-.179h.075v.09c-.109.367-.164.62-.164.759v12.839h-4.811V18.08h.075c0 1.083.059 1.813.179 2.19v.343l-.179.253v.417c.635-.675 1.226-1.013 1.772-1.013.824 0 1.614.506 2.368 1.52.119 0 .288.113.507.342v-.506c-.219 0-.328-.085-.328-.254 0-.03.109-.169.328-.417v-.432c-.368.12-.621.179-.76.179l-.417-.09v-.163c.506-.387.76-.81.76-1.266v-.09c0-.506-.254-.76-.76-.76-.457.08-.685.279-.685.597.06.109.089.193.089.253h.254c0-.258.144-.427.431-.507.249.11.388.219.417.328 0 .675-.253 1.013-.759 1.013h-.253c-.288 0-.457-.422-.507-1.266 0-.616.224-1.092.671-1.43l.506-.09zm-3.291 5.154c0 .07.283.353.849.85v.252c-.229.338-.512.507-.849.507l-.343-.09v.343h.685c.705.278 1.405.501 2.1.67l.179.76v.178l-.089.164c-.616 0-1.574-.283-2.875-.849v.253c.795.398 1.723.68 2.785.85 1.241-.06 1.862-.2 1.862-.418v-.938h-.074c-.12 0-.234.283-.343.849l-.164.09h-.253c-.457 0-.685-.229-.685-.686v-.074c.337-1.013.819-1.52 1.445-1.52l.074-.178v-.328c-.209.169-.402.253-.581.253h-.432c-.883 0-1.698-.422-2.442-1.266v-.089l.581-.179c.357 0 .839.229 1.444.685.904.06 1.356.199 1.356.417h.074v-.417c0-.168-.536-.307-1.609-.417-.278-.397-.7-.595-1.266-.595-.615 0-1.092.307-1.429.923zm1.176.506c.119 0 .487.17 1.102.507.507.119.76.233.76.342 0 .278-.223.532-.67.76-.477 0-.958-.139-1.445-.417.169-.467.253-.864.253-1.192zm-1.519 3.545v.342c.487.229 1.306.398 2.458.507 1.042 0 1.772-.199 2.189-.596v-.253c-.784.337-1.405.506-1.862.506h-.163c-.606 0-1.48-.169-2.622-.506zm0 .938v.417c1.073.338 1.777.507 2.115.507h.417c1.41-.13 2.115-.268 2.115-.417v-.18c-1.082.17-1.872.254-2.368.254-.387 0-1.147-.194-2.279-.58zm0 1.355v.418a6.483 6.483 0 001.773.253h.685c.615 0 1.345-.085 2.189-.253v-.254c-.824.11-1.445.164-1.862.164h-1.087c-.338 0-.903-.109-1.698-.328zm1.951 2.443h-.506c-.298 0-.78-.03-1.445-.09v.254h3.128c.407 0 .913-.084 1.519-.253v-.328a9.332 9.332 0 01-2.696.417z" fill="url(#paint0_linear_307_1918)"/><path d="M43.84 46.051v-6.787h.848v6.787c0 .546.424.97.97.97h.182v.727h-.182c-1.09 0-1.818-.727-1.818-1.697zm7.625-4.484v6.181h-.848v-6.181h.848zm0-2.303v1.454h-.848v-1.454h.848zm5.504 8.484V40.84c0-.97.727-1.697 1.818-1.697h1.758v.485l-.243.242h-1.515a.957.957 0 00-.97.97v1.454h2v.727h-2v4.727h-.848zm12.474 0h-2.91c-1.15 0-1.817-.727-1.817-1.697v-2.909c0-.97.727-1.696 1.818-1.696h1.333c1.09 0 1.818.727 1.818 1.697v1.878h-4.121v1.03c0 .546.424.97.97.97h2.909v.727zm-3.879-4.605v1.151h3.273v-1.151a.957.957 0 00-.97-.97h-1.333a.957.957 0 00-.97.97zm20.22-.849h-2.546a.957.957 0 00-.97.97v2.787c0 .546.425.97.97.97h2.788v.727H83.24c-1.152 0-1.819-.727-1.819-1.697v-2.787c0-.97.728-1.697 1.819-1.697h2.787v.485l-.242.242zm5.14-3.03h.849v2.303h2.484c1.091 0 1.819.727 1.819 1.697v4.484h-.849v-4.484a.957.957 0 00-.97-.97h-2.484v5.454h-.849v-8.484zm15.14 8.484h-.545l-.121-.848h-.061s-.485.97-1.515.97h-.97c-1.151 0-1.818-.728-1.818-1.697v-.364c0-.97.727-1.697 1.818-1.697h2.364v-.848a.957.957 0 00-.97-.97h-2.666v-.727h2.666c1.091 0 1.818.727 1.818 1.697v4.484zm-3.212-.606h.97c.909 0 1.394-1.09 1.394-1.09v-1.213h-2.364a.957.957 0 00-.969.97v.364c0 .545.424.97.969.97zm13.867.606h-.848v-4.605a.957.957 0 00-.97-.97h-1.09c-.909 0-1.394 1.09-1.394 1.09v4.485h-.849v-6.181h.546l.121.848h.061s.484-.97 1.515-.97h1.09c1.091 0 1.818.728 1.818 1.697v4.606zm5.262-4.181v-.425c0-.97.727-1.696 1.818-1.696h1.394l.727-1.091h.788v.364l-.788.848v.073s.97.29.97 1.502v.425c0 .97-.727 1.697-1.818 1.697h-1.758c-.242 0-.363.12-.363.363v.182c0 .242.121.364.363.364h2.122c1.09 0 1.818.727 1.818 1.697v.242c0 .97-.728 1.697-1.818 1.697h-2.061c-1.151 0-1.818-.727-1.818-1.697v-.242c0-1.152 1.03-1.382 1.03-1.382v-.06s-.424-.134-.424-.619v-.194c0-.594.485-.715.485-.715v-.06s-.667-.304-.667-1.273zm.424 4.303v.242c0 .545.425.97.97.97h2.061a.957.957 0 00.969-.97v-.242a.957.957 0 00-.969-.97h-2.061a.958.958 0 00-.97.97zm.425-4.727v.424c0 .545.424.97.969.97h1.273c.545 0 .97-.425.97-.97v-.425a.958.958 0 00-.97-.97h-1.273a.957.957 0 00-.969.97zm10.11-1.576v6.181h-.849v-6.181h.849zm0-2.303v1.454h-.849v-1.454h.849zm10.655 8.484h-.849v-4.605a.957.957 0 00-.969-.97h-1.091c-.909 0-1.394 1.09-1.394 1.09v4.485h-.848v-6.181h.545l.121.848h.061s.485-.97 1.515-.97h1.091c1.091 0 1.818.728 1.818 1.697v4.606zm5.262-4.181v-.425c0-.97.727-1.696 1.818-1.696h1.393l.728-1.091h.788v.364l-.788.848v.073s.969.29.969 1.502v.425c0 .97-.727 1.697-1.818 1.697h-1.757c-.243 0-.364.12-.364.363v.182c0 .242.121.364.364.364h2.121c1.091 0 1.818.727 1.818 1.697v.242c0 .97-.727 1.697-1.818 1.697h-2.061c-1.151 0-1.818-.727-1.818-1.697v-.242c0-1.152 1.031-1.382 1.031-1.382v-.06s-.425-.134-.425-.619v-.194c0-.594.485-.715.485-.715v-.06s-.666-.304-.666-1.273zm.424 4.303v.242c0 .545.424.97.969.97h2.061c.545 0 .97-.425.97-.97v-.242a.958.958 0 00-.97-.97h-2.061a.957.957 0 00-.969.97zm.424-4.727v.424c0 .545.424.97.97.97h1.272c.546 0 .97-.425.97-.97v-.425a.957.957 0 00-.97-.97h-1.272a.957.957 0 00-.97.97zm15.493.424v-.425c0-.97.727-1.696 1.818-1.696h1.394l.727-1.091h.788v.364l-.788.848v.073s.97.29.97 1.502v.425c0 .97-.728 1.697-1.818 1.697h-1.758c-.242 0-.364.12-.364.363v.182c0 .242.122.364.364.364h2.121c1.091 0 1.818.727 1.818 1.697v.242c0 .97-.727 1.697-1.818 1.697h-2.06c-1.152 0-1.818-.727-1.818-1.697v-.242c0-1.152 1.03-1.382 1.03-1.382v-.06s-.424-.134-.424-.619v-.194c0-.594.484-.715.484-.715v-.06s-.666-.304-.666-1.273zm.424 4.303v.242c0 .545.424.97.97.97h2.06c.546 0 .97-.425.97-.97v-.242a.957.957 0 00-.97-.97h-2.06a.957.957 0 00-.97.97zm.424-4.727v.424c0 .545.424.97.97.97h1.273a.957.957 0 00.969-.97v-.425a.957.957 0 00-.969-.97h-1.273a.957.957 0 00-.97.97zm13.867 4.605h-2.908c-1.152 0-1.818-.727-1.818-1.697v-2.909c0-.97.727-1.696 1.818-1.696h1.333c1.091 0 1.818.727 1.818 1.697v1.878h-4.121v1.03c0 .546.424.97.97.97h2.908v.727zm-3.878-4.605v1.151h3.272v-1.151a.957.957 0 00-.969-.97h-1.333a.957.957 0 00-.97.97zm8.777-.849v-.727h.969l.364-1.818h.485v1.818h1.757v.727h-1.757v3.757c0 .546.424.97.969.97h1.152v.727h-1.152c-1.091 0-1.818-.727-1.818-1.697v-3.757h-.969zm13.321 5.454h-.545l-.121-.848h-.061s-.485.97-1.515.97h-.97c-1.151 0-1.818-.728-1.818-1.697v-.364c0-.97.728-1.697 1.818-1.697h2.364v-.848a.957.957 0 00-.97-.97h-2.666v-.727h2.666c1.091 0 1.818.727 1.818 1.697v4.484zm-3.212-.606h.97c.909 0 1.394-1.09 1.394-1.09v-1.213h-2.364a.957.957 0 00-.969.97v.364c0 .545.424.97.969.97zm11.928-3.636h-.06l-1.394 4.242h-.97l-1.636-5.817v-.364h.849l1.333 4.97h.06l1.273-4.122h1.03l1.273 4.121h.06l1.334-4.97h.848v.364l-1.636 5.818h-.97l-1.394-4.242zm13.14 4.242h-.545l-.121-.848h-.061s-.485.97-1.515.97h-.97c-1.151 0-1.818-.728-1.818-1.697v-.364c0-.97.728-1.697 1.818-1.697h2.364v-.848a.957.957 0 00-.97-.97h-2.666v-.727h2.666c1.091 0 1.818.727 1.818 1.697v4.484zm-3.212-.606h.97c.909 0 1.394-1.09 1.394-1.09v-1.213h-2.364a.957.957 0 00-.969.97v.364c0 .545.424.97.969.97zm13.383-5.212l-2.182 5.818c-.545 1.455-1.151 2.06-2.242 2.06h-.303v-.727h.303c.606 0 1.03-.424 1.333-1.333l-2.303-5.817v-.364h.849l1.878 5.212h.061l1.757-5.212h.849v.364z" fill="#fff"/><defs><linearGradient id="paint0_linear_307_1918" x1="0" y1="0" x2="274" y2="0" gradientUnits="userSpaceOnUse"><stop stop-color="#0DF"/><stop offset="1" stop-color="#FF00D4"/></linearGradient></defs></svg>