<svg width="155" height="51" fill="none" xmlns="http://www.w3.org/2000/svg"><g clip-path="url(#clip0_9_20)"><path d="M41.673 0a13.74 13.74 0 00-6.49 1.663 13.885 13.885 0 00-4.955 4.543l9.112 10.71a2.051 2.051 0 01.305 2.185 2.038 2.038 0 01-.748.867 2.011 2.011 0 01-1.94.136 2.002 2.002 0 01-.687-.53l-8.148-9.548-4.466-5.285c-1.088-1.28-2.067-2.698-3.6-3.476A12.678 12.678 0 0014.325 0C5.114.057-1.671 10.34.359 19.962c1.013 4.798 4.42 8.684 7.13 12.46 3.459 4.818 10.2 11.636 15.008 16.277a7.785 7.785 0 005.5 2.28c2.06 0 4.036-.819 5.5-2.28 4.826-4.641 11.554-11.459 15.013-16.276 2.71-3.767 6.117-7.64 7.13-12.462C57.665 10.342 50.885.058 41.673 0z" fill="url(#paint0_radial_9_20)"/></g><path d="M71.252 20.885c-1.968 0-3.605-.633-4.912-1.898-1.294-1.278-1.942-2.891-1.942-4.84 0-1.948.648-3.555 1.942-4.82 1.307-1.278 2.944-1.918 4.912-1.918a7.01 7.01 0 012.893.596A5.97 5.97 0 0176.373 9.7a6.125 6.125 0 011.256 2.55H75.42c-.318-.869-.844-1.545-1.58-2.029-.736-.496-1.6-.744-2.59-.744-1.332 0-2.436.44-3.312 1.321-.875.881-1.313 2.004-1.313 3.369 0 1.353.438 2.47 1.313 3.35.876.869 1.98 1.303 3.313 1.303 1.015 0 1.897-.26 2.646-.781.749-.534 1.269-1.26 1.56-2.178h2.228c-.343 1.526-1.098 2.748-2.265 3.667-1.168.905-2.558 1.358-4.17 1.358zm17.217-1.47c-1.041.993-2.348 1.489-3.922 1.489-1.574 0-2.887-.496-3.94-1.49-1.041-1.004-1.561-2.264-1.561-3.778 0-.992.234-1.892.704-2.698a5.008 5.008 0 011.98-1.88c.85-.46 1.79-.689 2.817-.689 1.028 0 1.96.23 2.799.689a4.847 4.847 0 011.98 1.88c.482.806.723 1.706.723 2.698 0 1.514-.527 2.774-1.58 3.779zm-3.922-.484c.647 0 1.225-.137 1.733-.41a3.029 3.029 0 001.18-1.172 3.38 3.38 0 00.438-1.713c0-.955-.318-1.743-.952-2.363-.622-.62-1.422-.931-2.399-.931-.977 0-1.783.31-2.418.93-.621.621-.932 1.409-.932 2.364 0 .956.31 1.744.932 2.364.635.62 1.44.931 2.418.931zM97.043 7.633c1.955 0 3.567.614 4.836 1.843 1.282 1.228 1.923 2.785 1.923 4.671 0 1.887-.641 3.444-1.923 4.672-1.269 1.229-2.881 1.843-4.836 1.843h-4.702V7.632h4.703zm-.057 11.037c1.333 0 2.424-.422 3.275-1.265.863-.857 1.294-1.942 1.294-3.258a4.78 4.78 0 00-.342-1.824 3.99 3.99 0 00-.933-1.433 4.12 4.12 0 00-1.447-.93 5.025 5.025 0 00-1.847-.336h-2.455v9.046h2.455zm18.948-3.015a7.8 7.8 0 01-.038.689h-8.338c.127.806.47 1.445 1.028 1.917.571.472 1.275.707 2.113.707.406 0 .787-.056 1.142-.167a3.16 3.16 0 00.933-.503c.279-.223.508-.49.685-.8h2.228c-.406 1.067-1.054 1.904-1.942 2.513-.888.595-1.904.893-3.046.893-1.51 0-2.773-.503-3.788-1.508-1.003-1.005-1.504-2.258-1.504-3.76 0-1.501.501-2.754 1.504-3.76 1.015-1.005 2.278-1.507 3.788-1.507 1.028 0 1.942.242 2.741.726.8.471 1.415 1.11 1.847 1.917.431.794.647 1.675.647 2.643zm-5.235-3.425c-.787 0-1.459.217-2.018.652-.546.434-.907 1.03-1.085 1.787h6.225a3.305 3.305 0 00-.628-1.303 2.74 2.74 0 00-1.085-.838 3.252 3.252 0 00-1.409-.298zm12.923-1.842c1.193 0 2.139.39 2.837 1.172.71.782 1.066 1.8 1.066 3.053v6.049h-2.113v-5.64c0-.906-.203-1.594-.609-2.066-.394-.484-.978-.726-1.752-.726-.799 0-1.459.286-1.98.856-.52.571-.78 1.303-.78 2.197v5.379h-2.113V10.611h1.466l.418 1.396a4.034 4.034 0 011.504-1.191 4.873 4.873 0 012.056-.428zm11.265 8.394h1.161v1.88h-1.561c-.749 0-1.396-.143-1.942-.428a2.965 2.965 0 01-1.256-1.229c-.292-.546-.438-1.185-.438-1.917V12.38h-1.847v-.39l3.579-3.723h.362v2.345h3.046v1.768h-3.027v4.542c0 .595.165 1.055.495 1.377.33.323.806.484 1.428.484zM146.6 10.61h1.637v10.052h-1.713l-.21-1.228c-.99.98-2.227 1.47-3.712 1.47-1.535 0-2.817-.503-3.845-1.508-1.016-1.005-1.523-2.258-1.523-3.76 0-1.513.507-2.767 1.523-3.76 1.028-1.005 2.31-1.507 3.845-1.507 1.51 0 2.76.496 3.75 1.489l.248-1.247zM140.337 18c.647.62 1.453.931 2.417.931.978 0 1.777-.31 2.399-.93.635-.634.952-1.422.952-2.365 0-.955-.317-1.743-.952-2.363-.622-.62-1.421-.931-2.399-.931-.634 0-1.212.143-1.732.428a3.123 3.123 0 00-1.199 1.191 3.241 3.241 0 00-.438 1.675c0 .944.317 1.732.952 2.364zm10.913 2.662V7h2.113v13.662h-2.113z" fill="#2F3D3D"/><path d="M77.269 27v3.933h-4.416V42.82h-4.461V30.933H64V27h13.269zm13.946 14.42c-1.31 1.205-3.005 1.808-5.085 1.808-2.066 0-3.76-.603-5.086-1.808-1.31-1.206-1.965-2.78-1.965-4.724V27h4.554v9.628c0 .769.231 1.386.694 1.854.462.452 1.063.678 1.803.678.755 0 1.363-.226 1.826-.678.462-.468.693-1.085.693-1.854V27h4.554v9.696c0 1.944-.663 3.518-1.988 4.724zm13.671 1.401l-2.635-4.837h-1.595v4.837h-4.461V27h7.004c1.156 0 2.188.234 3.097.7a5.146 5.146 0 012.127 1.99c.524.858.786 1.83.786 2.915 0 .633-.1 1.236-.3 1.808a4.858 4.858 0 01-.879 1.515 5.007 5.007 0 01-1.387 1.13l3.213 5.763h-4.97zm-4.23-11.956V34.3h2.034c.601 0 1.079-.158 1.434-.474.354-.317.531-.731.531-1.243 0-.332-.077-.626-.231-.882a1.603 1.603 0 00-.693-.61c-.293-.15-.64-.226-1.041-.226h-2.034zm25.538 11.956h-5.293l-4.624-6.984v6.984h-4.461V27h4.461v6.667L120.554 27h5.155l-5.178 7.662 5.663 8.16zm5.704-3.774h6.103v3.774H127.46V27h10.356v3.774h-5.918v2.328h5.317v3.572h-5.317v2.373zM155 27l-5.663 9.628v6.193h-4.531v-6.193L139.189 27h4.946l2.959 5.718L150.053 27H155z" fill="#055E6A"/><defs><radialGradient id="paint0_radial_9_20" cx="0" cy="0" r="1" gradientUnits="userSpaceOnUse" gradientTransform="matrix(19.99875 35.97985 -39.5224 21.9678 8 15)"><stop stop-color="#30B3EC"/><stop offset="1" stop-color="#18CBDD"/></radialGradient><clipPath id="clip0_9_20"><path fill="#fff" d="M0 0h56v51H0z"/></clipPath></defs></svg>