<svg width="22" height="26" fill="none" xmlns="http://www.w3.org/2000/svg"><path d="M20.8 17.064c.131-.657.2-1.337.2-2.033C21 7.914 13 8.117 13 1l-.156.08C10.485 2.278 8.989 4.722 8.97 7.402c-.144.98-.968 1.732-1.971 1.732-1.105 0-2-.91-2-2.034 0-.5.177-.957.472-1.312L3.305 8.395C1.817 10.185 1 12.25 1 14.594c0 5.31 3.818 9.849 9.018 10.353 3.668.356 6.978-1.101 8.983-3.816M13 14.014l-4 4.067" stroke="#373ECF" stroke-width="1.6" stroke-miterlimit="10" stroke-linecap="round" stroke-linejoin="round"/><circle cx="8.5" cy="13.5" r="1" fill="#373ECF" stroke="#373ECF"/><circle cx="14.5" cy="18.5" r="1" fill="#373ECF" stroke="#373ECF"/></svg>