<svg width="26" height="26" fill="none" xmlns="http://www.w3.org/2000/svg"><path d="M11.828 4.011c0 1.663-2.424 3.011-5.414 3.011C3.424 7.022 1 5.674 1 4.012m10.828 0C11.828 2.347 9.404 1 6.414 1 3.424 1 1 2.348 1 4.011m10.828 0V21.99c0 1.663-2.424 3.011-5.414 3.011C3.424 25 1 23.652 1 21.989V4.01m10.828 3.596c0 1.663-2.424 3.01-5.414 3.01C3.424 10.618 1 9.27 1 7.608m10.828 3.595c0 1.663-2.424 3.011-5.414 3.011-2.99 0-5.414-1.348-5.414-3.01m0 3.595c0 1.663 2.424 3.01 5.414 3.01 2.99 0 5.414-1.347 5.414-3.01 0 1.247 1.419 2.33 3.362 2.788M1 18.393c0 1.663 2.424 3.011 5.414 3.011 2.99 0 5.414-1.348 5.414-3.01 0 1.2 1.415 2.276 3.243 2.759m7.586-9.979c0 1.663-2.424 3.011-5.415 3.011-2.99 0-5.414-1.348-5.414-3.01 0-1.664 2.424-3.012 5.415-3.012 2.99 0 5.414 1.348 5.414 3.011zm0 0v3.795m-3.838 9.902a9.807 9.807 0 01-1.577.129c-2.99 0-5.414-1.348-5.414-3.011V11.787M25 19.557C25 22.563 22.727 25 19.924 25c-2.803 0-5.076-2.437-5.076-5.443s2.273-5.443 5.076-5.443c2.803 0 5.076 2.436 5.076 5.443zm-2.911 0c0 1.282-.97 2.321-2.165 2.321-1.196 0-2.165-1.04-2.165-2.321 0-1.282.97-2.322 2.165-2.322 1.196 0 2.165 1.04 2.165 2.322z" stroke="#373ECF" stroke-width="1.6" stroke-miterlimit="10" stroke-linecap="round" stroke-linejoin="round"/></svg>