<svg width="24" height="24" fill="none" xmlns="http://www.w3.org/2000/svg"><path d="M20.67 17.5c-.62 1.73-1.32 3.299-2.008 4.475-.42.792-1.04 1.025-1.677 1.025-1.03 0-1.678-.746-1.956-1.958-.56-2.19-.545-6.572-3.029-6.572s-2.468 4.382-3.029 6.572C8.693 22.254 8.045 23 7.016 23c-.639 0-1.259-.233-1.678-1.025C3.195 18.31 1.051 10.835 1 6.507.965 3.473 3.236 1 6.27 1c2.78 0 3.96 2.144 5.731 2.144 1.769 0 2.95-2.144 5.73-2.144 2.713 0 4.834 1.979 5.222 4.568M23 14.844l-1.305-1.302m-8.157-4.665a3.496 3.496 0 106.992 0 3.496 3.496 0 00-6.992 0z" stroke="#373ECF" stroke-width="1.6" stroke-miterlimit="10" stroke-linecap="round" stroke-linejoin="round"/></svg>