<svg width="35" height="28" fill="none" xmlns="http://www.w3.org/2000/svg"><path d="M8.467 6.03l9.033 4.913m0 0l9.034-4.913M17.5 10.943v8.04m11.667-6.538C32.153 13.86 34 15.814 34 17.972c0 1.676-1.113 3.228-3.007 4.5M27.748 24.1c-2.815 1.058-6.376 1.69-10.248 1.69-9.113 0-16.5-3.5-16.5-7.818 0-2.148 1.83-4.094 4.79-5.507m17.716 10.911l5.143.469L24.612 27M16.725 1.197l-7.75 4.215a1.558 1.558 0 00-.822 1.367v8.837c0 .568.314 1.091.821 1.367l7.75 4.216a1.626 1.626 0 001.551 0l7.75-4.216c.508-.276.822-.799.822-1.367V6.78a1.56 1.56 0 00-.821-1.367l-7.75-4.215a1.626 1.626 0 00-1.551 0z" stroke="#373ECF" stroke-width="2" stroke-miterlimit="10" stroke-linecap="round" stroke-linejoin="round"/></svg>