<svg width="39" height="29" fill="none" xmlns="http://www.w3.org/2000/svg"><path fill-rule="evenodd" clip-rule="evenodd" d="M.24.259C.02.495 0 1.494 0 11.717 0 22.728.005 22.922.289 23.2c.283.277.481.283 9.317.283h9.027v3.82l-3.864.002c-4.297.002-4.555.046-4.63.8-.092.922-.382.895 9.465.895 8.659 0 8.858-.006 9.14-.283.382-.373.365-.646-.065-1.067l-.355-.348h-7.957v-3.82H38.55l.225-.314c.199-.278.225-1.605.225-11.507C39 .997 38.988.457 38.736.234 38.493.02 36.949 0 19.475 0 1.255 0 .468.01.239.259zm37.17 11.553v10.115H1.59V1.698h35.82v10.114z" fill="#373ECF"/><path d="M20 14.906a1.2 1.2 0 011.054.625l1.092 2.004a.893.893 0 00.784.465.914.914 0 00.872-.639l1.716-5.435C25.838 10.915 26 9.86 26 8.8A2.8 2.8 0 0023.2 6h0c-1.502 0-1.93.595-3.2.595-1.27 0-1.698-.595-3.2-.595h0A2.8 2.8 0 0014 8.8c0 1.06.163 2.115.482 3.126l1.716 5.435c.12.38.473.639.872.639h0a.893.893 0 00.784-.465l1.092-2.004A1.2 1.2 0 0120 14.906z" stroke="#373ECF" stroke-width="1.5" stroke-miterlimit="10" stroke-linecap="round" stroke-linejoin="round"/></svg>