<svg width="39" height="29" fill="none" xmlns="http://www.w3.org/2000/svg"><path fill-rule="evenodd" clip-rule="evenodd" d="M.24.259C.02.495 0 1.494 0 11.717 0 22.728.005 22.922.289 23.2c.283.277.481.283 9.317.283h9.027v3.82l-3.864.002c-4.297.002-4.555.046-4.63.8-.092.922-.382.895 9.465.895 8.659 0 8.858-.006 9.14-.283.382-.373.365-.646-.065-1.067l-.355-.348h-7.957v-3.82H38.55l.225-.314c.199-.278.225-1.605.225-11.507C39 .997 38.988.457 38.736.234 38.493.02 36.949 0 19.475 0 1.255 0 .468.01.239.259zm37.17 11.553v10.115H1.59V1.698h35.82v10.114zM15.961 5.88c-1.827 1.133-3.468 2.218-3.647 2.412-.318.345-.325.43-.325 3.667v3.315l.397.409c.4.411 6.803 4.122 7.114 4.122.223 0 7.121-3.947 7.258-4.153.059-.089.091-1.784.072-3.768l-.036-3.606-3.538-2.222C21.309 4.834 19.619 3.83 19.5 3.827c-.12-.004-1.712.92-3.539 2.053zm5.997 1.32l2.46 1.541-2.375 1.359c-1.307.747-2.451 1.359-2.543 1.359-.092 0-1.235-.611-2.54-1.358l-2.374-1.357 2.42-1.532a219.766 219.766 0 012.456-1.543c.02-.006 1.142.683 2.496 1.53zm-5.678 4.435l2.347 1.309.003 2.22.003 2.221-2.451-1.372-2.452-1.372-.004-2.157c-.002-1.186.043-2.157.101-2.157.058 0 1.162.589 2.453 1.308zm8.998.872v2.179l-2.394 1.357c-1.316.746-2.421 1.357-2.456 1.357-.034 0-.061-.978-.061-2.174v-2.174l2.347-1.348c1.29-.742 2.396-1.355 2.455-1.363.06-.008.109.967.109 2.166z" fill="#373ECF"/></svg>