<svg width="28" height="28" fill="none" xmlns="http://www.w3.org/2000/svg"><path d="M11.062 1.65a6 6 0 015.876 0l3.166 1.778 3.123 1.853a6 6 0 012.938 5.088L26.208 14l-.043 3.631a6 6 0 01-2.938 5.088l-3.123 1.853-3.166 1.778a6 6 0 01-5.876 0l-3.166-1.778-3.123-1.853a6 6 0 01-2.938-5.088L1.792 14l.043-3.631A6 6 0 014.773 5.28l3.123-1.853 3.166-1.778z" fill="#2976D1"/><path d="M14.002 8.123l1.63 3.633 3.958.428-2.95 2.673.816 3.897-3.454-1.98-3.455 1.98.817-3.897-2.951-2.673 3.958-.428 1.63-3.633z" fill="#fff"/></svg>