<svg width="42" height="42" fill="none" xmlns="http://www.w3.org/2000/svg"><circle cx="20.544" cy="20.544" r="20.544" fill="#1D9BF0"/><path d="M11.318 20.672l4.148 1.58 1.605 5.271a.484.484 0 00.775.239l2.312-1.925a.679.679 0 01.841-.024l4.17 3.091a.486.486 0 00.766-.302l3.054-15c.079-.387-.293-.71-.654-.568l-17.022 6.704a.503.503 0 00.005.934zm5.494.74l8.106-5.098c.146-.091.296.11.17.228l-6.69 6.349a1.426 1.426 0 00-.429.847l-.228 1.724c-.03.23-.347.253-.409.03l-.876-3.143a.841.841 0 01.356-.938z" fill="#fff"/></svg>