<svg width="42" height="42" fill="none" xmlns="http://www.w3.org/2000/svg"><circle cx="20.805" cy="20.544" r="20.544" fill="#130C18"/><path d="M29.262 19.971a6.307 6.307 0 01-3.838-1.303v5.935c0 1.1-.317 2.173-.906 3.076a5.138 5.138 0 01-2.395 1.979 4.8 4.8 0 01-3.029.176 5.044 5.044 0 01-2.583-1.688 5.568 5.568 0 01-1.218-2.951 5.686 5.686 0 01.581-3.163 5.238 5.238 0 012.175-2.247 4.82 4.82 0 012.992-.53v2.984a2.203 2.203 0 00-1.44.014 2.349 2.349 0 00-1.157.908 2.586 2.586 0 00-.436 1.457c.003.523.161 1.03.452 1.452.291.42.7.733 1.168.893.468.16.971.158 1.439-.004a2.346 2.346 0 001.162-.901c.289-.423.444-.932.444-1.455V12h2.751c-.002.247.018 1.493.058 1.736.096.543.294 1.059.584 1.517.29.458.665.849 1.101 1.148.622.436 1.35.669 2.095.668v2.902z" fill="#EF1754"/><path d="M27.262 17.971a6.307 6.307 0 01-3.838-1.303v5.935c0 1.1-.317 2.173-.906 3.076a5.138 5.138 0 01-2.395 1.979 4.8 4.8 0 01-3.029.176 5.044 5.044 0 01-2.583-1.688 5.568 5.568 0 01-1.218-2.951 5.686 5.686 0 01.581-3.163 5.238 5.238 0 012.175-2.247 4.82 4.82 0 012.992-.53v2.984a2.203 2.203 0 00-1.44.014 2.349 2.349 0 00-1.157.908 2.586 2.586 0 00-.436 1.457c.003.523.161 1.03.452 1.452.291.42.7.733 1.168.893.468.16.971.158 1.439-.004a2.346 2.346 0 001.162-.901c.289-.423.444-.932.444-1.455V11h2.751a4.27 4.27 0 00.058.736c.096.543.294 1.059.584 1.517.29.458.665.849 1.101 1.147a3.64 3.64 0 002.095.67v2.901z" fill="#31E9E4"/><path d="M28.262 18.971a6.307 6.307 0 01-3.838-1.303v5.935c0 1.1-.317 2.173-.906 3.076a5.138 5.138 0 01-2.395 1.979 4.8 4.8 0 01-3.029.176 5.044 5.044 0 01-2.583-1.688 5.568 5.568 0 01-1.218-2.951 5.686 5.686 0 01.581-3.163 5.238 5.238 0 012.175-2.247 4.82 4.82 0 012.992-.53v2.984a2.203 2.203 0 00-1.44.014 2.349 2.349 0 00-1.157.908 2.586 2.586 0 00-.436 1.457c.003.523.161 1.03.452 1.452.291.42.7.733 1.168.893.468.16.971.158 1.439-.004a2.346 2.346 0 001.162-.901c.289-.423.444-.932.444-1.455V12h2.751a4.27 4.27 0 00.058.736c.096.543.294 1.059.584 1.517.29.458.665.849 1.101 1.147a3.64 3.64 0 002.095.67v2.901z" fill="#F6EBE8"/></svg>