<svg width="16" height="16" fill="none" xmlns="http://www.w3.org/2000/svg"><path d="M13.526 2.302A7.855 7.855 0 007.948 0C3.602 0 .065 3.52.063 7.849c0 1.322.335 2.626.97 3.78L.015 15.337a.391.391 0 00.38.496.398.398 0 00.1-.013l3.823-.998a7.928 7.928 0 003.628.882c4.35 0 7.886-3.521 7.888-7.849a7.781 7.781 0 00-2.307-5.553z" fill="#fff"/><path d="M12.832 3.003A6.903 6.903 0 007.918.966C4.085.966.967 4.082.965 7.913c0 1.313.367 2.591 1.063 3.698l.165.263-.702 2.564 2.63-.69.255.15a6.937 6.937 0 003.537.97h.003c3.831 0 6.95-3.118 6.95-6.949a6.906 6.906 0 00-2.034-4.916z" fill="url(#paint0_linear_159_1995)"/><path opacity=".05" d="M9.77 11.658c-.377 0-.892-.096-1.927-.504-1.159-.458-2.297-1.451-3.206-2.797l-.029-.043c-.243-.324-.807-1.176-.807-2.083 0-.977.488-1.497.696-1.72l.032-.034c.288-.314.626-.348.758-.348.14.001.259 0 .361.004.248.01.53.082.733.534.095.211.256.608.383.919.08.2.146.362.166.405a.696.696 0 01.013.649l-.024.05c-.049.1-.099.202-.206.327l-.09.107a3.954 3.954 0 01-.177.206c.147.243.457.703.883 1.083.528.47.98.667 1.223.773.048.02.088.038.12.053a9.56 9.56 0 00.493-.61c.291-.439.71-.287.848-.236.216.078 1.259.597 1.269.601l.096.048c.16.077.308.149.403.306.15.25.066.785-.074 1.176-.202.569-1.07 1.062-1.535 1.104l-.085.009c-.1.012-.203.02-.317.02zM5.347 4.886c-.053 0-.146-.022-.26.103l-.038.04c-.171.184-.491.525-.491 1.202 0 .698.502 1.423.656 1.629l.05.073c.825 1.22 1.839 2.114 2.857 2.516 1.282.505 1.61.467 1.877.436l.105-.012c.23-.02.804-.36.89-.603a1.84 1.84 0 00.11-.52l-.055-.026-.107-.053a30.55 30.55 0 00-1.186-.566c-.167.23-.478.593-.56.687-.154.177-.427.344-.844.134l-.102-.045c-.261-.114-.806-.351-1.425-.902A5.79 5.79 0 015.75 7.643c-.168-.288-.122-.566.139-.826.045-.045.097-.11.15-.174l.1-.119c.044-.052.06-.086.1-.167l.014-.027c-.035-.077-.105-.25-.19-.46a34.162 34.162 0 00-.371-.892.446.446 0 00-.052-.093c.002.006-.011.006-.022.006-.084-.005-.176-.005-.27-.005z" fill="#000"/><path opacity=".07" d="M9.77 11.471c-.32 0-.816-.083-1.855-.493-1.124-.443-2.231-1.411-3.118-2.726l-.033-.048c-.234-.312-.772-1.122-.772-1.972 0-.902.452-1.384.645-1.59l.034-.036a.844.844 0 01.619-.287c.143.001.252 0 .352.005.187.007.4.047.57.422.093.21.253.603.378.912.085.21.154.38.171.416a.516.516 0 01.015.482l-.025.052c-.047.097-.088.18-.18.287l-.092.11c-.065.08-.13.158-.188.215-.081.081-.081.081-.049.137.124.213.467.757.963 1.199.55.49 1.02.694 1.273.804.055.024.098.043.13.06.111.055.123.043.162-.001.11-.125.443-.517.554-.685.21-.314.48-.216.627-.163.191.07 1.15.544 1.248.593l.1.049c.143.07.257.124.322.232.096.161.056.607-.09 1.015-.184.52-1.001.946-1.373.98l-.09.01c-.089.01-.182.021-.298.021zM5.343 4.698h-.029a.48.48 0 00-.364.164l-.037.04a1.806 1.806 0 00-.542 1.33c0 .736.485 1.463.693 1.742.01.013.025.034.046.066.845 1.252 1.89 2.17 2.944 2.586 1.327.523 1.683.481 1.968.448l.101-.011c.263-.024.928-.384 1.051-.73.127-.352.132-.647.113-.71a2.681 2.681 0 01-.154-.069l-.104-.051a29.145 29.145 0 00-1.208-.576c-.136-.05-.137-.05-.182.017-.132.198-.5.628-.584.724-.243.278-.524.136-.617.09-.027-.014-.064-.03-.11-.05-.253-.11-.78-.34-1.375-.87a5.58 5.58 0 01-1.038-1.29c-.18-.309.023-.51.11-.596.048-.05.105-.119.162-.189l.097-.116a.841.841 0 00.127-.207l.027-.054c.018-.037.022-.072-.016-.145-.02-.04-.092-.219-.182-.442-.124-.304-.281-.693-.374-.9-.087-.192-.138-.194-.24-.198-.087-.003-.184-.003-.283-.003z" fill="#000"/><path fill-rule="evenodd" clip-rule="evenodd" d="M6.037 4.823c-.135-.3-.276-.306-.405-.311-.105-.005-.224-.004-.344-.004a.66.66 0 00-.48.225c-.164.18-.628.614-.628 1.498s.644 1.738.733 1.858c.09.12 1.243 1.992 3.07 2.712 1.517.599 1.826.48 2.156.45.33-.03 1.063-.435 1.212-.854.15-.42.15-.78.105-.854-.045-.075-.165-.12-.344-.21-.18-.09-1.063-.525-1.228-.585-.165-.06-.284-.09-.404.09-.12.18-.464.585-.57.705-.104.12-.209.135-.389.045-.18-.09-.758-.28-1.444-.892a5.413 5.413 0 01-1-1.244c-.105-.18-.011-.277.079-.367.08-.08.18-.21.27-.314.09-.105.12-.18.18-.3.059-.12.029-.225-.016-.315-.044-.09-.394-.978-.553-1.333z" fill="#fff"/><defs><linearGradient id="paint0_linear_159_1995" x1="4.252" y1="2.076" x2="10.186" y2="14.646" gradientUnits="userSpaceOnUse"><stop stop-color="#63D46D"/><stop offset="1" stop-color="#21B238"/></linearGradient></defs></svg>