<svg width="19" height="19" fill="none" xmlns="http://www.w3.org/2000/svg"><path d="M16.231 2.763A9.426 9.426 0 009.538 0C4.323 0 .078 4.225.075 9.418c0 1.588.402 3.152 1.166 4.536l-1.224 4.45A.47.47 0 00.474 19a.45.45 0 00.12-.016l4.586-1.197a9.513 9.513 0 004.354 1.058c5.219 0 9.464-4.225 9.466-9.419a9.34 9.34 0 00-2.769-6.663z" fill="#fff"/><path d="M15.397 3.605A8.284 8.284 0 009.5 1.16c-4.6 0-8.342 3.74-8.344 8.337 0 1.576.44 3.11 1.276 4.438l.198.315-.843 3.077 3.157-.828.305.18a8.325 8.325 0 004.246 1.163h.003c4.597 0 8.339-3.74 8.34-8.338a8.287 8.287 0 00-2.44-5.899z" fill="url(#paint0_linear_159_1957)"/><path opacity=".05" d="M11.725 13.99c-.452 0-1.07-.116-2.312-.605-1.39-.55-2.757-1.741-3.847-3.356l-.035-.052c-.291-.389-.968-1.412-.968-2.5 0-1.172.585-1.796.835-2.062l.038-.042a1.24 1.24 0 01.91-.418c.168.002.31 0 .433.006.298.011.636.097.88.64.114.253.308.73.459 1.102.097.24.175.434.2.486.133.267.14.53.016.78l-.03.06a1.634 1.634 0 01-.247.392l-.107.128a4.67 4.67 0 01-.213.248 5.94 5.94 0 001.059 1.3c.633.564 1.176.8 1.467.926l.145.065c.184-.214.487-.578.591-.734.35-.525.853-.343 1.018-.282.259.093 1.51.716 1.523.722l.116.056c.19.093.37.18.482.368.18.3.08.942-.087 1.41-.243.684-1.286 1.276-1.843 1.326l-.103.01c-.12.015-.242.026-.38.026zM6.418 5.864c-.064 0-.175-.026-.312.123l-.046.05c-.205.219-.589.628-.589 1.44 0 .838.603 1.708.787 1.955l.061.088c.989 1.465 2.206 2.537 3.428 3.019 1.538.607 1.933.56 2.252.523l.126-.014c.277-.025.965-.432 1.069-.724.095-.266.125-.494.13-.624l-.065-.031-.128-.063c-.29-.146-1.263-.62-1.423-.68-.201.277-.574.712-.672.825-.185.212-.513.413-1.013.16l-.122-.054c-.314-.137-.968-.42-1.71-1.082-.668-.595-1.125-1.32-1.29-1.603-.202-.346-.147-.68.166-.991.055-.055.117-.132.18-.21l.12-.142c.053-.062.073-.103.121-.2l.016-.033a20.99 20.99 0 01-.228-.55 41.024 41.024 0 00-.445-1.072.534.534 0 00-.063-.111c.002.006-.013.007-.026.006-.101-.005-.212-.005-.324-.005z" fill="#000"/><path opacity=".07" d="M11.723 13.766c-.385 0-.98-.1-2.227-.592-1.348-.532-2.677-1.694-3.742-3.271l-.04-.058c-.28-.374-.925-1.346-.925-2.366 0-1.083.542-1.661.774-1.908l.04-.044c.285-.31.614-.343.743-.343.171.001.303 0 .423.005.224.01.48.056.683.506.113.252.305.725.455 1.095.102.252.184.456.205.499.037.075.154.306.018.58l-.03.061c-.057.116-.106.216-.216.344l-.11.132c-.079.095-.158.19-.226.258-.098.098-.098.098-.059.165.15.256.56.908 1.155 1.438.66.589 1.225.834 1.528.966.066.028.118.051.157.07.133.067.146.053.194 0 .13-.15.53-.62.665-.822.251-.377.576-.259.751-.195.23.083 1.381.653 1.498.711l.12.058c.172.084.308.15.387.28.115.193.067.728-.107 1.218-.222.623-1.203 1.135-1.65 1.175l-.108.011c-.106.013-.217.027-.357.027zM6.41 5.638h-.036a.575.575 0 00-.437.196l-.044.048c-.211.225-.65.694-.65 1.597 0 .883.581 1.756.832 2.09l.055.08c1.014 1.502 2.268 2.604 3.532 3.103 1.593.628 2.02.577 2.362.537l.121-.013c.315-.028 1.114-.46 1.262-.875.151-.424.157-.777.134-.853a3.214 3.214 0 01-.184-.083l-.125-.062c-.283-.142-1.276-.627-1.45-.69-.163-.06-.163-.06-.217.02-.159.237-.6.754-.701.869-.292.334-.63.163-.74.107-.033-.016-.078-.035-.134-.06-.303-.132-.934-.406-1.65-1.043-.643-.574-1.084-1.274-1.244-1.548-.216-.37.027-.613.13-.716.06-.059.128-.142.196-.226l.116-.139a1.01 1.01 0 00.153-.248l.032-.065c.022-.045.026-.086-.019-.174a16.06 16.06 0 01-.22-.53 35.155 35.155 0 00-.448-1.08c-.104-.231-.165-.234-.287-.238-.105-.004-.221-.004-.34-.004z" fill="#000"/><path fill-rule="evenodd" clip-rule="evenodd" d="M7.244 5.788c-.161-.36-.331-.366-.485-.373-.126-.005-.27-.005-.414-.005a.792.792 0 00-.574.27c-.198.216-.755.737-.755 1.798 0 1.06.772 2.086.88 2.23.108.143 1.492 2.39 3.683 3.254 1.821.718 2.192.575 2.587.54.396-.036 1.276-.522 1.456-1.025.18-.504.18-.935.126-1.025-.055-.09-.198-.144-.414-.252-.215-.108-1.275-.63-1.473-.701-.198-.072-.341-.108-.485.108-.144.216-.557.701-.683.845-.126.144-.252.162-.467.054-.216-.108-.91-.335-1.734-1.07-.64-.571-1.074-1.277-1.2-1.493-.125-.215-.013-.332.095-.44.097-.096.216-.251.324-.377.107-.126.143-.216.215-.36.072-.144.036-.27-.018-.378-.053-.108-.472-1.174-.664-1.6z" fill="#fff"/><defs><linearGradient id="paint0_linear_159_1957" x1="5.1" y1="2.492" x2="12.222" y2="17.576" gradientUnits="userSpaceOnUse"><stop stop-color="#63D46D"/><stop offset="1" stop-color="#21B238"/></linearGradient></defs></svg>