<svg width="43" height="43" fill="none" xmlns="http://www.w3.org/2000/svg"><path d="M36.708 6.302A21.353 21.353 0 0021.508 0C9.65 0 .005 9.64 0 21.49a21.44 21.44 0 003.287 11.438l.513.813-2.173 7.93 8.137-2.133.786.466A21.46 21.46 0 0021.493 43h.008C33.351 43 42.996 33.359 43 21.508a21.361 21.361 0 00-6.292-15.206z" fill="url(#paint0_linear_176_253)"/><path opacity=".05" d="M26.726 32.454c-1.143 0-2.706-.292-5.847-1.53-3.518-1.39-6.974-4.403-9.73-8.489l-.089-.13c-.738-.985-2.45-3.571-2.45-6.322 0-2.966 1.48-4.544 2.112-5.22l.098-.104c.873-.955 1.9-1.057 2.301-1.057.425.004.784 0 1.096.013.752.03 1.608.248 2.225 1.62.288.642.777 1.845 1.16 2.789.245.606.444 1.098.505 1.229.338.673.354 1.341.041 1.97l-.074.153c-.148.301-.3.613-.626.992l-.27.324a11.66 11.66 0 01-.54.627c.447.737 1.386 2.133 2.68 3.288a12.968 12.968 0 003.711 2.343c.146.064.268.118.365.164.465-.54 1.232-1.461 1.497-1.856.885-1.329 2.157-.868 2.575-.715.654.237 3.82 1.812 3.85 1.827l.294.144c.481.233.934.453 1.22.928.455.76.203 2.384-.221 3.57-.614 1.728-3.251 3.224-4.66 3.35l-.26.028a8.05 8.05 0 01-.963.064zM13.303 11.9c-.16 0-.443-.067-.789.31l-.116.125c-.52.556-1.49 1.59-1.49 3.647 0 2.118 1.524 4.319 1.99 4.943.031.041.082.116.156.223 2.5 3.705 5.578 6.417 8.668 7.635 3.89 1.535 4.89 1.419 5.697 1.323l.32-.034c.7-.063 2.44-1.093 2.703-1.832a5.56 5.56 0 00.33-1.58l-.165-.077-.325-.16c-.732-.368-3.195-1.57-3.6-1.718-.507.698-1.45 1.799-1.7 2.085-.467.537-1.295 1.045-2.562.407-.076-.038-.18-.082-.308-.138-.794-.346-2.448-1.065-4.326-2.736-1.688-1.507-2.844-3.338-3.262-4.057-.512-.875-.37-1.718.42-2.506.138-.138.296-.334.457-.529l.301-.36c.136-.158.185-.26.307-.508l.04-.081c-.105-.235-.32-.758-.577-1.395-.371-.916-.846-2.086-1.125-2.71a1.35 1.35 0 00-.159-.28c.006.017-.033.018-.067.015-.255-.012-.534-.012-.818-.012z" fill="#000"/><path opacity=".07" d="M26.725 31.894c-.972 0-2.477-.253-5.632-1.497-3.41-1.345-6.772-4.284-9.464-8.274l-.1-.148c-.708-.945-2.341-3.405-2.341-5.984 0-2.738 1.37-4.2 1.957-4.826l.103-.11c.718-.785 1.553-.87 1.878-.87.433.004.767 0 1.07.014.566.023 1.215.143 1.727 1.28.286.638.771 1.833 1.15 2.77.26.638.466 1.152.52 1.261.094.19.389.775.045 1.466l-.077.156c-.144.293-.268.547-.546.872l-.278.332a9.806 9.806 0 01-.57.654c-.249.247-.249.247-.15.416.377.647 1.416 2.297 2.921 3.639 1.67 1.488 3.1 2.108 3.866 2.441.166.071.298.13.395.18.337.167.372.133.491-.003.331-.377 1.343-1.568 1.682-2.077.637-.954 1.459-.655 1.901-.495.582.211 3.494 1.651 3.79 1.8l.3.147c.437.211.782.378.98.706.292.49.171 1.842-.27 3.082-.561 1.576-3.042 2.87-4.17 2.971l-.275.03c-.268.032-.55.067-.903.067zM13.29 11.335h-.09c-.21 0-.684.036-1.105.497l-.112.12c-.534.57-1.646 1.756-1.646 4.039 0 2.233 1.473 4.442 2.106 5.288.029.038.073.103.139.2 2.565 3.8 5.737 6.587 8.934 7.849 4.03 1.589 5.11 1.461 5.975 1.36l.307-.034c.796-.07 2.817-1.164 3.19-2.212.384-1.072.4-1.966.34-2.158a8.008 8.008 0 01-.465-.21l-.317-.156c-.716-.36-3.226-1.587-3.665-1.747-.413-.15-.415-.153-.552.053-.4.599-1.517 1.905-1.772 2.196-.738.845-1.591.412-1.873.27-.082-.04-.196-.089-.337-.15-.767-.334-2.364-1.029-4.172-2.64-1.628-1.45-2.744-3.221-3.15-3.916-.546-.935.069-1.548.33-1.809.15-.15.323-.36.496-.571l.293-.352c.183-.214.26-.37.387-.629l.08-.164c.056-.113.067-.218-.046-.44a40.75 40.75 0 01-.555-1.342c-.375-.923-.852-2.103-1.135-2.73-.263-.584-.417-.591-.726-.603-.266-.009-.56-.009-.859-.009z" fill="#000"/><path fill-rule="evenodd" clip-rule="evenodd" d="M15.392 11.71c-.408-.909-.838-.927-1.228-.943-.318-.014-.681-.013-1.044-.013-.364 0-.955.137-1.455.683-.5.546-1.91 1.864-1.91 4.547 0 2.684 1.955 5.277 2.227 5.64.273.363 3.773 6.046 9.317 8.232 4.606 1.816 5.544 1.455 6.544 1.365 1-.091 3.227-1.319 3.68-2.593.455-1.273.455-2.364.32-2.592-.137-.228-.5-.363-1.046-.637-.545-.273-3.227-1.592-3.727-1.774-.5-.181-.863-.272-1.227.274-.363.545-1.409 1.774-1.727 2.137-.318.364-.637.41-1.182.137-.544-.274-2.301-.848-4.385-2.706-1.621-1.445-2.715-3.23-3.034-3.776-.318-.545-.034-.84.24-1.113.244-.245.544-.637.818-.956.272-.318.363-.546.545-.909.181-.364.09-.683-.046-.955-.135-.274-1.195-2.97-1.68-4.049z" fill="#fff"/><defs><linearGradient id="paint0_linear_176_253" x1="10.166" y1="3.433" x2="28.522" y2="42.314" gradientUnits="userSpaceOnUse"><stop stop-color="#63D46D"/><stop offset="1" stop-color="#21B238"/></linearGradient></defs></svg>