<svg width="42" height="42" fill="none" xmlns="http://www.w3.org/2000/svg"><circle cx="20.717" cy="20.544" r="20.544" fill="#F70000"/><path d="M28.7 17.063c-.158-.825-.907-1.426-1.776-1.613-1.3-.262-3.706-.45-6.31-.45-2.602 0-5.048.188-6.35.45-.867.187-1.617.75-1.774 1.613-.159.937-.316 2.25-.316 3.937 0 1.688.157 3 .354 3.938.159.824.908 1.425 1.775 1.612 1.38.262 3.747.45 6.35.45 2.605 0 4.971-.188 6.352-.45.867-.187 1.616-.75 1.774-1.613A27.38 27.38 0 0029.174 21c-.08-1.688-.277-3-.475-3.938zm-10.215 6.562v-5.25L23.296 21l-4.811 2.625z" fill="#fff"/></svg>